<?xml version="1.0" standalone="no"?>
 <!DOCTYPE svg PUBLIC "-//W3C//DTD SVG 1.1//EN" 
 "http://www.w3.org/Graphics/SVG/1.1/DTD/svg11.dtd"> 
<svg
  xmlns:svg="http://www.w3.org/2000/svg"
  xmlns="http://www.w3.org/2000/svg"
  xmlns:xlink="http://www.w3.org/1999/xlink"
  version="1.1"
  width="39.598600cm" height="12.918440cm" viewBox="0 0 395986000 129184400">
<title>SVG Picture created as keyboard-Edge_Cuts.svg date 2021/04/24 11:11:27 </title>
  <desc>Picture generated by PCBNEW </desc>
<g style="fill:#000000; fill-opacity:1.000000;stroke:#000000; stroke-opacity:1.000000;
stroke-linecap:round; stroke-linejoin:round;"
 transform="translate(0 0) scale(1 1)">
</g>
<g style="fill:#000000; fill-opacity:0.0; 
stroke:#000000; stroke-width:0.000000; stroke-opacity:1; 
stroke-linecap:round; stroke-linejoin:round;">
</g>
<g style="fill:#000000; fill-opacity:0.0; 
stroke:#000000; stroke-width:100000.000000; stroke-opacity:1; 
stroke-linecap:round; stroke-linejoin:round;">
<path d="M50000 129150000
L50000 50000
" />
<path d="M395950000 129150000
L395950000 50000
" />
<path d="M395950000 129150000
L50000 129150000
" />
</g>
<g style="fill:#000000; fill-opacity:0.0; 
stroke:#000000; stroke-width:50000.000000; stroke-opacity:1; 
stroke-linecap:round; stroke-linejoin:round;">
<path d="M328290000.000000 43060000.000000 A500000.000000 500000.000000 0.0 0 0 328790000.000000 42560000.000000" />
<path d="M204965000 48610000
L204965000 61610000
" />
<path d="M190965000 48610000
L190965000 61610000
" />
<path d="M137790000.000000 43060000.000000 A500000.000000 500000.000000 0.0 0 0 138290000.000000 42560000.000000" />
<path d="M200990000.000000 29060000.000000 A500000.000000 500000.000000 0.0 0 0 200490000.000000 29560000.000000" />
<path d="M339892750 67150000
L354455750 67150000
" />
<path d="M385440000.000000 119260000.000000 A500000.000000 500000.000000 0.0 0 0 385940000.000000 118760000.000000" />
<path d="M371940000.000000 118760000.000000 A500000.000000 500000.000000 0.0 0 0 372440000.000000 119260000.000000" />
<path d="M385940000.000000 105760000.000000 A500000.000000 500000.000000 0.0 0 0 385440000.000000 105260000.000000" />
<path d="M372440000.000000 105260000.000000 A500000.000000 500000.000000 0.0 0 0 371940000.000000 105760000.000000" />
<path d="M385940000 105760000
L385940000 118760000
" />
<path d="M371940000 105760000
L371940000 118760000
" />
<path d="M372440000 119260000
L385440000 119260000
" />
<path d="M372440000 105260000
L385440000 105260000
" />
<path d="M366390000.000000 119260000.000000 A500000.000000 500000.000000 0.0 0 0 366890000.000000 118760000.000000" />
<path d="M352890000.000000 118760000.000000 A500000.000000 500000.000000 0.0 0 0 353390000.000000 119260000.000000" />
<path d="M366890000.000000 105760000.000000 A500000.000000 500000.000000 0.0 0 0 366390000.000000 105260000.000000" />
<path d="M353390000.000000 105260000.000000 A500000.000000 500000.000000 0.0 0 0 352890000.000000 105760000.000000" />
<path d="M366890000 105760000
L366890000 118760000
" />
<path d="M352890000 105760000
L352890000 118760000
" />
<path d="M353390000 119260000
L366390000 119260000
" />
<path d="M353390000 105260000
L366390000 105260000
" />
<path d="M200990000.000000 10010000.000000 A500000.000000 500000.000000 0.0 0 0 200490000.000000 10510000.000000" />
<path d="M252877500 67660000
L252877500 80660000
" />
<path d="M253377500 81160000
L266377500 81160000
" />
<path d="M253377500 67160000
L266377500 67160000
" />
<path d="M207633750 105760000
L207633750 118760000
" />
<path d="M162890000 29060000
L175890000 29060000
" />
<path d="M214777500.000000 80660000.000000 A500000.000000 500000.000000 0.0 0 0 215277500.000000 81160000.000000" />
<path d="M228777500.000000 67660000.000000 A500000.000000 500000.000000 0.0 0 0 228277500.000000 67160000.000000" />
<path d="M215277500.000000 67160000.000000 A500000.000000 500000.000000 0.0 0 0 214777500.000000 67660000.000000" />
<path d="M347340000.000000 119260000.000000 A500000.000000 500000.000000 0.0 0 0 347840000.000000 118760000.000000" />
<path d="M333840000.000000 118760000.000000 A500000.000000 500000.000000 0.0 0 0 334340000.000000 119260000.000000" />
<path d="M347840000.000000 105760000.000000 A500000.000000 500000.000000 0.0 0 0 347340000.000000 105260000.000000" />
<path d="M334340000.000000 105260000.000000 A500000.000000 500000.000000 0.0 0 0 333840000.000000 105760000.000000" />
<path d="M347840000 105760000
L347840000 118760000
" />
<path d="M333840000 105760000
L333840000 118760000
" />
<path d="M334340000 119260000
L347340000 119260000
" />
<path d="M334340000 105260000
L347340000 105260000
" />
<path d="M277352500 119260000
L329127500 119260000
" />
<path d="M208133750 119260000
L225896250 119260000
" />
<path d="M208133750 105260000
L225896250 105260000
" />
<path d="M200490000.000000 42560000.000000 A500000.000000 500000.000000 0.0 0 0 200990000.000000 43060000.000000" />
<path d="M239090000 43060000
L252090000 43060000
" />
<path d="M9990000 29560000
L9990000 42560000
" />
<path d="M220040000 24009999
L233040000 24009999
" />
<path d="M372440000 43060000
L385440000 43060000
" />
<path d="M62090000.000000 29560000.000000 A500000.000000 500000.000000 0.0 0 0 61590000.000000 29060000.000000" />
<path d="M120027500.000000 67160000.000000 A500000.000000 500000.000000 0.0 0 0 119527500.000000 67660000.000000" />
<path d="M133527500 67660000
L133527500 80660000
" />
<path d="M119527500 67660000
L119527500 80660000
" />
<path d="M128765000.000000 48610000.000000 A500000.000000 500000.000000 0.0 0 0 128265000.000000 48110000.000000" />
<path d="M115265000.000000 48110000.000000 A500000.000000 500000.000000 0.0 0 0 114765000.000000 48610000.000000" />
<path d="M29540000 43060000
L42540000 43060000
" />
<path d="M243065000 48610000
L243065000 61610000
" />
<path d="M229065000 48610000
L229065000 61610000
" />
<path d="M200490000 10510000
L200490000 23509999
" />
<path d="M220040000 29060000
L233040000 29060000
" />
<path d="M233040000.000000 43060000.000000 A500000.000000 500000.000000 0.0 0 0 233540000.000000 42560000.000000" />
<path d="M243352499 86710000
L243352499 99710000
" />
<path d="M243852499 100210000
L256852500 100210000
" />
<path d="M243852499 86210000
L256852500 86210000
" />
<path d="M237802500.000000 100210000.000000 A500000.000000 500000.000000 0.0 0 0 238302500.000000 99710000.000000" />
<path d="M224302500.000000 99710000.000000 A500000.000000 500000.000000 0.0 0 0 224802500.000000 100210000.000000" />
<path d="M42540000.000000 81160000.000000 A500000.000000 500000.000000 0.0 0 0 43040000.000000 80660000.000000" />
<path d="M29040000.000000 80660000.000000 A500000.000000 500000.000000 0.0 0 0 29540000.000000 81160000.000000" />
<path d="M43040000.000000 67660000.000000 A500000.000000 500000.000000 0.0 0 0 42540000.000000 67160000.000000" />
<path d="M247327500.000000 81160000.000000 A500000.000000 500000.000000 0.0 0 0 247827500.000000 80660000.000000" />
<path d="M233827500.000000 80660000.000000 A500000.000000 500000.000000 0.0 0 0 234327500.000000 81160000.000000" />
<path d="M247827500.000000 67660000.000000 A500000.000000 500000.000000 0.0 0 0 247327500.000000 67160000.000000" />
<path d="M29540000.000000 67160000.000000 A500000.000000 500000.000000 0.0 0 0 29040000.000000 67660000.000000" />
<path d="M43040000 67660000
L43040000 80660000
" />
<path d="M29040000 67660000
L29040000 80660000
" />
<path d="M277190000.000000 10010000.000000 A500000.000000 500000.000000 0.0 0 0 276690000.000000 10510000.000000" />
<path d="M224802500 86210000
L237802500 86210000
" />
<path d="M218752500.000000 100210000.000000 A500000.000000 500000.000000 0.0 0 0 219252500.000000 99710000.000000" />
<path d="M205252500.000000 99710000.000000 A500000.000000 500000.000000 0.0 0 0 205752500.000000 100210000.000000" />
<path d="M219252500.000000 86710000.000000 A500000.000000 500000.000000 0.0 0 0 218752500.000000 86210000.000000" />
<path d="M205752500.000000 86210000.000000 A500000.000000 500000.000000 0.0 0 0 205252500.000000 86710000.000000" />
<path d="M23990000.000000 86710000.000000 A500000.000000 500000.000000 0.0 0 0 23490000.000000 86210000.000000" />
<path d="M80640000.000000 100210000.000000 A500000.000000 500000.000000 0.0 0 0 81140000.000000 99710000.000000" />
<path d="M67140000.000000 99710000.000000 A500000.000000 500000.000000 0.0 0 0 67640000.000000 100210000.000000" />
<path d="M81140000.000000 86710000.000000 A500000.000000 500000.000000 0.0 0 0 80640000.000000 86210000.000000" />
<path d="M67640000.000000 86210000.000000 A500000.000000 500000.000000 0.0 0 0 67140000.000000 86710000.000000" />
<path d="M119240000 29560000
L119240000 42560000
" />
<path d="M314790000.000000 23509999.000000 A500000.000000 500000.000000 0.0 0 0 315290000.000000 24009999.000000" />
<path d="M105240000.000000 23509999.000000 A500000.000000 500000.000000 0.0 0 0 105740000.000000 24009999.000000" />
<path d="M43040000 9510000
L43040000 24809999
" />
<path d="M61610000 120210000
L80660000 120210000
" />
<path d="M342865000.000000 44060000.000000 A500000.000000 500000.000000 0.0 0 0 343365000.000000 43560000.000000" />
<path d="M48610000 105210000
L61610000 105210000
" />
<path d="M86690000 10010000
L99690000 10010000
" />
<path d="M175890000.000000 24009999.000000 A500000.000000 500000.000000 0.0 0 0 176390000.000000 23509999.000000" />
<path d="M9490000 86210000
L23490000 86210000
" />
<path d="M118740000.000000 24009999.000000 A500000.000000 500000.000000 0.0 0 0 119240000.000000 23509999.000000" />
<path d="M271640000 10510000
L271640000 23509999
" />
<path d="M105740000 10010000
L118740000 10010000
" />
<path d="M100190000 29560000
L100190000 42560000
" />
<path d="M143340000.000000 23509999.000000 A500000.000000 500000.000000 0.0 0 0 143840000.000000 24009999.000000" />
<path d="M271640000.000000 10510000.000000 A500000.000000 500000.000000 0.0 0 0 271140000.000000 10010000.000000" />
<path d="M276690000 10510000
L276690000 23509999
" />
<path d="M200990000 10010000
L213990000 10010000
" />
<path d="M48610000.000000 105210000.000000 A500000.000000 500000.000000 0.0 0 0 48110000.000000 105710000.000000" />
<path d="M176390000.000000 10510000.000000 A500000.000000 500000.000000 0.0 0 0 175890000.000000 10010000.000000" />
<path d="M67640000.000000 29060000.000000 A500000.000000 500000.000000 0.0 0 0 67140000.000000 29560000.000000" />
<path d="M252590000.000000 10510000.000000 A500000.000000 500000.000000 0.0 0 0 252090000.000000 10010000.000000" />
<path d="M239090000 24009999
L252090000 24009999
" />
<path d="M48090000.000000 42560000.000000 A500000.000000 500000.000000 0.0 0 0 48590000.000000 43060000.000000" />
<path d="M233540000.000000 10510000.000000 A500000.000000 500000.000000 0.0 0 0 233040000.000000 10010000.000000" />
<path d="M86190000.000000 23509999.000000 A500000.000000 500000.000000 0.0 0 0 86690000.000000 24009999.000000" />
<path d="M162890000 10010000
L175890000 10010000
" />
<path d="M105740000.000000 10010000.000000 A500000.000000 500000.000000 0.0 0 0 105240000.000000 10510000.000000" />
<path d="M252090000.000000 24009999.000000 A500000.000000 500000.000000 0.0 0 0 252590000.000000 23509999.000000" />
<path d="M29540000 62110000
L42540000 62110000
" />
<path d="M29540000 48110000
L42540000 48110000
" />
<path d="M100190000.000000 10510000.000000 A500000.000000 500000.000000 0.0 0 0 99690000.000000 10010000.000000" />
<path d="M48090000 67660000
L48090000 80660000
" />
<path d="M48590000 81160000
L61590000 81160000
" />
<path d="M48590000 67160000
L61590000 67160000
" />
<path d="M277352500 105260000
L329127500 105260000
" />
<path d="M124790000 10010000
L137790000 10010000
" />
<path d="M309240000.000000 24009999.000000 A500000.000000 500000.000000 0.0 0 0 309740000.000000 23509999.000000" />
<path d="M115265000 62110000
L128265000 62110000
" />
<path d="M115265000 48110000
L128265000 48110000
" />
<path d="M8990000.000000 80660000.000000 A500000.000000 500000.000000 0.0 0 0 9490000.000000 81160000.000000" />
<path d="M105240000 29560000
L105240000 42560000
" />
<path d="M296240000.000000 10010000.000000 A500000.000000 500000.000000 0.0 0 0 295740000.000000 10510000.000000" />
<path d="M333840000 44049999
L342865000 44060000
" />
<path d="M309740000.000000 10510000.000000 A500000.000000 500000.000000 0.0 0 0 309240000.000000 10010000.000000" />
<path d="M315290000 10010000
L328290000 10010000
" />
<path d="M48090000 29560000
L48090000 42560000
" />
<path d="M62090000 9510000
L62090000 24809999
" />
<path d="M334340000 10010000
L347340000 10010000
" />
<path d="M252590000 29560000
L252590000 42560000
" />
<path d="M272427500 67160000
L285427500 67160000
" />
<path d="M266377500.000000 81160000.000000 A500000.000000 500000.000000 0.0 0 0 266877500.000000 80660000.000000" />
<path d="M252877500.000000 80660000.000000 A500000.000000 500000.000000 0.0 0 0 253377500.000000 81160000.000000" />
<path d="M281165000.000000 48610000.000000 A500000.000000 500000.000000 0.0 0 0 280665000.000000 48110000.000000" />
<path d="M267665000.000000 48110000.000000 A500000.000000 500000.000000 0.0 0 0 267165000.000000 48610000.000000" />
<path d="M267665000 62110000
L280665000 62110000
" />
<path d="M267665000 48110000
L280665000 48110000
" />
<path d="M162890000 24009999
L175890000 24009999
" />
<path d="M372440000 62110000
L385440000 62110000
" />
<path d="M372440000 48110000
L385440000 48110000
" />
<path d="M291477500 81160000
L304477500 81160000
" />
<path d="M291477500 67160000
L304477500 67160000
" />
<path d="M285427500.000000 81160000.000000 A500000.000000 500000.000000 0.0 0 0 285927500.000000 80660000.000000" />
<path d="M91452500 62110000
L104452500 62110000
" />
<path d="M91452500 48110000
L104452500 48110000
" />
<path d="M143840000.000000 29060000.000000 A500000.000000 500000.000000 0.0 0 0 143340000.000000 29560000.000000" />
<path d="M194940000.000000 24009999.000000 A500000.000000 500000.000000 0.0 0 0 195440000.000000 23509999.000000" />
<path d="M147815000.000000 48610000.000000 A500000.000000 500000.000000 0.0 0 0 147315000.000000 48110000.000000" />
<path d="M134315000.000000 48110000.000000 A500000.000000 500000.000000 0.0 0 0 133815000.000000 48610000.000000" />
<path d="M318765000.000000 62110000.000000 A500000.000000 500000.000000 0.0 0 0 319265000.000000 61610000.000000" />
<path d="M305265000.000000 61610000.000000 A500000.000000 500000.000000 0.0 0 0 305765000.000000 62110000.000000" />
<path d="M290190000.000000 24009999.000000 A500000.000000 500000.000000 0.0 0 0 290690000.000000 23509999.000000" />
<path d="M366890000.000000 10510000.000000 A500000.000000 500000.000000 0.0 0 0 366390000.000000 10010000.000000" />
<path d="M333850000 29050000
L366850000 29050000
" />
<path d="M385940000.000000 29560000.000000 A500000.000000 500000.000000 0.0 0 0 385440000.000000 29060000.000000" />
<path d="M372440000.000000 29060000.000000 A500000.000000 500000.000000 0.0 0 0 371940000.000000 29560000.000000" />
<path d="M143840000.000000 10010000.000000 A500000.000000 500000.000000 0.0 0 0 143340000.000000 10510000.000000" />
<path d="M162390000 29560000
L162390000 42560000
" />
<path d="M124790000.000000 29060000.000000 A500000.000000 500000.000000 0.0 0 0 124290000.000000 29560000.000000" />
<path d="M220040000 10010000
L233040000 10010000
" />
<path d="M176390000 29560000
L176390000 42560000
" />
<path d="M200490000.000000 23509999.000000 A500000.000000 500000.000000 0.0 0 0 200990000.000000 24009999.000000" />
<path d="M124790000.000000 10010000.000000 A500000.000000 500000.000000 0.0 0 0 124290000.000000 10510000.000000" />
<path d="M43040000.000000 29560000.000000 A500000.000000 500000.000000 0.0 0 0 42540000.000000 29060000.000000" />
<path d="M315290000 24009999
L328290000 24009999
" />
<path d="M23490000.000000 43060000.000000 A500000.000000 500000.000000 0.0 0 0 23990000.000000 42560000.000000" />
<path d="M204465000.000000 62110000.000000 A500000.000000 500000.000000 0.0 0 0 204965000.000000 61610000.000000" />
<path d="M190965000.000000 61610000.000000 A500000.000000 500000.000000 0.0 0 0 191465000.000000 62110000.000000" />
<path d="M166865000.000000 48610000.000000 A500000.000000 500000.000000 0.0 0 0 166365000.000000 48110000.000000" />
<path d="M153365000.000000 48110000.000000 A500000.000000 500000.000000 0.0 0 0 152865000.000000 48610000.000000" />
<path d="M23990000.000000 29560000.000000 A500000.000000 500000.000000 0.0 0 0 23490000.000000 29060000.000000" />
<path d="M219540000.000000 23509999.000000 A500000.000000 500000.000000 0.0 0 0 220040000.000000 24009999.000000" />
<path d="M62090000 29560000
L62090000 42560000
" />
<path d="M48090000 9510000
L48090000 24809999
" />
<path d="M124290000.000000 42560000.000000 A500000.000000 500000.000000 0.0 0 0 124790000.000000 43060000.000000" />
<path d="M181940000 43060000
L194940000 43060000
" />
<path d="M9490000 119260000
L23490000 119260000
" />
<path d="M333340000.000000 43549999.000000 A500000.000000 500000.000000 0.0 0 0 333840000.000000 44049999.000000" />
<path d="M67640000 67160000
L80640000 67160000
" />
<path d="M61590000.000000 81160000.000000 A500000.000000 500000.000000 0.0 0 0 62090000.000000 80660000.000000" />
<path d="M48090000.000000 80660000.000000 A500000.000000 500000.000000 0.0 0 0 48590000.000000 81160000.000000" />
<path d="M156840000.000000 24009999.000000 A500000.000000 500000.000000 0.0 0 0 157340000.000000 23509999.000000" />
<path d="M314790000 29560000
L314790000 42560000
" />
<path d="M352890000.000000 23509999.000000 A500000.000000 500000.000000 0.0 0 0 353390000.000000 24009999.000000" />
<path d="M67640000 62110000
L80640000 62110000
" />
<path d="M67640000 48110000
L80640000 48110000
" />
<path d="M105740000 43060000
L118740000 43060000
" />
<path d="M138290000.000000 29560000.000000 A500000.000000 500000.000000 0.0 0 0 137790000.000000 29060000.000000" />
<path d="M9490000 48110000
L23490000 48110000
" />
<path d="M315290000 29060000
L328290000 29060000
" />
<path d="M238590000.000000 42560000.000000 A500000.000000 500000.000000 0.0 0 0 239090000.000000 43060000.000000" />
<path d="M385940000 48610000
L385940000 61610000
" />
<path d="M371940000 48610000
L371940000 61610000
" />
<path d="M262115000 48610000
L262115000 61610000
" />
<path d="M248115000 48610000
L248115000 61610000
" />
<path d="M175890000.000000 43060000.000000 A500000.000000 500000.000000 0.0 0 0 176390000.000000 42560000.000000" />
<path d="M262115000.000000 48610000.000000 A500000.000000 500000.000000 0.0 0 0 261615000.000000 48110000.000000" />
<path d="M248615000.000000 48110000.000000 A500000.000000 500000.000000 0.0 0 0 248115000.000000 48610000.000000" />
<path d="M23990000 48610000
L23990000 80660000
" />
<path d="M8990000 61610000
L8990000 80660000
" />
<path d="M9490000 81160000
L23490000 81160000
" />
<path d="M81140000.000000 48610000.000000 A500000.000000 500000.000000 0.0 0 0 80640000.000000 48110000.000000" />
<path d="M67640000.000000 48110000.000000 A500000.000000 500000.000000 0.0 0 0 67140000.000000 48610000.000000" />
<path d="M315290000 43060000
L328290000 43060000
" />
<path d="M190177500.000000 81160000.000000 A500000.000000 500000.000000 0.0 0 0 190677500.000000 80660000.000000" />
<path d="M176677500.000000 80660000.000000 A500000.000000 500000.000000 0.0 0 0 177177500.000000 81160000.000000" />
<path d="M190677500.000000 67660000.000000 A500000.000000 500000.000000 0.0 0 0 190177500.000000 67160000.000000" />
<path d="M157340000.000000 10510000.000000 A500000.000000 500000.000000 0.0 0 0 156840000.000000 10010000.000000" />
<path d="M177177500 81160000
L190177500 81160000
" />
<path d="M177177500 67160000
L190177500 67160000
" />
<path d="M171127500.000000 81160000.000000 A500000.000000 500000.000000 0.0 0 0 171627500.000000 80660000.000000" />
<path d="M42540000.000000 119260000.000000 A500000.000000 500000.000000 0.0 0 0 43040000.000000 118760000.000000" />
<path d="M29040000.000000 118760000.000000 A500000.000000 500000.000000 0.0 0 0 29540000.000000 119260000.000000" />
<path d="M43040000.000000 105760000.000000 A500000.000000 500000.000000 0.0 0 0 42540000.000000 105260000.000000" />
<path d="M29540000.000000 105260000.000000 A500000.000000 500000.000000 0.0 0 0 29040000.000000 105760000.000000" />
<path d="M43040000 105760000
L43040000 118760000
" />
<path d="M29040000 105760000
L29040000 118760000
" />
<path d="M29540000 119260000
L42540000 119260000
" />
<path d="M372440000 86210000
L385440000 86210000
" />
<path d="M366390000.000000 100210000.000000 A500000.000000 500000.000000 0.0 0 0 366890000.000000 99710000.000000" />
<path d="M352890000.000000 99710000.000000 A500000.000000 500000.000000 0.0 0 0 353390000.000000 100210000.000000" />
<path d="M366890000.000000 86710000.000000 A500000.000000 500000.000000 0.0 0 0 366390000.000000 86210000.000000" />
<path d="M353390000.000000 86210000.000000 A500000.000000 500000.000000 0.0 0 0 352890000.000000 86710000.000000" />
<path d="M366890000 86710000
L366890000 99710000
" />
<path d="M352890000 86710000
L352890000 99710000
" />
<path d="M280665000.000000 62110000.000000 A500000.000000 500000.000000 0.0 0 0 281165000.000000 61610000.000000" />
<path d="M267165000.000000 61610000.000000 A500000.000000 500000.000000 0.0 0 0 267665000.000000 62110000.000000" />
<path d="M291477500.000000 67160000.000000 A500000.000000 500000.000000 0.0 0 0 290977500.000000 67660000.000000" />
<path d="M304977500 67660000
L304977500 80660000
" />
<path d="M290977500 67660000
L290977500 80660000
" />
<path d="M162890000.000000 29060000.000000 A500000.000000 500000.000000 0.0 0 0 162390000.000000 29560000.000000" />
<path d="M299715000.000000 62110000.000000 A500000.000000 500000.000000 0.0 0 0 300215000.000000 61610000.000000" />
<path d="M286215000.000000 61610000.000000 A500000.000000 500000.000000 0.0 0 0 286715000.000000 62110000.000000" />
<path d="M277190000 43060000
L290190000 43060000
" />
<path d="M81140000 86710000
L81140000 99710000
" />
<path d="M67140000 86710000
L67140000 99710000
" />
<path d="M67640000 100210000
L80640000 100210000
" />
<path d="M67640000 86210000
L80640000 86210000
" />
<path d="M48590000 62110000
L61590000 62110000
" />
<path d="M48590000 48110000
L61590000 48110000
" />
<path d="M309740000 29560000
L309740000 42560000
" />
<path d="M286715000 62110000
L299715000 62110000
" />
<path d="M286715000 48110000
L299715000 48110000
" />
<path d="M261615000.000000 62110000.000000 A500000.000000 500000.000000 0.0 0 0 262115000.000000 61610000.000000" />
<path d="M248115000.000000 61610000.000000 A500000.000000 500000.000000 0.0 0 0 248615000.000000 62110000.000000" />
<path d="M157627500.000000 80660000.000000 A500000.000000 500000.000000 0.0 0 0 158127500.000000 81160000.000000" />
<path d="M171627500.000000 67660000.000000 A500000.000000 500000.000000 0.0 0 0 171127500.000000 67160000.000000" />
<path d="M158127500.000000 67160000.000000 A500000.000000 500000.000000 0.0 0 0 157627500.000000 67660000.000000" />
<path d="M134315000 62110000
L147315000 62110000
" />
<path d="M134315000 48110000
L147315000 48110000
" />
<path d="M29040000.000000 42560000.000000 A500000.000000 500000.000000 0.0 0 0 29540000.000000 43060000.000000" />
<path d="M257640000 29560000
L257640000 42560000
" />
<path d="M300215000 48610000
L300215000 61610000
" />
<path d="M286215000 48610000
L286215000 61610000
" />
<path d="M315290000.000000 29060000.000000 A500000.000000 500000.000000 0.0 0 0 314790000.000000 29560000.000000" />
<path d="M305765000 62110000
L318765000 62110000
" />
<path d="M305765000 48110000
L318765000 48110000
" />
<path d="M167652500.000000 86210000.000000 A500000.000000 500000.000000 0.0 0 0 167152500.000000 86710000.000000" />
<path d="M181152500 86710000
L181152500 99710000
" />
<path d="M167152500 86710000
L167152500 99710000
" />
<path d="M167652500 100210000
L180652500 100210000
" />
<path d="M167652500 86210000
L180652500 86210000
" />
<path d="M338315000.000000 48610000.000000 A500000.000000 500000.000000 0.0 0 0 337815000.000000 48110000.000000" />
<path d="M324815000.000000 48110000.000000 A500000.000000 500000.000000 0.0 0 0 324315000.000000 48610000.000000" />
<path d="M233040000.000000 24009999.000000 A500000.000000 500000.000000 0.0 0 0 233540000.000000 23509999.000000" />
<path d="M290690000.000000 29560000.000000 A500000.000000 500000.000000 0.0 0 0 290190000.000000 29060000.000000" />
<path d="M385440000.000000 100210000.000000 A500000.000000 500000.000000 0.0 0 0 385940000.000000 99710000.000000" />
<path d="M371940000.000000 99710000.000000 A500000.000000 500000.000000 0.0 0 0 372440000.000000 100210000.000000" />
<path d="M385940000.000000 86710000.000000 A500000.000000 500000.000000 0.0 0 0 385440000.000000 86210000.000000" />
<path d="M372440000.000000 86210000.000000 A500000.000000 500000.000000 0.0 0 0 371940000.000000 86710000.000000" />
<path d="M385940000 86710000
L385940000 99710000
" />
<path d="M371940000 86710000
L371940000 99710000
" />
<path d="M372440000 100210000
L385440000 100210000
" />
<path d="M224015000 48610000
L224015000 61610000
" />
<path d="M210015000 48610000
L210015000 61610000
" />
<path d="M281165000 48610000
L281165000 61610000
" />
<path d="M267165000 48610000
L267165000 61610000
" />
<path d="M86190000.000000 42560000.000000 A500000.000000 500000.000000 0.0 0 0 86690000.000000 43060000.000000" />
<path d="M120027500 81160000
L133027500 81160000
" />
<path d="M120027500 67160000
L133027500 67160000
" />
<path d="M219540000.000000 42560000.000000 A500000.000000 500000.000000 0.0 0 0 220040000.000000 43060000.000000" />
<path d="M67640000 43060000
L80640000 43060000
" />
<path d="M213990000.000000 24009999.000000 A500000.000000 500000.000000 0.0 0 0 214490000.000000 23509999.000000" />
<path d="M143340000.000000 42560000.000000 A500000.000000 500000.000000 0.0 0 0 143840000.000000 43060000.000000" />
<path d="M385440000.000000 62110000.000000 A500000.000000 500000.000000 0.0 0 0 385940000.000000 61610000.000000" />
<path d="M371940000.000000 61610000.000000 A500000.000000 500000.000000 0.0 0 0 372440000.000000 62110000.000000" />
<path d="M319265000 48610000
L319265000 61610000
" />
<path d="M305265000 48610000
L305265000 61610000
" />
<path d="M176390000.000000 29560000.000000 A500000.000000 500000.000000 0.0 0 0 175890000.000000 29060000.000000" />
<path d="M42540000.000000 100210000.000000 A500000.000000 500000.000000 0.0 0 0 43040000.000000 99710000.000000" />
<path d="M29040000.000000 99710000.000000 A500000.000000 500000.000000 0.0 0 0 29540000.000000 100210000.000000" />
<path d="M43040000.000000 86710000.000000 A500000.000000 500000.000000 0.0 0 0 42540000.000000 86210000.000000" />
<path d="M29540000.000000 86210000.000000 A500000.000000 500000.000000 0.0 0 0 29040000.000000 86710000.000000" />
<path d="M324815000 62110000
L337815000 62110000
" />
<path d="M324815000 48110000
L337815000 48110000
" />
<path d="M143840000 29060000
L156840000 29060000
" />
<path d="M326696250.000000 99710000.000000 A500000.000000 500000.000000 0.0 0 0 327196250.000000 100210000.000000" />
<path d="M340696250.000000 86710000.000000 A500000.000000 500000.000000 0.0 0 0 340196250.000000 86210000.000000" />
<path d="M327196250.000000 86210000.000000 A500000.000000 500000.000000 0.0 0 0 326696250.000000 86710000.000000" />
<path d="M340696250 86710000
L340696250 99710000
" />
<path d="M326696250 86710000
L326696250 99710000
" />
<path d="M327196250 100210000
L340196250 100210000
" />
<path d="M334340000 24009999
L347340000 24009999
" />
<path d="M67140000 9510000
L67140000 24809999
" />
<path d="M43040000 48610000
L43040000 61610000
" />
<path d="M29040000 48610000
L29040000 61610000
" />
<path d="M181940000 29060000
L194940000 29060000
" />
<path d="M309740000 10510000
L309740000 23509999
" />
<path d="M181940000 24009999
L194940000 24009999
" />
<path d="M347840000 10510000
L347840000 23509999
" />
<path d="M328790000.000000 29560000.000000 A500000.000000 500000.000000 0.0 0 0 328290000.000000 29060000.000000" />
<path d="M281952500.000000 86210000.000000 A500000.000000 500000.000000 0.0 0 0 281452500.000000 86710000.000000" />
<path d="M295452500 86710000
L295452500 99710000
" />
<path d="M281452500 86710000
L281452500 99710000
" />
<path d="M281952500 100210000
L294952500 100210000
" />
<path d="M281952500 86210000
L294952500 86210000
" />
<path d="M275902500.000000 100210000.000000 A500000.000000 500000.000000 0.0 0 0 276402500.000000 99710000.000000" />
<path d="M181940000.000000 29060000.000000 A500000.000000 500000.000000 0.0 0 0 181440000.000000 29560000.000000" />
<path d="M361627500.000000 62110000.000000 A500000.000000 500000.000000 0.0 0 0 362127500.000000 61610000.000000" />
<path d="M348127500.000000 61610000.000000 A500000.000000 500000.000000 0.0 0 0 348627500.000000 62110000.000000" />
<path d="M296240000.000000 29060000.000000 A500000.000000 500000.000000 0.0 0 0 295740000.000000 29560000.000000" />
<path d="M105240000.000000 42560000.000000 A500000.000000 500000.000000 0.0 0 0 105740000.000000 43060000.000000" />
<path d="M23990000.000000 48610000.000000 A500000.000000 500000.000000 0.0 0 0 23490000.000000 48110000.000000" />
<path d="M9490000.000000 48110000.000000 A500000.000000 500000.000000 0.0 0 0 8990000.000000 48610000.000000" />
<path d="M133027500.000000 81160000.000000 A500000.000000 500000.000000 0.0 0 0 133527500.000000 80660000.000000" />
<path d="M119527500.000000 80660000.000000 A500000.000000 500000.000000 0.0 0 0 120027500.000000 81160000.000000" />
<path d="M133527500.000000 67660000.000000 A500000.000000 500000.000000 0.0 0 0 133027500.000000 67160000.000000" />
<path d="M295740000 29560000
L295740000 42560000
" />
<path d="M162390000 10510000
L162390000 23509999
" />
<path d="M219252500 86710000
L219252500 99710000
" />
<path d="M205252500 86710000
L205252500 99710000
" />
<path d="M205752500 100210000
L218752500 100210000
" />
<path d="M205752500 86210000
L218752500 86210000
" />
<path d="M199702500.000000 100210000.000000 A500000.000000 500000.000000 0.0 0 0 200202500.000000 99710000.000000" />
<path d="M324027500 67660000
L324027500 80660000
" />
<path d="M310027500 67660000
L310027500 80660000
" />
<path d="M310527500 81160000
L323527500 81160000
" />
<path d="M310527500 67160000
L323527500 67160000
" />
<path d="M315290000.000000 10010000.000000 A500000.000000 500000.000000 0.0 0 0 314790000.000000 10510000.000000" />
<path d="M181440000 10510000
L181440000 23509999
" />
<path d="M224015000.000000 48610000.000000 A500000.000000 500000.000000 0.0 0 0 223515000.000000 48110000.000000" />
<path d="M210515000.000000 48110000.000000 A500000.000000 500000.000000 0.0 0 0 210015000.000000 48610000.000000" />
<path d="M340196250.000000 100210000.000000 A500000.000000 500000.000000 0.0 0 0 340696250.000000 99710000.000000" />
<path d="M186202500.000000 99710000.000000 A500000.000000 500000.000000 0.0 0 0 186702500.000000 100210000.000000" />
<path d="M200202500.000000 86710000.000000 A500000.000000 500000.000000 0.0 0 0 199702500.000000 86210000.000000" />
<path d="M186702500.000000 86210000.000000 A500000.000000 500000.000000 0.0 0 0 186202500.000000 86710000.000000" />
<path d="M200202500 86710000
L200202500 99710000
" />
<path d="M186202500 86710000
L186202500 99710000
" />
<path d="M81160000.000000 105710000.000000 A500000.000000 500000.000000 0.0 0 0 80660000.000000 105210000.000000" />
<path d="M242565000.000000 62110000.000000 A500000.000000 500000.000000 0.0 0 0 243065000.000000 61610000.000000" />
<path d="M229065000.000000 61610000.000000 A500000.000000 500000.000000 0.0 0 0 229565000.000000 62110000.000000" />
<path d="M314790000.000000 42560000.000000 A500000.000000 500000.000000 0.0 0 0 315290000.000000 43060000.000000" />
<path d="M334340000.000000 10010000.000000 A500000.000000 500000.000000 0.0 0 0 333840000.000000 10510000.000000" />
<path d="M162390000.000000 42560000.000000 A500000.000000 500000.000000 0.0 0 0 162890000.000000 43060000.000000" />
<path d="M204965000.000000 48610000.000000 A500000.000000 500000.000000 0.0 0 0 204465000.000000 48110000.000000" />
<path d="M191465000.000000 48110000.000000 A500000.000000 500000.000000 0.0 0 0 190965000.000000 48610000.000000" />
<path d="M143340000 29560000
L143340000 42560000
" />
<path d="M119240000.000000 29560000.000000 A500000.000000 500000.000000 0.0 0 0 118740000.000000 29060000.000000" />
<path d="M219540000 10510000
L219540000 23509999
" />
<path d="M258140000 43060000
L271140000 43060000
" />
<path d="M296240000 29060000
L309240000 29060000
" />
<path d="M328290000.000000 24009999.000000 A500000.000000 500000.000000 0.0 0 0 328790000.000000 23509999.000000" />
<path d="M156840000.000000 43060000.000000 A500000.000000 500000.000000 0.0 0 0 157340000.000000 42560000.000000" />
<path d="M43040000.000000 48610000.000000 A500000.000000 500000.000000 0.0 0 0 42540000.000000 48110000.000000" />
<path d="M29540000.000000 48110000.000000 A500000.000000 500000.000000 0.0 0 0 29040000.000000 48610000.000000" />
<path d="M328790000.000000 10510000.000000 A500000.000000 500000.000000 0.0 0 0 328290000.000000 10010000.000000" />
<path d="M29540000.000000 29060000.000000 A500000.000000 500000.000000 0.0 0 0 29040000.000000 29560000.000000" />
<path d="M195727500 67660000
L195727500 80660000
" />
<path d="M196227500 81160000
L209227500 81160000
" />
<path d="M196227500 67160000
L209227500 67160000
" />
<path d="M362127500.000000 48610000.000000 A500000.000000 500000.000000 0.0 0 0 361627500.000000 48110000.000000" />
<path d="M348627500.000000 48110000.000000 A500000.000000 500000.000000 0.0 0 0 348127500.000000 48610000.000000" />
<path d="M362127500 48610000
L362127500 61610000
" />
<path d="M348127500 48610000
L348127500 61610000
" />
<path d="M161602500.000000 100210000.000000 A500000.000000 500000.000000 0.0 0 0 162102500.000000 99710000.000000" />
<path d="M148102500.000000 99710000.000000 A500000.000000 500000.000000 0.0 0 0 148602500.000000 100210000.000000" />
<path d="M162102500.000000 86710000.000000 A500000.000000 500000.000000 0.0 0 0 161602500.000000 86210000.000000" />
<path d="M148602500.000000 86210000.000000 A500000.000000 500000.000000 0.0 0 0 148102500.000000 86710000.000000" />
<path d="M162102500 86710000
L162102500 99710000
" />
<path d="M290690000 10510000
L290690000 23509999
" />
<path d="M309740000.000000 29560000.000000 A500000.000000 500000.000000 0.0 0 0 309240000.000000 29060000.000000" />
<path d="M214490000.000000 10510000.000000 A500000.000000 500000.000000 0.0 0 0 213990000.000000 10010000.000000" />
<path d="M276690000.000000 42560000.000000 A500000.000000 500000.000000 0.0 0 0 277190000.000000 43060000.000000" />
<path d="M162390000.000000 23509999.000000 A500000.000000 500000.000000 0.0 0 0 162890000.000000 24009999.000000" />
<path d="M353390000 24009999
L366390000 24009999
" />
<path d="M48110000 119710000
L48110000 105710000
" />
<path d="M62090000 86710000
L62090000 99710000
" />
<path d="M48090000 86710000
L48090000 99710000
" />
<path d="M48590000 100210000
L61590000 100210000
" />
<path d="M48590000 86210000
L61590000 86210000
" />
<path d="M23990000 86710000
L23990000 99710000
" />
<path d="M385440000.000000 81160000.000000 A500000.000000 500000.000000 0.0 0 0 385940000.000000 80660000.000000" />
<path d="M371940000.000000 80660000.000000 A500000.000000 500000.000000 0.0 0 0 372440000.000000 81160000.000000" />
<path d="M385940000.000000 67660000.000000 A500000.000000 500000.000000 0.0 0 0 385440000.000000 67160000.000000" />
<path d="M372440000.000000 67160000.000000 A500000.000000 500000.000000 0.0 0 0 371940000.000000 67660000.000000" />
<path d="M200990000 29060000
L213990000 29060000
" />
<path d="M152577500.000000 67660000.000000 A500000.000000 500000.000000 0.0 0 0 152077500.000000 67160000.000000" />
<path d="M139077500.000000 67160000.000000 A500000.000000 500000.000000 0.0 0 0 138577500.000000 67660000.000000" />
<path d="M152577500 67660000
L152577500 80660000
" />
<path d="M238590000 29560000
L238590000 42560000
" />
<path d="M233540000 10510000
L233540000 23509999
" />
<path d="M239090000 10010000
L252090000 10010000
" />
<path d="M124790000 43060000
L137790000 43060000
" />
<path d="M296240000 24009999
L309240000 24009999
" />
<path d="M207633750.000000 118760000.000000 A500000.000000 500000.000000 0.0 0 0 208133750.000000 119260000.000000" />
<path d="M208133750.000000 105260000.000000 A500000.000000 500000.000000 0.0 0 0 207633750.000000 105760000.000000" />
<path d="M275852500.000000 118760000.000000 A500000.000000 500000.000000 0.0 0 0 276352500.000000 119260000.000000" />
<path d="M276352500.000000 105260000.000000 A500000.000000 500000.000000 0.0 0 0 275852500.000000 105760000.000000" />
<path d="M275852500 105760000
L275852500 118760000
" />
<path d="M276352500 119260000
L277352500 119260000
" />
<path d="M276352500 105260000
L277352500 105260000
" />
<path d="M347840000.000000 10510000.000000 A500000.000000 500000.000000 0.0 0 0 347340000.000000 10010000.000000" />
<path d="M215277500 67160000
L228277500 67160000
" />
<path d="M209227500.000000 81160000.000000 A500000.000000 500000.000000 0.0 0 0 209727500.000000 80660000.000000" />
<path d="M195727500.000000 80660000.000000 A500000.000000 500000.000000 0.0 0 0 196227500.000000 81160000.000000" />
<path d="M327196250 86210000
L340196250 86210000
" />
<path d="M314002500.000000 100210000.000000 A500000.000000 500000.000000 0.0 0 0 314502500.000000 99710000.000000" />
<path d="M300502500.000000 99710000.000000 A500000.000000 500000.000000 0.0 0 0 301002500.000000 100210000.000000" />
<path d="M314502500.000000 86710000.000000 A500000.000000 500000.000000 0.0 0 0 314002500.000000 86210000.000000" />
<path d="M301002500.000000 86210000.000000 A500000.000000 500000.000000 0.0 0 0 300502500.000000 86710000.000000" />
<path d="M314502500 86710000
L314502500 99710000
" />
<path d="M176390000 10510000
L176390000 23509999
" />
<path d="M239090000 29060000
L252090000 29060000
" />
<path d="M104952500.000000 48610000.000000 A500000.000000 500000.000000 0.0 0 0 104452500.000000 48110000.000000" />
<path d="M91452500.000000 48110000.000000 A500000.000000 500000.000000 0.0 0 0 90952500.000000 48610000.000000" />
<path d="M48590000.000000 29060000.000000 A500000.000000 500000.000000 0.0 0 0 48090000.000000 29560000.000000" />
<path d="M225896250.000000 119260000.000000 A500000.000000 500000.000000 0.0 0 0 226396250.000000 118760000.000000" />
<path d="M226396250.000000 105760000.000000 A500000.000000 500000.000000 0.0 0 0 225896250.000000 105260000.000000" />
<path d="M226396250 105760000
L226396250 118760000
" />
<path d="M23990000 9510000
L23990000 24809999
" />
<path d="M86690000.000000 10010000.000000 A500000.000000 500000.000000 0.0 0 0 86190000.000000 10510000.000000" />
<path d="M138290000 29560000
L138290000 42560000
" />
<path d="M181440000.000000 23509999.000000 A500000.000000 500000.000000 0.0 0 0 181940000.000000 24009999.000000" />
<path d="M195440000 29560000
L195440000 42560000
" />
<path d="M138290000.000000 10510000.000000 A500000.000000 500000.000000 0.0 0 0 137790000.000000 10010000.000000" />
<path d="M229565000 62110000
L242565000 62110000
" />
<path d="M229565000 48110000
L242565000 48110000
" />
<path d="M185915000 48610000
L185915000 61610000
" />
<path d="M171915000 48610000
L171915000 61610000
" />
<path d="M214490000 29560000
L214490000 42560000
" />
<path d="M277190000 29060000
L290190000 29060000
" />
<path d="M385940000.000000 48610000.000000 A500000.000000 500000.000000 0.0 0 0 385440000.000000 48110000.000000" />
<path d="M372440000.000000 48110000.000000 A500000.000000 500000.000000 0.0 0 0 371940000.000000 48610000.000000" />
<path d="M385940000 67660000
L385940000 80660000
" />
<path d="M371940000 67660000
L371940000 80660000
" />
<path d="M372440000 81160000
L385440000 81160000
" />
<path d="M372440000 67160000
L385440000 67160000
" />
<path d="M353390000.000000 10010000.000000 A500000.000000 500000.000000 0.0 0 0 352890000.000000 10510000.000000" />
<path d="M10490000 43060000
L23490000 43060000
" />
<path d="M257640000.000000 42560000.000000 A500000.000000 500000.000000 0.0 0 0 258140000.000000 43060000.000000" />
<path d="M42540000.000000 43060000.000000 A500000.000000 500000.000000 0.0 0 0 43040000.000000 42560000.000000" />
<path d="M124290000 29560000
L124290000 42560000
" />
<path d="M276690000.000000 23509999.000000 A500000.000000 500000.000000 0.0 0 0 277190000.000000 24009999.000000" />
<path d="M61590000.000000 100210000.000000 A500000.000000 500000.000000 0.0 0 0 62090000.000000 99710000.000000" />
<path d="M48090000.000000 99710000.000000 A500000.000000 500000.000000 0.0 0 0 48590000.000000 100210000.000000" />
<path d="M62090000.000000 86710000.000000 A500000.000000 500000.000000 0.0 0 0 61590000.000000 86210000.000000" />
<path d="M48590000.000000 86210000.000000 A500000.000000 500000.000000 0.0 0 0 48090000.000000 86710000.000000" />
<path d="M48590000 43060000
L61590000 43060000
" />
<path d="M48590000 29060000
L61590000 29060000
" />
<path d="M277190000.000000 29060000.000000 A500000.000000 500000.000000 0.0 0 0 276690000.000000 29560000.000000" />
<path d="M124290000.000000 23509999.000000 A500000.000000 500000.000000 0.0 0 0 124790000.000000 24009999.000000" />
<path d="M177177500.000000 67160000.000000 A500000.000000 500000.000000 0.0 0 0 176677500.000000 67660000.000000" />
<path d="M190677500 67660000
L190677500 80660000
" />
<path d="M176677500 67660000
L176677500 80660000
" />
<path d="M200990000 24009999
L213990000 24009999
" />
<path d="M233540000 29560000
L233540000 42560000
" />
<path d="M106833750.000000 81160000.000000 A500000.000000 500000.000000 0.0 0 0 107333750.000000 80660000.000000" />
<path d="M93333750.000000 80660000.000000 A500000.000000 500000.000000 0.0 0 0 93833750.000000 81160000.000000" />
<path d="M107333750.000000 67660000.000000 A500000.000000 500000.000000 0.0 0 0 106833750.000000 67160000.000000" />
<path d="M186702500 100210000
L199702500 100210000
" />
<path d="M186702500 86210000
L199702500 86210000
" />
<path d="M180652500.000000 100210000.000000 A500000.000000 500000.000000 0.0 0 0 181152500.000000 99710000.000000" />
<path d="M167152500.000000 99710000.000000 A500000.000000 500000.000000 0.0 0 0 167652500.000000 100210000.000000" />
<path d="M181152500.000000 86710000.000000 A500000.000000 500000.000000 0.0 0 0 180652500.000000 86210000.000000" />
<path d="M333840000.000000 23509999.000000 A500000.000000 500000.000000 0.0 0 0 334340000.000000 24009999.000000" />
<path d="M385440000.000000 43060000.000000 A500000.000000 500000.000000 0.0 0 0 385940000.000000 42560000.000000" />
<path d="M371940000.000000 42560000.000000 A500000.000000 500000.000000 0.0 0 0 372440000.000000 43060000.000000" />
<path d="M157340000 29560000
L157340000 42560000
" />
<path d="M158127500 67160000
L171127500 67160000
" />
<path d="M152077500.000000 81160000.000000 A500000.000000 500000.000000 0.0 0 0 152577500.000000 80660000.000000" />
<path d="M138577500.000000 80660000.000000 A500000.000000 500000.000000 0.0 0 0 139077500.000000 81160000.000000" />
<path d="M290690000 29560000
L290690000 42560000
" />
<path d="M157340000.000000 29560000.000000 A500000.000000 500000.000000 0.0 0 0 156840000.000000 29060000.000000" />
<path d="M252090000.000000 43060000.000000 A500000.000000 500000.000000 0.0 0 0 252590000.000000 42560000.000000" />
<path d="M62090000.000000 67660000.000000 A500000.000000 500000.000000 0.0 0 0 61590000.000000 67160000.000000" />
<path d="M48590000.000000 67160000.000000 A500000.000000 500000.000000 0.0 0 0 48090000.000000 67660000.000000" />
<path d="M62090000 67660000
L62090000 80660000
" />
<path d="M195440000.000000 29560000.000000 A500000.000000 500000.000000 0.0 0 0 194940000.000000 29060000.000000" />
<path d="M296240000 43060000
L309240000 43060000
" />
<path d="M23990000 29560000
L23990000 42560000
" />
<path d="M185915000.000000 48610000.000000 A500000.000000 500000.000000 0.0 0 0 185415000.000000 48110000.000000" />
<path d="M172415000.000000 48110000.000000 A500000.000000 500000.000000 0.0 0 0 171915000.000000 48610000.000000" />
<path d="M220040000.000000 10010000.000000 A500000.000000 500000.000000 0.0 0 0 219540000.000000 10510000.000000" />
<path d="M8990000 48610000
L8990000 61610000
" />
<path d="M157340000 10510000
L157340000 23509999
" />
<path d="M328790000 29560000
L328790000 42560000
" />
<path d="M191465000 62110000
L204465000 62110000
" />
<path d="M191465000 48110000
L204465000 48110000
" />
<path d="M295740000 10510000
L295740000 23509999
" />
<path d="M80640000.000000 62110000.000000 A500000.000000 500000.000000 0.0 0 0 81140000.000000 61610000.000000" />
<path d="M67140000.000000 61610000.000000 A500000.000000 500000.000000 0.0 0 0 67640000.000000 62110000.000000" />
<path d="M214490000.000000 29560000.000000 A500000.000000 500000.000000 0.0 0 0 213990000.000000 29060000.000000" />
<path d="M105240000 10510000
L105240000 23509999
" />
<path d="M239090000.000000 10010000.000000 A500000.000000 500000.000000 0.0 0 0 238590000.000000 10510000.000000" />
<path d="M343865000.000000 43060000.000000 A500000.000000 500000.000000 0.0 0 0 343365000.000000 43560000.000000" />
<path d="M258140000 24009999
L271140000 24009999
" />
<path d="M257640000 10510000
L257640000 23509999
" />
<path d="M162890000.000000 10010000.000000 A500000.000000 500000.000000 0.0 0 0 162390000.000000 10510000.000000" />
<path d="M80660000.000000 120210000.000000 A500000.000000 500000.000000 0.0 0 0 81160000.000000 119710000.000000" />
<path d="M48610000 120210000
L61610000 120210000
" />
<path d="M277190000 24009999
L290190000 24009999
" />
<path d="M238590000.000000 23509999.000000 A500000.000000 500000.000000 0.0 0 0 239090000.000000 24009999.000000" />
<path d="M195440000 10510000
L195440000 23509999
" />
<path d="M9990000 9510000
L9990000 24809999
" />
<path d="M290690000.000000 10510000.000000 A500000.000000 500000.000000 0.0 0 0 290190000.000000 10010000.000000" />
<path d="M29540000 81160000
L42540000 81160000
" />
<path d="M29540000 67160000
L42540000 67160000
" />
<path d="M23490000.000000 81160000.000000 A500000.000000 500000.000000 0.0 0 0 23990000.000000 80660000.000000" />
<path d="M137790000.000000 24009999.000000 A500000.000000 500000.000000 0.0 0 0 138290000.000000 23509999.000000" />
<path d="M181440000 29560000
L181440000 42560000
" />
<path d="M181940000 10010000
L194940000 10010000
" />
<path d="M234327500 81160000
L247327500 81160000
" />
<path d="M234327500 67160000
L247327500 67160000
" />
<path d="M228277500.000000 81160000.000000 A500000.000000 500000.000000 0.0 0 0 228777500.000000 80660000.000000" />
<path d="M358928000.000000 43560000.000000 A500000.000000 500000.000000 0.0 0 0 359428000.000000 44060000.000000" />
<path d="M333840000 10510000
L333840000 23509999
" />
<path d="M276690000 29560000
L276690000 42560000
" />
<path d="M153365000 62110000
L166365000 62110000
" />
<path d="M153365000 48110000
L166365000 48110000
" />
<path d="M9990000.000000 42560000.000000 A500000.000000 500000.000000 0.0 0 0 10490000.000000 43060000.000000" />
<path d="M295740000.000000 23509999.000000 A500000.000000 500000.000000 0.0 0 0 296240000.000000 24009999.000000" />
<path d="M323527500.000000 81160000.000000 A500000.000000 500000.000000 0.0 0 0 324027500.000000 80660000.000000" />
<path d="M310027500.000000 80660000.000000 A500000.000000 500000.000000 0.0 0 0 310527500.000000 81160000.000000" />
<path d="M324027500.000000 67660000.000000 A500000.000000 500000.000000 0.0 0 0 323527500.000000 67160000.000000" />
<path d="M310527500.000000 67160000.000000 A500000.000000 500000.000000 0.0 0 0 310027500.000000 67660000.000000" />
<path d="M185415000.000000 62110000.000000 A500000.000000 500000.000000 0.0 0 0 185915000.000000 61610000.000000" />
<path d="M171915000.000000 61610000.000000 A500000.000000 500000.000000 0.0 0 0 172415000.000000 62110000.000000" />
<path d="M29040000 9510000
L29040000 24809999
" />
<path d="M29040000 29560000
L29040000 42560000
" />
<path d="M300215000.000000 48610000.000000 A500000.000000 500000.000000 0.0 0 0 299715000.000000 48110000.000000" />
<path d="M286715000.000000 48110000.000000 A500000.000000 500000.000000 0.0 0 0 286215000.000000 48610000.000000" />
<path d="M338315000 48610000
L338315000 61610000
" />
<path d="M324315000 48610000
L324315000 61610000
" />
<path d="M252590000 10510000
L252590000 23509999
" />
<path d="M209727500.000000 67660000.000000 A500000.000000 500000.000000 0.0 0 0 209227500.000000 67160000.000000" />
<path d="M196227500.000000 67160000.000000 A500000.000000 500000.000000 0.0 0 0 195727500.000000 67660000.000000" />
<path d="M209727500 67660000
L209727500 80660000
" />
<path d="M353390000 100210000
L366390000 100210000
" />
<path d="M353390000 86210000
L366390000 86210000
" />
<path d="M128765000 48610000
L128765000 61610000
" />
<path d="M114765000 48610000
L114765000 61610000
" />
<path d="M105740000 29060000
L118740000 29060000
" />
<path d="M48110000.000000 119710000.000000 A500000.000000 500000.000000 0.0 0 0 48610000.000000 120210000.000000" />
<path d="M366390000.000000 24009999.000000 A500000.000000 500000.000000 0.0 0 0 366890000.000000 23509999.000000" />
<path d="M128265000.000000 62110000.000000 A500000.000000 500000.000000 0.0 0 0 128765000.000000 61610000.000000" />
<path d="M114765000.000000 61610000.000000 A500000.000000 500000.000000 0.0 0 0 115265000.000000 62110000.000000" />
<path d="M271640000.000000 29560000.000000 A500000.000000 500000.000000 0.0 0 0 271140000.000000 29060000.000000" />
<path d="M233540000.000000 29560000.000000 A500000.000000 500000.000000 0.0 0 0 233040000.000000 29060000.000000" />
<path d="M300502500 86710000
L300502500 99710000
" />
<path d="M301002500 100210000
L314002500 100210000
" />
<path d="M301002500 86210000
L314002500 86210000
" />
<path d="M294952500.000000 100210000.000000 A500000.000000 500000.000000 0.0 0 0 295452500.000000 99710000.000000" />
<path d="M281452500.000000 99710000.000000 A500000.000000 500000.000000 0.0 0 0 281952500.000000 100210000.000000" />
<path d="M295452500.000000 86710000.000000 A500000.000000 500000.000000 0.0 0 0 294952500.000000 86210000.000000" />
<path d="M214490000 10510000
L214490000 23509999
" />
<path d="M93833750.000000 67160000.000000 A500000.000000 500000.000000 0.0 0 0 93333750.000000 67660000.000000" />
<path d="M107333750 67660000
L107333750 80660000
" />
<path d="M93333750 67660000
L93333750 80660000
" />
<path d="M285927500 67660000
L285927500 80660000
" />
<path d="M271927500 67660000
L271927500 80660000
" />
<path d="M272427500 81160000
L285427500 81160000
" />
<path d="M304477500.000000 81160000.000000 A500000.000000 500000.000000 0.0 0 0 304977500.000000 80660000.000000" />
<path d="M290977500.000000 80660000.000000 A500000.000000 500000.000000 0.0 0 0 291477500.000000 81160000.000000" />
<path d="M304977500.000000 67660000.000000 A500000.000000 500000.000000 0.0 0 0 304477500.000000 67160000.000000" />
<path d="M234327500.000000 67160000.000000 A500000.000000 500000.000000 0.0 0 0 233827500.000000 67660000.000000" />
<path d="M247827500 67660000
L247827500 80660000
" />
<path d="M233827500 67660000
L233827500 80660000
" />
<path d="M104952500 48610000
L104952500 61610000
" />
<path d="M90952500 48610000
L90952500 61610000
" />
<path d="M352890000 10510000
L352890000 23509999
" />
<path d="M93833750 81160000
L106833750 81160000
" />
<path d="M93833750 67160000
L106833750 67160000
" />
<path d="M80640000.000000 81160000.000000 A500000.000000 500000.000000 0.0 0 0 81140000.000000 80660000.000000" />
<path d="M228777500 67660000
L228777500 80660000
" />
<path d="M214777500 67660000
L214777500 80660000
" />
<path d="M215277500 81160000
L228277500 81160000
" />
<path d="M62090000.000000 48610000.000000 A500000.000000 500000.000000 0.0 0 0 61590000.000000 48110000.000000" />
<path d="M48590000.000000 48110000.000000 A500000.000000 500000.000000 0.0 0 0 48090000.000000 48610000.000000" />
<path d="M262902500 86210000
L275902500 86210000
" />
<path d="M256852500.000000 100210000.000000 A500000.000000 500000.000000 0.0 0 0 257352500.000000 99710000.000000" />
<path d="M243352499.000000 99710000.000000 A500000.000000 500000.000000 0.0 0 0 243852499.000000 100210000.000000" />
<path d="M257352500.000000 86710000.000000 A500000.000000 500000.000000 0.0 0 0 256852500.000000 86210000.000000" />
<path d="M243852499.000000 86210000.000000 A500000.000000 500000.000000 0.0 0 0 243352499.000000 86710000.000000" />
<path d="M257352500 86710000
L257352500 99710000
" />
<path d="M166865000 48610000
L166865000 61610000
" />
<path d="M152865000 48610000
L152865000 61610000
" />
<path d="M258140000 29060000
L271140000 29060000
" />
<path d="M271927500.000000 80660000.000000 A500000.000000 500000.000000 0.0 0 0 272427500.000000 81160000.000000" />
<path d="M285927500.000000 67660000.000000 A500000.000000 500000.000000 0.0 0 0 285427500.000000 67160000.000000" />
<path d="M272427500.000000 67160000.000000 A500000.000000 500000.000000 0.0 0 0 271927500.000000 67660000.000000" />
<path d="M220040000.000000 29060000.000000 A500000.000000 500000.000000 0.0 0 0 219540000.000000 29560000.000000" />
<path d="M343865000 43060000
L358428000 43060000
" />
<path d="M143840000 43060000
L156840000 43060000
" />
<path d="M147315000.000000 62110000.000000 A500000.000000 500000.000000 0.0 0 0 147815000.000000 61610000.000000" />
<path d="M133815000.000000 61610000.000000 A500000.000000 500000.000000 0.0 0 0 134315000.000000 62110000.000000" />
<path d="M266877500.000000 67660000.000000 A500000.000000 500000.000000 0.0 0 0 266377500.000000 67160000.000000" />
<path d="M253377500.000000 67160000.000000 A500000.000000 500000.000000 0.0 0 0 252877500.000000 67660000.000000" />
<path d="M266877500 67660000
L266877500 80660000
" />
<path d="M181440000.000000 42560000.000000 A500000.000000 500000.000000 0.0 0 0 181940000.000000 43060000.000000" />
<path d="M385940000 29560000
L385940000 42560000
" />
<path d="M371940000 29560000
L371940000 42560000
" />
<path d="M10490000.000000 29060000.000000 A500000.000000 500000.000000 0.0 0 0 9990000.000000 29560000.000000" />
<path d="M271140000.000000 43060000.000000 A500000.000000 500000.000000 0.0 0 0 271640000.000000 42560000.000000" />
<path d="M42540000.000000 62110000.000000 A500000.000000 500000.000000 0.0 0 0 43040000.000000 61610000.000000" />
<path d="M29040000.000000 61610000.000000 A500000.000000 500000.000000 0.0 0 0 29540000.000000 62110000.000000" />
<path d="M262402500.000000 99710000.000000 A500000.000000 500000.000000 0.0 0 0 262902500.000000 100210000.000000" />
<path d="M276402500.000000 86710000.000000 A500000.000000 500000.000000 0.0 0 0 275902500.000000 86210000.000000" />
<path d="M262902500.000000 86210000.000000 A500000.000000 500000.000000 0.0 0 0 262402500.000000 86710000.000000" />
<path d="M276402500 86710000
L276402500 99710000
" />
<path d="M262402500 86710000
L262402500 99710000
" />
<path d="M262902500 100210000
L275902500 100210000
" />
<path d="M295740000.000000 42560000.000000 A500000.000000 500000.000000 0.0 0 0 296240000.000000 43060000.000000" />
<path d="M314790000 10510000
L314790000 23509999
" />
<path d="M80640000.000000 43060000.000000 A500000.000000 500000.000000 0.0 0 0 81140000.000000 42560000.000000" />
<path d="M252590000.000000 29560000.000000 A500000.000000 500000.000000 0.0 0 0 252090000.000000 29060000.000000" />
<path d="M148102500 86710000
L148102500 99710000
" />
<path d="M148602500 100210000
L161602500 100210000
" />
<path d="M148602500 86210000
L161602500 86210000
" />
<path d="M142552500.000000 100210000.000000 A500000.000000 500000.000000 0.0 0 0 143052500.000000 99710000.000000" />
<path d="M129052500.000000 99710000.000000 A500000.000000 500000.000000 0.0 0 0 129552500.000000 100210000.000000" />
<path d="M337815000.000000 62110000.000000 A500000.000000 500000.000000 0.0 0 0 338315000.000000 61610000.000000" />
<path d="M324315000.000000 61610000.000000 A500000.000000 500000.000000 0.0 0 0 324815000.000000 62110000.000000" />
<path d="M238302500.000000 86710000.000000 A500000.000000 500000.000000 0.0 0 0 237802500.000000 86210000.000000" />
<path d="M224802500.000000 86210000.000000 A500000.000000 500000.000000 0.0 0 0 224302500.000000 86710000.000000" />
<path d="M238302500 86710000
L238302500 99710000
" />
<path d="M224302500 86710000
L224302500 99710000
" />
<path d="M224802500 100210000
L237802500 100210000
" />
<path d="M219540000 29560000
L219540000 42560000
" />
<path d="M112383750 105760000
L112383750 118760000
" />
<path d="M112883750 119260000
L125883750 119260000
" />
<path d="M112883750 105260000
L125883750 105260000
" />
<path d="M102071250.000000 119260000.000000 A500000.000000 500000.000000 0.0 0 0 102571250.000000 118760000.000000" />
<path d="M88571250.000000 118760000.000000 A500000.000000 500000.000000 0.0 0 0 89071250.000000 119260000.000000" />
<path d="M102571250.000000 105760000.000000 A500000.000000 500000.000000 0.0 0 0 102071250.000000 105260000.000000" />
<path d="M89071250.000000 105260000.000000 A500000.000000 500000.000000 0.0 0 0 88571250.000000 105760000.000000" />
<path d="M102571250 105760000
L102571250 118760000
" />
<path d="M88571250 105760000
L88571250 118760000
" />
<path d="M89071250 119260000
L102071250 119260000
" />
<path d="M86690000 24009999
L99690000 24009999
" />
<path d="M239090000.000000 29060000.000000 A500000.000000 500000.000000 0.0 0 0 238590000.000000 29560000.000000" />
<path d="M147815000 48610000
L147815000 61610000
" />
<path d="M133815000 48610000
L133815000 61610000
" />
<path d="M257640000.000000 23509999.000000 A500000.000000 500000.000000 0.0 0 0 258140000.000000 24009999.000000" />
<path d="M149696250.000000 119260000.000000 A500000.000000 500000.000000 0.0 0 0 150196250.000000 118760000.000000" />
<path d="M136196250.000000 118760000.000000 A500000.000000 500000.000000 0.0 0 0 136696250.000000 119260000.000000" />
<path d="M150196250.000000 105760000.000000 A500000.000000 500000.000000 0.0 0 0 149696250.000000 105260000.000000" />
<path d="M162890000 43060000
L175890000 43060000
" />
<path d="M61590000.000000 62110000.000000 A500000.000000 500000.000000 0.0 0 0 62090000.000000 61610000.000000" />
<path d="M48090000.000000 61610000.000000 A500000.000000 500000.000000 0.0 0 0 48590000.000000 62110000.000000" />
<path d="M271640000 29560000
L271640000 42560000
" />
<path d="M248615000 62110000
L261615000 62110000
" />
<path d="M248615000 48110000
L261615000 48110000
" />
<path d="M81140000 48610000
L81140000 61610000
" />
<path d="M67140000 48610000
L67140000 61610000
" />
<path d="M81140000 67660000
L81140000 80660000
" />
<path d="M67140000 67660000
L67140000 80660000
" />
<path d="M67640000 81160000
L80640000 81160000
" />
<path d="M81140000 29560000
L81140000 42560000
" />
<path d="M86690000 29060000
L99690000 29060000
" />
<path d="M119240000.000000 10510000.000000 A500000.000000 500000.000000 0.0 0 0 118740000.000000 10010000.000000" />
<path d="M81140000.000000 29560000.000000 A500000.000000 500000.000000 0.0 0 0 80640000.000000 29060000.000000" />
<path d="M100190000.000000 29560000.000000 A500000.000000 500000.000000 0.0 0 0 99690000.000000 29060000.000000" />
<path d="M258140000 10010000
L271140000 10010000
" />
<path d="M319265000.000000 48610000.000000 A500000.000000 500000.000000 0.0 0 0 318765000.000000 48110000.000000" />
<path d="M305765000.000000 48110000.000000 A500000.000000 500000.000000 0.0 0 0 305265000.000000 48610000.000000" />
<path d="M43040000 29560000
L43040000 42560000
" />
<path d="M86190000 29560000
L86190000 42560000
" />
<path d="M210515000 62110000
L223515000 62110000
" />
<path d="M210515000 48110000
L223515000 48110000
" />
<path d="M99690000.000000 43060000.000000 A500000.000000 500000.000000 0.0 0 0 100190000.000000 42560000.000000" />
<path d="M29540000 105260000
L42540000 105260000
" />
<path d="M23490000.000000 119260000.000000 A500000.000000 500000.000000 0.0 0 0 23990000.000000 118760000.000000" />
<path d="M23990000 99710000
L23990000 118760000
" />
<path d="M136696250.000000 105260000.000000 A500000.000000 500000.000000 0.0 0 0 136196250.000000 105760000.000000" />
<path d="M150196250 105760000
L150196250 118760000
" />
<path d="M136196250 105760000
L136196250 118760000
" />
<path d="M136696250 119260000
L149696250 119260000
" />
<path d="M136696250 105260000
L149696250 105260000
" />
<path d="M125883750.000000 119260000.000000 A500000.000000 500000.000000 0.0 0 0 126383750.000000 118760000.000000" />
<path d="M112383750.000000 118760000.000000 A500000.000000 500000.000000 0.0 0 0 112883750.000000 119260000.000000" />
<path d="M126383750.000000 105760000.000000 A500000.000000 500000.000000 0.0 0 0 125883750.000000 105260000.000000" />
<path d="M112883750.000000 105260000.000000 A500000.000000 500000.000000 0.0 0 0 112383750.000000 105760000.000000" />
<path d="M126383750 105760000
L126383750 118760000
" />
<path d="M89071250 105260000
L102071250 105260000
" />
<path d="M124790000 29060000
L137790000 29060000
" />
<path d="M143052500.000000 86710000.000000 A500000.000000 500000.000000 0.0 0 0 142552500.000000 86210000.000000" />
<path d="M129552500.000000 86210000.000000 A500000.000000 500000.000000 0.0 0 0 129052500.000000 86710000.000000" />
<path d="M143052500 86710000
L143052500 99710000
" />
<path d="M129052500 86710000
L129052500 99710000
" />
<path d="M129552500 100210000
L142552500 100210000
" />
<path d="M143840000 24009999
L156840000 24009999
" />
<path d="M143340000 10510000
L143340000 23509999
" />
<path d="M86690000.000000 29060000.000000 A500000.000000 500000.000000 0.0 0 0 86190000.000000 29560000.000000" />
<path d="M138577500 67660000
L138577500 80660000
" />
<path d="M139077500 81160000
L152077500 81160000
" />
<path d="M139077500 67160000
L152077500 67160000
" />
<path d="M243065000.000000 48610000.000000 A500000.000000 500000.000000 0.0 0 0 242565000.000000 48110000.000000" />
<path d="M229565000.000000 48110000.000000 A500000.000000 500000.000000 0.0 0 0 229065000.000000 48610000.000000" />
<path d="M172415000 62110000
L185415000 62110000
" />
<path d="M172415000 48110000
L185415000 48110000
" />
<path d="M328790000 10510000
L328790000 23509999
" />
<path d="M348627500 62110000
L361627500 62110000
" />
<path d="M348627500 48110000
L361627500 48110000
" />
<path d="M258140000.000000 10010000.000000 A500000.000000 500000.000000 0.0 0 0 257640000.000000 10510000.000000" />
<path d="M271140000.000000 24009999.000000 A500000.000000 500000.000000 0.0 0 0 271640000.000000 23509999.000000" />
<path d="M329127500.000000 119260000.000000 A500000.000000 500000.000000 0.0 0 0 329627500.000000 118760000.000000" />
<path d="M329627500.000000 105760000.000000 A500000.000000 500000.000000 0.0 0 0 329127500.000000 105260000.000000" />
<path d="M329627500 105760000
L329627500 118760000
" />
<path d="M67140000.000000 42560000.000000 A500000.000000 500000.000000 0.0 0 0 67640000.000000 43060000.000000" />
<path d="M129552500 86210000
L142552500 86210000
" />
<path d="M99690000.000000 24009999.000000 A500000.000000 500000.000000 0.0 0 0 100190000.000000 23509999.000000" />
<path d="M119240000 10510000
L119240000 23509999
" />
<path d="M195440000.000000 10510000.000000 A500000.000000 500000.000000 0.0 0 0 194940000.000000 10010000.000000" />
<path d="M124790000 24009999
L137790000 24009999
" />
<path d="M143840000 10010000
L156840000 10010000
" />
<path d="M86690000 43060000
L99690000 43060000
" />
<path d="M296240000 10010000
L309240000 10010000
" />
<path d="M277190000 10010000
L290190000 10010000
" />
<path d="M181940000.000000 10010000.000000 A500000.000000 500000.000000 0.0 0 0 181440000.000000 10510000.000000" />
<path d="M124290000 10510000
L124290000 23509999
" />
<path d="M105740000.000000 29060000.000000 A500000.000000 500000.000000 0.0 0 0 105240000.000000 29560000.000000" />
<path d="M8990000.000000 118760000.000000 A500000.000000 500000.000000 0.0 0 0 9490000.000000 119260000.000000" />
<path d="M10490000 29060000
L23490000 29060000
" />
<path d="M86190000 10510000
L86190000 23509999
" />
<path d="M353390000 10010000
L366390000 10010000
" />
<path d="M347340000.000000 24009999.000000 A500000.000000 500000.000000 0.0 0 0 347840000.000000 23509999.000000" />
<path d="M213990000.000000 43060000.000000 A500000.000000 500000.000000 0.0 0 0 214490000.000000 42560000.000000" />
<path d="M100190000 10510000
L100190000 23509999
" />
<path d="M81160000 119710000
L81160000 105710000
" />
<path d="M104452500.000000 62110000.000000 A500000.000000 500000.000000 0.0 0 0 104952500.000000 61610000.000000" />
<path d="M90952500.000000 61610000.000000 A500000.000000 500000.000000 0.0 0 0 91452500.000000 62110000.000000" />
<path d="M67640000 29060000
L80640000 29060000
" />
<path d="M9490000.000000 86210000.000000 A500000.000000 500000.000000 0.0 0 0 8990000.000000 86710000.000000" />
<path d="M61610000 105210000
L80660000 105210000
" />
<path d="M223515000.000000 62110000.000000 A500000.000000 500000.000000 0.0 0 0 224015000.000000 61610000.000000" />
<path d="M210015000.000000 61610000.000000 A500000.000000 500000.000000 0.0 0 0 210515000.000000 62110000.000000" />
<path d="M8990000 86710000
L8990000 99710000
" />
<path d="M238590000 10510000
L238590000 23509999
" />
<path d="M200490000 29560000
L200490000 42560000
" />
<path d="M200990000 43060000
L213990000 43060000
" />
<path d="M81140000 9510000
L81140000 24809999
" />
<path d="M258140000.000000 29060000.000000 A500000.000000 500000.000000 0.0 0 0 257640000.000000 29560000.000000" />
<path d="M29540000 29060000
L42540000 29060000
" />
<path d="M358928000.000000 43560000.000000 A500000.000000 500000.000000 0.0 0 0 358428000.000000 43060000.000000" />
<path d="M309240000.000000 43060000.000000 A500000.000000 500000.000000 0.0 0 0 309740000.000000 42560000.000000" />
<path d="M62090000 48610000
L62090000 61610000
" />
<path d="M48090000 48610000
L48090000 61610000
" />
<path d="M220040000 43060000
L233040000 43060000
" />
<path d="M67140000.000000 80660000.000000 A500000.000000 500000.000000 0.0 0 0 67640000.000000 81160000.000000" />
<path d="M81140000.000000 67660000.000000 A500000.000000 500000.000000 0.0 0 0 80640000.000000 67160000.000000" />
<path d="M67640000.000000 67160000.000000 A500000.000000 500000.000000 0.0 0 0 67140000.000000 67660000.000000" />
<path d="M166365000.000000 62110000.000000 A500000.000000 500000.000000 0.0 0 0 166865000.000000 61610000.000000" />
<path d="M152865000.000000 61610000.000000 A500000.000000 500000.000000 0.0 0 0 153365000.000000 62110000.000000" />
<path d="M67140000 29560000
L67140000 42560000
" />
<path d="M118740000.000000 43060000.000000 A500000.000000 500000.000000 0.0 0 0 119240000.000000 42560000.000000" />
<path d="M171627500 67660000
L171627500 80660000
" />
<path d="M157627500 67660000
L157627500 80660000
" />
<path d="M158127500 81160000
L171127500 81160000
" />
<path d="M194940000.000000 43060000.000000 A500000.000000 500000.000000 0.0 0 0 195440000.000000 42560000.000000" />
<path d="M290190000.000000 43060000.000000 A500000.000000 500000.000000 0.0 0 0 290690000.000000 42560000.000000" />
<path d="M43040000 86710000
L43040000 99710000
" />
<path d="M29040000 86710000
L29040000 99710000
" />
<path d="M29540000 100210000
L42540000 100210000
" />
<path d="M29540000 86210000
L42540000 86210000
" />
<path d="M105740000 24009999
L118740000 24009999
" />
<path d="M8990000 99710000
L8990000 118760000
" />
<path d="M61590000.000000 43060000.000000 A500000.000000 500000.000000 0.0 0 0 62090000.000000 42560000.000000" />
<path d="M138290000 10510000
L138290000 23509999
" />
<path d="M10490000 9010000
L23490000 9010000
" />
<path d="M29540000 9010000
L42540000 9010000
" />
<path d="M48590000 9010000
L61590000 9010000
" />
<path d="M62090000.000000 9510000.000000 A500000.000000 500000.000000 0.0 0 0 61590000.000000 9010000.000000" />
<path d="M67640000.000000 9010000.000000 A500000.000000 500000.000000 0.0 0 0 67140000.000000 9510000.000000" />
<path d="M43040000.000000 9510000.000000 A500000.000000 500000.000000 0.0 0 0 42540000.000000 9010000.000000" />
<path d="M67640000 9010000
L80640000 9010000
" />
<path d="M81140000.000000 9510000.000000 A500000.000000 500000.000000 0.0 0 0 80640000.000000 9010000.000000" />
<path d="M23990000.000000 9510000.000000 A500000.000000 500000.000000 0.0 0 0 23490000.000000 9010000.000000" />
<path d="M10490000.000000 9010000.000000 A500000.000000 500000.000000 0.0 0 0 9990000.000000 9510000.000000" />
<path d="M48590000.000000 9010000.000000 A500000.000000 500000.000000 0.0 0 0 48090000.000000 9510000.000000" />
<path d="M29540000.000000 9010000.000000 A500000.000000 500000.000000 0.0 0 0 29040000.000000 9510000.000000" />
<path d="M29540000 25309999
L42540000 25309999
" />
<path d="M67640000 25309999
L80640000 25309999
" />
<path d="M23490000.000000 25309999.000000 A500000.000000 500000.000000 0.0 0 0 23990000.000000 24809999.000000" />
<path d="M67140000.000000 24809999.000000 A500000.000000 500000.000000 0.0 0 0 67640000.000000 25309999.000000" />
<path d="M9990000.000000 24809999.000000 A500000.000000 500000.000000 0.0 0 0 10490000.000000 25309999.000000" />
<path d="M10490000 25309999
L23490000 25309999
" />
<path d="M80640000.000000 25309999.000000 A500000.000000 500000.000000 0.0 0 0 81140000.000000 24809999.000000" />
<path d="M61590000.000000 25309999.000000 A500000.000000 500000.000000 0.0 0 0 62090000.000000 24809999.000000" />
<path d="M29040000.000000 24809999.000000 A500000.000000 500000.000000 0.0 0 0 29540000.000000 25309999.000000" />
<path d="M48590000 25309999
L61590000 25309999
" />
<path d="M48090000.000000 24809999.000000 A500000.000000 500000.000000 0.0 0 0 48590000.000000 25309999.000000" />
<path d="M42540000.000000 25309999.000000 A500000.000000 500000.000000 0.0 0 0 43040000.000000 24809999.000000" />
<path d="M372490000 9010000
L385490000 9010000
" />
<path d="M371990000 9510000
L371990000 24809999
" />
<path d="M385490000.000000 25309999.000000 A500000.000000 500000.000000 0.0 0 0 385990000.000000 24809999.000000" />
<path d="M385990000.000000 9510000.000000 A500000.000000 500000.000000 0.0 0 0 385490000.000000 9010000.000000" />
<path d="M372490000.000000 9010000.000000 A500000.000000 500000.000000 0.0 0 0 371990000.000000 9510000.000000" />
<path d="M372490000 25309999
L385490000 25309999
" />
<path d="M371990000.000000 24809999.000000 A500000.000000 500000.000000 0.0 0 0 372490000.000000 25309999.000000" />
<path d="M385990000 9510000
L385990000 24809999
" />
<path d="M333350000 29550000
L333340000 43549999
" />
<path d="M333850000.000000 29050000.000000 A500000.000000 500000.000000 0.0 0 0 333350000.000000 29550000.000000" />
<path d="M372440000 29060000
L385440000 29060000
" />
<path d="M366890000 10510000
L366890000 23509999
" />
<path d="M366878000.000000 44070000.000000 A500000.000000 500000.000000 0.0 0 0 367378000.000000 43570000.000000" />
<path d="M367350000 29550000
L367378000 43570000
" />
<path d="M367350000.000000 29550000.000000 A500000.000000 500000.000000 0.0 0 0 366850000.000000 29050000.000000" />
<path d="M359428000 44060000
L366878000 44070000
" />
<path d="M161277197 104196447
L173783447 104196447
" />
<path d="M160777197.000000 117696447.000000 A500000.000000 500000.000000 0.0 0 0 161277197.000000 118196447.000000" />
<path d="M363750000.000000 66650000.000000 A500000.000000 500000.000000 0.0 0 0 363250000.000000 66150000.000000" />
<path d="M245703553.000000 118703553.000000 A500000.000000 500000.000000 0.0 0 0 246203553.000000 119203553.000000" />
<path d="M363250000 80150000
L355455750 80150000
" />
<path d="M339392750.000000 66650000.000000 A500000.000000 500000.000000 0.0 0 0 338892750.000000 66150000.000000" />
<path d="M363250000.000000 80150000.000000 A500000.000000 500000.000000 0.0 0 0 363750000.000000 79650000.000000" />
<path d="M190346447.000000 104196447.000000 A500000.000000 500000.000000 0.0 0 0 189846447.000000 104696447.000000" />
<path d="M354455750 81150000
L341455750 81150000
" />
<path d="M259203553.000000 105203553.000000 A500000.000000 500000.000000 0.0 0 0 259703553.000000 104703553.000000" />
<path d="M260203553.000000 104203553.000000 A500000.000000 500000.000000 0.0 0 0 259703553.000000 104703553.000000" />
<path d="M187783447.000000 119196447.000000 A500000.000000 500000.000000 0.0 0 0 188283447.000000 118696447.000000" />
<path d="M120356500.000000 99250000.000000 A500000.000000 500000.000000 0.0 0 0 120856500.000000 98750000.000000" />
<path d="M160777197 117696447
L160777197 104696447
" />
<path d="M197096447.000000 104696447.000000 A500000.000000 500000.000000 0.0 0 0 196596447.000000 104196447.000000" />
<path d="M332142750 79650000
L332142750 66650000
" />
<path d="M188783447.000000 118196447.000000 A500000.000000 500000.000000 0.0 0 0 188283447.000000 118696447.000000" />
<path d="M236890553.000000 117703553.000000 A500000.000000 500000.000000 0.0 0 0 237390553.000000 118203553.000000" />
<path d="M268116553 118203553
L260203553 118203553
" />
<path d="M332142750.000000 79650000.000000 A500000.000000 500000.000000 0.0 0 0 332642750.000000 80150000.000000" />
<path d="M340455750 80150000
L332642750 80150000
" />
<path d="M98043500.000000 99750000.000000 A500000.000000 500000.000000 0.0 0 0 98543500.000000 100250000.000000" />
<path d="M354455750.000000 67150000.000000 A500000.000000 500000.000000 0.0 0 0 354955750.000000 66650000.000000" />
<path d="M237390553.000000 104203553.000000 A500000.000000 500000.000000 0.0 0 0 236890553.000000 104703553.000000" />
<path d="M174783447 119196447
L187783447 119196447
" />
<path d="M188783447 118196447
L196596447 118196447
" />
<path d="M243640553 104203553
L237390553 104203553
" />
<path d="M354455750.000000 81150000.000000 A500000.000000 500000.000000 0.0 0 0 354955750.000000 80650000.000000" />
<path d="M355455750.000000 80150000.000000 A500000.000000 500000.000000 0.0 0 0 354955750.000000 80650000.000000" />
<path d="M340955750.000000 80650000.000000 A500000.000000 500000.000000 0.0 0 0 340455750.000000 80150000.000000" />
<path d="M259203553 119203553
L246203553 119203553
" />
<path d="M355455750.000000 66150000.000000 A500000.000000 500000.000000 0.0 0 0 354955750.000000 66650000.000000" />
<path d="M111543500 86250000
L96980500 86250000
" />
<path d="M96480500.000000 85750000.000000 A500000.000000 500000.000000 0.0 0 0 95980500.000000 85250000.000000" />
<path d="M268616553 117703553
L268616553 104703553
" />
<path d="M340955750.000000 80650000.000000 A500000.000000 500000.000000 0.0 0 0 341455750.000000 81150000.000000" />
<path d="M189346447.000000 105196447.000000 A500000.000000 500000.000000 0.0 0 0 189846447.000000 104696447.000000" />
<path d="M120856500.000000 85750000.000000 A500000.000000 500000.000000 0.0 0 0 120356500.000000 85250000.000000" />
<path d="M339392750.000000 66650000.000000 A500000.000000 500000.000000 0.0 0 0 339892750.000000 67150000.000000" />
<path d="M120356500 99250000
L112543500 99250000
" />
</g>
<g style="fill:#000000; fill-opacity:0.0; 
stroke:#000000; stroke-width:100000.000000; stroke-opacity:1; 
stroke-linecap:round; stroke-linejoin:round;">
<path d="M50000 50000
L395950000 50000
" />
</g>
<g style="fill:#000000; fill-opacity:0.0; 
stroke:#000000; stroke-width:50000.000000; stroke-opacity:1; 
stroke-linecap:round; stroke-linejoin:round;">
<path d="M112543500.000000 85250000.000000 A500000.000000 500000.000000 0.0 0 0 112043500.000000 85750000.000000" />
<path d="M120356500 85250000
L112543500 85250000
" />
<path d="M363750000 79650000
L363750000 66650000
" />
<path d="M190346447 104196447
L196596447 104196447
" />
<path d="M259203553 105203553
L244640553 105203553
" />
<path d="M174283447.000000 104696447.000000 A500000.000000 500000.000000 0.0 0 0 174783447.000000 105196447.000000" />
<path d="M89230500.000000 98750000.000000 A500000.000000 500000.000000 0.0 0 0 89730500.000000 99250000.000000" />
<path d="M89730500.000000 85250000.000000 A500000.000000 500000.000000 0.0 0 0 89230500.000000 85750000.000000" />
<path d="M98043500.000000 99750000.000000 A500000.000000 500000.000000 0.0 0 0 97543500.000000 99250000.000000" />
<path d="M174283447.000000 118696447.000000 A500000.000000 500000.000000 0.0 0 0 173783447.000000 118196447.000000" />
<path d="M111543500.000000 86250000.000000 A500000.000000 500000.000000 0.0 0 0 112043500.000000 85750000.000000" />
<path d="M111543500.000000 100250000.000000 A500000.000000 500000.000000 0.0 0 0 112043500.000000 99750000.000000" />
<path d="M174783447 105196447
L189346447 105196447
" />
<path d="M332642750.000000 66150000.000000 A500000.000000 500000.000000 0.0 0 0 332142750.000000 66650000.000000" />
<path d="M174283447.000000 118696447.000000 A500000.000000 500000.000000 0.0 0 0 174783447.000000 119196447.000000" />
<path d="M363250000 66150000
L355455750 66150000
" />
<path d="M259203553.000000 119203553.000000 A500000.000000 500000.000000 0.0 0 0 259703553.000000 118703553.000000" />
<path d="M244140553.000000 104703553.000000 A500000.000000 500000.000000 0.0 0 0 243640553.000000 104203553.000000" />
<path d="M97543500 99250000
L89730500 99250000
" />
<path d="M95980500 85250000
L89730500 85250000
" />
<path d="M260203553.000000 118203553.000000 A500000.000000 500000.000000 0.0 0 0 259703553.000000 118703553.000000" />
<path d="M161277197.000000 104196447.000000 A500000.000000 500000.000000 0.0 0 0 160777197.000000 104696447.000000" />
<path d="M196596447.000000 118196447.000000 A500000.000000 500000.000000 0.0 0 0 197096447.000000 117696447.000000" />
<path d="M338892750 66150000
L332642750 66150000
" />
<path d="M96480500.000000 85750000.000000 A500000.000000 500000.000000 0.0 0 0 96980500.000000 86250000.000000" />
<path d="M268616553.000000 104703553.000000 A500000.000000 500000.000000 0.0 0 0 268116553.000000 104203553.000000" />
<path d="M197096447 117696447
L197096447 104696447
" />
<path d="M89230500 98750000
L89230500 85750000
" />
<path d="M174283447.000000 104696447.000000 A500000.000000 500000.000000 0.0 0 0 173783447.000000 104196447.000000" />
<path d="M161277197 118196447
L173783447 118196447
" />
<path d="M111543500 100250000
L98543500 100250000
" />
<path d="M244140553.000000 104703553.000000 A500000.000000 500000.000000 0.0 0 0 244640553.000000 105203553.000000" />
<path d="M236890553 117703553
L236890553 104703553
" />
<path d="M245203553 118203553
L237390553 118203553
" />
<path d="M268116553 104203553
L260203553 104203553
" />
<path d="M120856500 98750000
L120856500 85750000
" />
<path d="M112543500.000000 99250000.000000 A500000.000000 500000.000000 0.0 0 0 112043500.000000 99750000.000000" />
<path d="M245703553.000000 118703553.000000 A500000.000000 500000.000000 0.0 0 0 245203553.000000 118203553.000000" />
<path d="M268116553.000000 118203553.000000 A500000.000000 500000.000000 0.0 0 0 268616553.000000 117703553.000000" />
<g >
</g>
<g >
</g>
<g >
</g>
</g> 
</svg>
