0
SECTION
2
HEADER
9
$INSUNITS
70
4
9
$ACADVER
1
AC1014
9
$HANDSEED
5
FFFF
0
ENDSEC
0
SECTION
2
TABLES
0
TABLE
2
VPORT
5
8
100
AcDbSymbolTable
0
ENDTAB
0
TABLE
2
LTYPE
5
5
100
AcDbSymbolTable
0
LTYPE
5
14
100
AcDbSymbolTableRecord
100
AcDbLinetypeTableRecord
2
BYBLOCK
70
0
0
LTYPE
5
15
100
AcDbSymbolTableRecord
100
AcDbLinetypeTableRecord
2
BYLAYER
70
0
0
ENDTAB
0
TABLE
2
LAYER
5
2
100
AcDbSymbolTable
70
2
0
LAYER
5
50
100
AcDbSymbolTableRecord
100
AcDbLayerTableRecord
2
0
70
0
6
CONTINUOUS
0
ENDTAB
0
TABLE
2
STYLE
5
3
100
AcDbSymbolTable
70
1
0
STYLE
5
11
100
AcDbSymbolTableRecord
100
AcDbTextStyleTableRecord
2
STANDARD
70
0
0
ENDTAB
0
TABLE
2
VIEW
5
6
100
AcDbSymbolTable
70
0
0
ENDTAB
0
TABLE
2
UCS
5
7
100
AcDbSymbolTable
70
0
0
ENDTAB
0
TABLE
2
APPID
5
9
100
AcDbSymbolTable
70
2
0
APPID
5
12
100
AcDbSymbolTableRecord
100
AcDbRegAppTableRecord
2
ACAD
70
0
0
ENDTAB
0
TABLE
2
DIMSTYLE
5
A
100
AcDbSymbolTable
70
1
0
ENDTAB
0
TABLE
2
BLOCK_RECORD
5
1
100
AcDbSymbolTable
70
1
0
BLOCK_RECORD
5
1F
100
AcDbSymbolTableRecord
100
AcDbBlockTableRecord
2
*MODEL_SPACE
0
BLOCK_RECORD
5
1B
100
AcDbSymbolTableRecord
100
AcDbBlockTableRecord
2
*PAPER_SPACE
0
ENDTAB
0
ENDSEC
0
SECTION
2
BLOCKS
0
BLOCK
5
20
100
AcDbEntity
100
AcDbBlockBegin
2
*MODEL_SPACE
0
ENDBLK
5
21
100
AcDbEntity
100
AcDbBlockEnd
0
BLOCK
5
1C
100
AcDbEntity
100
AcDbBlockBegin
2
*PAPER_SPACE
0
ENDBLK
5
1D
100
AcDbEntity
100
AcDbBlockEnd
0
ENDSEC
0
SECTION
2
ENTITIES
0
CIRCLE
5
100
100
AcDbEntity
8
0
100
AcDbCircle
10
-356.81431154686754
20
213.20254981041325
30
0
40
1.7499999999999716
210
0
220
0
230
1
0
CIRCLE
5
101
100
AcDbEntity
8
0
100
AcDbCircle
10
-224.21414791626958
20
213.20254981041296
30
0
40
1.7500000000000071
210
0
220
0
230
1
0
CIRCLE
5
102
100
AcDbEntity
8
0
100
AcDbCircle
10
-489.48097821353423
20
213.20254981041353
30
0
40
1.7499999999999716
210
0
220
0
230
1
0
CIRCLE
5
103
100
AcDbEntity
8
0
100
AcDbCircle
10
-91.54748124960291
20
213.20254981041268
30
0
40
1.7499999999999893
210
0
220
0
230
1
0
CIRCLE
5
104
100
AcDbEntity
8
0
100
AcDbCircle
10
-489.48097821353417
20
81.985785751164343
30
0
40
1.7499999999999716
210
0
220
0
230
1
0
CIRCLE
5
105
100
AcDbEntity
8
0
100
AcDbCircle
10
-224.21414791626921
20
81.985785751164215
30
0
40
1.7500000000000071
210
0
220
0
230
1
0
CIRCLE
5
106
100
AcDbEntity
8
0
100
AcDbCircle
10
-356.81431154686749
20
81.985785751164286
30
0
40
1.7499999999999716
210
0
220
0
230
1
0
CIRCLE
5
107
100
AcDbEntity
8
0
100
AcDbCircle
10
-91.547481249602569
20
81.985785751164144
30
0
40
1.7500000000000071
210
0
220
0
230
1
0
LWPOLYLINE
5
108
100
AcDbEntity
8
0
100
AcDbPolyline
90
8
70
1
43
0.0
10
-417.36450000000002
20
145.11149999999998
10
-430.36450000000002
20
145.11150000000001
42
0.4142135623730534
10
-430.86450000000002
20
144.61150000000001
10
-430.86450000000002
20
131.61149999999998
42
0.4142135623730222
10
-430.36450000000002
20
131.11150000000004
10
-417.36450000000002
20
131.11149999999998
42
0.4142135623730534
10
-416.86450000000008
20
131.61149999999998
10
-416.86450000000008
20
144.61150000000001
42
0.4142135623730222
0
LWPOLYLINE
5
109
100
AcDbEntity
8
0
100
AcDbPolyline
90
8
70
1
43
0.0
10
-464.98950000000008
20
126.0615
10
-477.98950000000002
20
126.0615
42
0.41421356237311585
10
-478.48950000000002
20
125.56150000000001
10
-478.48950000000002
20
112.5615
42
0.4142135623730222
10
-477.98950000000002
20
112.06150000000002
10
-464.98950000000008
20
112.06150000000001
42
0.41421356237311585
10
-464.48950000000013
20
112.5615
10
-464.48950000000013
20
125.56150000000001
42
0.4142135623730222
0
LWPOLYLINE
5
110
100
AcDbEntity
8
0
100
AcDbPolyline
90
8
70
1
43
0.0
10
-383.23949999999996
20
125.56150000000001
42
-0.41421356237311585
10
-382.73950000000002
20
126.0615
10
-369.73950000000002
20
126.0615
42
-0.41421356237310542
10
-369.23950000000002
20
125.56150000000001
10
-369.23950000000002
20
112.5615
42
-0.41421356237311585
10
-369.73950000000002
20
112.06150000000001
10
-382.73950000000002
20
112.06150000000001
42
-0.41421356237310542
10
-383.23949999999996
20
112.5615
0
LWPOLYLINE
5
111
100
AcDbEntity
8
0
100
AcDbPolyline
90
8
70
1
43
0.0
10
-379.2645
20
145.11150000000001
10
-392.2645
20
145.11150000000001
42
0.4142135623730534
10
-392.7645
20
144.61150000000001
10
-392.7645
20
131.61149999999998
42
0.4142135623730222
10
-392.2645
20
131.11150000000001
10
-379.2645
20
131.11149999999998
42
0.4142135623730534
10
-378.7645
20
131.61149999999998
10
-378.76450000000006
20
144.61150000000001
42
0.41421356237312623
0
LWPOLYLINE
5
112
100
AcDbEntity
8
0
100
AcDbPolyline
90
8
70
1
43
0.0
10
-364.97700000000009
20
164.16150000000002
10
-377.97700000000009
20
164.16150000000002
42
0.41421356237307422
10
-378.47700000000003
20
163.66150000000002
10
-378.47700000000003
20
150.66149999999999
42
0.41421356237312623
10
-377.97700000000009
20
150.16149999999999
10
-364.97700000000009
20
150.16149999999999
42
0.4142135623730534
10
-364.47700000000003
20
150.66149999999999
10
-364.47700000000009
20
163.66150000000002
42
0.41421356237307422
0
LWPOLYLINE
5
113
100
AcDbEntity
8
0
100
AcDbPolyline
90
8
70
1
43
0.0
10
-393.55199999999996
20
183.21149999999994
10
-406.55200000000008
20
183.21150000000003
42
0.4142135623730534
10
-407.05200000000002
20
182.7115
10
-407.05200000000002
20
169.7115
42
0.41421356237301177
10
-406.55200000000008
20
169.21150000000006
10
-393.55199999999996
20
169.2115
42
0.4142135623730534
10
-393.05200000000002
20
169.7115
10
-393.05200000000002
20
182.7115
42
0.41421356237301177
0
LWPOLYLINE
5
114
100
AcDbEntity
8
0
100
AcDbPolyline
90
8
70
1
43
0.0
10
-464.98950000000008
20
202.26150000000004
10
-477.98950000000002
20
202.26150000000004
42
0.4142135623730534
10
-478.48950000000002
20
201.76150000000001
10
-478.48950000000002
20
188.76150000000001
42
0.41421356237301177
10
-477.98950000000002
20
188.26149999999998
10
-464.98950000000008
20
188.26150000000001
42
0.4142135623730534
10
-464.48950000000013
20
188.76150000000001
10
-464.48950000000013
20
201.76150000000001
42
0.41421356237301177
0
LWPOLYLINE
5
115
100
AcDbEntity
8
0
100
AcDbPolyline
90
8
70
1
43
0.0
10
-303.06450000000001
20
145.11150000000001
10
-316.06450000000001
20
145.11150000000001
42
0.4142135623730222
10
-316.56450000000001
20
144.61150000000001
10
-316.56450000000001
20
131.61149999999998
42
0.41421356237310542
10
-316.06450000000001
20
131.11150000000001
10
-303.06450000000001
20
131.11149999999998
42
0.4142135623730534
10
-302.56450000000001
20
131.61149999999998
10
-302.56450000000001
20
144.61150000000001
42
0.41421356237313667
0
LWPOLYLINE
5
116
100
AcDbEntity
8
0
100
AcDbPolyline
90
8
70
1
43
0.0
10
-336.40199999999999
20
183.21150000000003
10
-349.40200000000004
20
183.21150000000003
42
0.4142135623730534
10
-349.90200000000004
20
182.7115
10
-349.90200000000004
20
169.7115
42
0.4142135623730534
10
-349.40200000000004
20
169.21149999999997
10
-336.40199999999999
20
169.2115
42
0.4142135623731783
10
-335.90199999999993
20
169.7115
10
-335.90199999999993
20
182.7115
42
0.41421356237313667
0
LWPOLYLINE
5
117
100
AcDbEntity
8
0
100
AcDbPolyline
90
8
70
1
43
0.0
10
-312.58950000000004
20
126.06150000000001
10
-325.58950000000004
20
126.0615
42
0.4142135623732407
10
-326.08950000000004
20
125.56150000000001
10
-326.08950000000004
20
112.5615
42
0.41421356237313667
10
-325.58950000000004
20
112.06150000000001
10
-312.58950000000004
20
112.06150000000001
42
0.41421356237307422
10
-312.08950000000004
20
112.5615
10
-312.08950000000004
20
125.56150000000001
42
0.41421356237309503
0
LWPOLYLINE
5
118
100
AcDbEntity
8
0
100
AcDbPolyline
90
8
70
1
43
0.0
10
-236.3895
20
126.0615
10
-249.3895
20
126.0615
42
0.41421356237304302
10
-249.8895
20
125.56150000000001
10
-249.8895
20
112.5615
42
0.4142135623730846
10
-249.3895
20
112.0615
10
-236.3895
20
112.06150000000001
42
0.41421356237304302
10
-235.8895
20
112.5615
10
-235.8895
20
125.56150000000001
42
0.4142135623730846
0
LWPOLYLINE
5
119
100
AcDbEntity
8
0
100
AcDbPolyline
90
8
70
1
43
0.0
10
-240.36450000000002
20
144.61150000000001
42
-0.4142135623730534
10
-239.86450000000002
20
145.11150000000001
10
-226.86450000000002
20
145.11150000000004
42
-0.41421356237310542
10
-226.36449999999999
20
144.61150000000001
10
-226.36450000000002
20
131.61149999999998
42
-0.4142135623730222
10
-226.86450000000002
20
131.11149999999998
10
-239.86450000000002
20
131.11149999999998
42
-0.41421356237313667
10
-240.36450000000002
20
131.61149999999998
0
LWPOLYLINE
5
120
100
AcDbEntity
8
0
100
AcDbPolyline
90
8
70
1
43
0.0
10
-288.77699999999999
20
164.16150000000002
10
-301.77700000000004
20
164.16150000000002
42
0.41421356237299095
10
-302.27700000000004
20
163.66150000000002
10
-302.27700000000004
20
150.66149999999999
42
0.41421356237310542
10
-301.77700000000004
20
150.16149999999999
10
-288.77699999999999
20
150.16149999999999
42
0.4142135623730534
10
-288.27699999999999
20
150.66149999999999
10
-288.27699999999999
20
163.66150000000002
42
0.4142135623731783
0
LWPOLYLINE
5
121
100
AcDbEntity
8
0
100
AcDbPolyline
90
8
70
1
43
0.0
10
-226.077
20
163.66150000000002
42
-0.4142135623730534
10
-225.577
20
164.16150000000002
10
-212.577
20
164.16150000000002
42
-0.41421356237313667
10
-212.077
20
163.66150000000002
10
-212.07700000000003
20
150.66149999999999
42
-0.4142135623730222
10
-212.577
20
150.16149999999999
10
-225.577
20
150.16149999999999
42
-0.41421356237313667
10
-226.077
20
150.66149999999999
0
LWPOLYLINE
5
122
100
AcDbEntity
8
0
100
AcDbPolyline
90
8
70
1
43
0.0
10
-279.25200000000001
20
183.21150000000003
10
-292.25200000000001
20
183.21150000000003
42
0.41421356237313667
10
-292.75200000000001
20
182.7115
10
-292.75200000000001
20
169.7115
42
0.41421356237313667
10
-292.25200000000001
20
169.21149999999997
10
-279.25200000000001
20
169.2115
42
0.41421356237299095
10
-278.75200000000001
20
169.7115
10
-278.75200000000001
20
182.7115
42
0.41421356237313667
0
LWPOLYLINE
5
123
100
AcDbEntity
8
0
100
AcDbPolyline
90
8
70
1
43
0.0
10
-229.24575000000002
20
202.26150000000004
10
-242.24575000000002
20
202.26150000000004
42
0.41421356237313667
10
-242.74575000000002
20
201.76150000000001
10
-242.74575000000002
20
188.76150000000001
42
0.41421356237313667
10
-242.24575000000002
20
188.26149999999998
10
-229.24575000000002
20
188.26150000000001
42
0.41421356237313667
10
-228.74574999999999
20
188.76150000000001
10
-228.74574999999999
20
201.76150000000001
42
0.41421356237313667
0
LWPOLYLINE
5
124
100
AcDbEntity
8
0
100
AcDbPolyline
90
8
70
1
43
0.0
10
-173.68949999999998
20
182.7115
42
-0.41421356237309503
10
-173.18950000000001
20
183.21149999999994
10
-160.18950000000001
20
183.2115
42
-0.41421356237309503
10
-159.68950000000001
20
182.7115
10
-159.68949999999995
20
169.7115
42
-0.41421356237303258
10
-160.18950000000001
20
169.2115
10
-173.18950000000001
20
169.2115
42
-0.41421356237313667
10
-173.68950000000001
20
169.7115
0
LWPOLYLINE
5
125
100
AcDbEntity
8
0
100
AcDbPolyline
90
8
70
1
43
0.0
10
-160.18950000000001
20
164.16150000000002
10
-173.18950000000001
20
164.16150000000002
42
0.41421356237299095
10
-173.68950000000001
20
163.66150000000002
10
-173.68950000000001
20
150.66149999999999
42
0.41421356237310542
10
-173.18950000000001
20
150.16149999999999
10
-160.18950000000001
20
150.16149999999999
42
0.41421356237309503
10
-159.68950000000001
20
150.66149999999999
10
-159.68950000000001
20
163.66150000000002
42
0.41421356237313667
0
LWPOLYLINE
5
126
100
AcDbEntity
8
0
100
AcDbPolyline
90
8
70
1
43
0.0
10
-154.6395
20
144.61150000000001
42
-0.41421356237310542
10
-154.13950000000003
20
145.11150000000001
10
-141.1395
20
145.11150000000001
42
-0.41421356237310542
10
-140.63950000000003
20
144.61150000000001
10
-140.63950000000003
20
131.61149999999998
42
-0.41421356237310542
10
-141.1395
20
131.11149999999998
10
-154.13950000000003
20
131.11149999999998
42
-0.41421356237307422
10
-154.63950000000003
20
131.61149999999998
0
LWPOLYLINE
5
127
100
AcDbEntity
8
0
100
AcDbPolyline
90
8
70
1
43
0.0
10
-122.08950000000002
20
183.21150000000003
10
-135.08950000000002
20
183.21150000000003
42
0.4142135623730846
10
-135.58950000000002
20
182.7115
10
-135.58949999999999
20
169.7115
42
0.41421356237304302
10
-135.08950000000002
20
169.2115
10
-122.08950000000002
20
169.2115
42
0.4142135623730222
10
-121.58950000000002
20
169.7115
10
-121.58950000000002
20
182.7115
42
0.4142135623730222
0
LWPOLYLINE
5
128
100
AcDbEntity
8
0
100
AcDbPolyline
90
8
70
1
43
0.0
10
-103.0395
20
126.0615
10
-116.0395
20
126.0615
42
0.41421356237310542
10
-116.5395
20
125.56150000000001
10
-116.53950000000002
20
112.5615
42
0.41421356237310542
10
-116.0395
20
112.06150000000001
10
-103.0395
20
112.06150000000001
42
0.41421356237310542
10
-102.5395
20
112.5615
10
-102.5395
20
125.56150000000001
42
0.41421356237310542
0
LWPOLYLINE
5
129
100
AcDbEntity
8
0
100
AcDbPolyline
90
8
70
1
43
0.0
10
-179.23950000000002
20
108.01150000000001
10
-192.23950000000002
20
108.0115
42
0.4142135623730846
10
-192.73949999999999
20
107.51150000000001
10
-192.73950000000002
20
92.511500000000012
42
0.4142135623730846
10
-192.23950000000002
20
92.011499999999998
10
-179.23950000000002
20
92.011499999999998
42
0.41421356237309503
10
-178.73950000000002
20
92.511500000000012
10
-178.73950000000002
20
107.51150000000001
42
0.41421356237309503
0
LWPOLYLINE
5
130
100
AcDbEntity
8
0
100
AcDbPolyline
90
8
70
1
43
0.0
10
-103.0395
20
108.0115
10
-116.0395
20
108.0115
42
0.41421356237307422
10
-116.5395
20
107.51150000000001
10
-116.53950000000002
20
92.511500000000012
42
0.41421356237310542
10
-116.0395
20
92.011499999999998
10
-103.0395
20
92.011499999999998
42
0.41421356237307422
10
-102.5395
20
92.511500000000012
10
-102.5395
20
107.51150000000001
42
0.41421356237310542
0
LWPOLYLINE
5
131
100
AcDbEntity
8
0
100
AcDbPolyline
90
8
70
1
43
0.0
10
-274.48950000000002
20
107.01150000000001
10
-287.48950000000002
20
107.0115
42
0.41421356237313667
10
-287.98950000000002
20
106.51150000000001
10
-287.98950000000002
20
93.511500000000012
42
0.41421356237313667
10
-287.48950000000002
20
93.011499999999998
10
-274.48950000000002
20
93.011499999999998
42
0.41421356237310542
10
-273.98950000000002
20
93.511500000000012
10
-273.98950000000002
20
106.51150000000001
42
0.41421356237310542
0
LWPOLYLINE
5
132
100
AcDbEntity
8
0
100
AcDbPolyline
90
8
70
1
43
0.0
10
-350.68950000000001
20
107.01150000000001
10
-363.68949999999995
20
107.0115
42
0.4142135623730534
10
-364.18950000000001
20
106.51150000000001
10
-364.18949999999995
20
93.511500000000012
42
0.41421356237312623
10
-363.68949999999995
20
93.011499999999998
10
-350.68950000000001
20
93.011499999999998
42
0.4142135623730534
10
-350.18950000000007
20
93.511500000000012
10
-350.18950000000007
20
106.51150000000001
42
0.41421356237312623
0
LWPOLYLINE
5
133
100
AcDbEntity
8
0
100
AcDbPolyline
90
8
70
1
43
0.0
10
-426.88950000000006
20
107.0115
10
-439.8895
20
107.0115
42
0.4142135623730534
10
-440.3895
20
106.51150000000001
10
-440.3895
20
93.511500000000012
42
0.4142135623730222
10
-439.8895
20
93.011500000000041
10
-426.88950000000006
20
93.011499999999998
42
0.4142135623730534
10
-426.38950000000011
20
93.511500000000012
10
-426.38950000000011
20
106.51150000000001
42
0.4142135623730222
0
LWPOLYLINE
5
134
100
AcDbEntity
8
0
100
AcDbPolyline
90
8
70
1
43
0.0
10
-445.93950000000007
20
107.0115
10
-458.93950000000007
20
107.0115
42
0.4142135623730534
10
-459.43950000000001
20
106.51150000000001
10
-459.43950000000007
20
93.511500000000012
42
0.41421356237303258
10
-458.93950000000007
20
93.011499999999998
10
-445.93950000000007
20
93.011499999999998
42
0.4142135623730534
10
-445.43950000000007
20
93.511500000000012
10
-445.43950000000001
20
106.51150000000001
42
0.41421356237303258
0
LWPOLYLINE
5
135
100
AcDbEntity
8
0
100
AcDbPolyline
90
8
70
1
43
0.0
10
-369.73950000000002
20
107.0115
10
-382.73950000000002
20
107.0115
42
0.4142135623730534
10
-383.23950000000002
20
106.51150000000001
10
-383.23949999999996
20
93.511500000000012
42
0.41421356237312623
10
-382.73950000000002
20
93.011499999999998
10
-369.73950000000002
20
93.011499999999998
42
0.4142135623730534
10
-369.23950000000002
20
93.511500000000012
10
-369.23950000000002
20
106.51150000000001
42
0.41421356237312623
0
LWPOLYLINE
5
136
100
AcDbEntity
8
0
100
AcDbPolyline
90
8
70
1
43
0.0
10
-307.03949999999998
20
106.51150000000001
42
-0.41421356237310542
10
-306.53950000000003
20
107.01150000000001
10
-293.53950000000003
20
107.01150000000001
42
-0.41421356237313667
10
-293.03949999999998
20
106.51150000000001
10
-293.03949999999998
20
93.511500000000012
42
-0.41421356237313667
10
-293.53950000000003
20
93.011499999999998
10
-306.53950000000003
20
93.011499999999984
42
-0.41421356237310542
10
-307.03950000000003
20
93.511500000000012
0
LWPOLYLINE
5
137
100
AcDbEntity
8
0
100
AcDbPolyline
90
8
70
1
43
0.0
10
-217.33949999999999
20
107.0115
10
-230.33950000000002
20
107.0115
42
0.41421356237313667
10
-230.83950000000002
20
106.51150000000001
10
-230.83950000000002
20
93.511500000000012
42
0.41421356237313667
10
-230.33950000000002
20
93.011499999999998
10
-217.33949999999999
20
93.011499999999998
42
0.41421356237310542
10
-216.83950000000004
20
93.511500000000012
10
-216.83949999999999
20
106.51150000000001
42
0.41421356237310542
0
LWPOLYLINE
5
138
100
AcDbEntity
8
0
100
AcDbPolyline
90
8
70
1
43
0.0
10
-160.18950000000001
20
108.0115
10
-173.18950000000001
20
108.0115
42
0.4142135623730846
10
-173.68950000000001
20
107.51150000000001
10
-173.68950000000001
20
92.511500000000012
42
0.4142135623730846
10
-173.18950000000001
20
92.011499999999998
10
-160.18950000000001
20
92.011499999999998
42
0.4142135623730846
10
-159.68950000000001
20
92.511500000000012
10
-159.68950000000001
20
107.51150000000001
42
0.4142135623730846
0
LWPOLYLINE
5
139
100
AcDbEntity
8
0
100
AcDbPolyline
90
26
70
1
43
0.0
10
-118.03950000000002
20
156.0735
42
-0.4142135623730846
10
-118.5395
20
156.57349999999997
10
-118.53949999999999
20
162.5735
42
-0.41421356237307422
10
-118.03950000000002
20
163.0735
10
-117.03950010302782
20
163.0735
42
0.41421321552213825
10
-116.53950010302815
20
163.57349940788828
10
-116.53950000000003
20
163.66050000000001
42
-0.41427920120680073
10
-116.0395
20
164.16149999999999
10
-103.0395
20
164.16149999999988
42
-0.41421321552214863
10
-102.53950000000053
20
163.66150059211174
10
-102.53949989697188
20
163.57849999999999
10
-102.53949989697188
20
131.69850059211174
10
-102.5395
20
131.61149999999998
42
-0.41421356237309503
10
-103.0395
20
131.11149999999998
10
-116.0395
20
131.11150000000004
42
-0.41400641378467662
10
-116.53949999999951
20
131.61049940788826
10
-116.53950010302815
20
131.69349999999997
42
0.41421390267708291
10
-117.03950068396333
20
132.19349999999966
10
-118.0395
20
132.19349999999997
42
-0.41421356237311585
10
-118.5395
20
132.6935
10
-118.53949999999999
20
138.69349999999997
42
-0.41421356237309503
10
-118.03950000000002
20
139.19349999999997
10
-117.03950010302782
20
139.19349999999997
42
0.41421321552211743
10
-116.53950010302815
20
139.69349940788823
10
-116.53950010302782
20
155.5735
42
0.41421390267729102
10
-117.03950068396333
20
156.07349999999965
0
LWPOLYLINE
5
140
100
AcDbEntity
8
0
100
AcDbPolyline
90
8
70
1
43
0.0
10
-121.58950000000002
20
150.66149999999999
10
-121.58950000000002
20
163.66150000000002
42
0.4142135623730534
10
-122.08950000000002
20
164.16150000000002
10
-135.08950000000002
20
164.16150000000002
42
0.4142135623730534
10
-135.58950000000002
20
163.66150000000002
10
-135.58950000000002
20
150.66149999999999
42
0.41421356237313667
10
-135.08950000000002
20
150.16149999999999
10
-122.08950000000002
20
150.16149999999999
42
0.41421356237309503
0
LWPOLYLINE
5
141
100
AcDbEntity
8
0
100
AcDbPolyline
90
8
70
1
43
0.0
10
-154.6395
20
163.66150000000002
42
-0.41421356237307422
10
-154.13950000000003
20
164.16150000000002
10
-141.1395
20
164.16150000000002
42
-0.41421356237307422
10
-140.63950000000003
20
163.66150000000002
10
-140.63950000000003
20
150.66149999999999
42
-0.41421356237310542
10
-141.1395
20
150.16149999999999
10
-154.13950000000003
20
150.16149999999999
42
-0.41421356237307422
10
-154.63950000000003
20
150.66149999999999
0
LWPOLYLINE
5
142
100
AcDbEntity
8
0
100
AcDbPolyline
90
8
70
1
43
0.0
10
-173.68949999999998
20
144.61150000000001
42
-0.4142135623730222
10
-173.18950000000001
20
145.11150000000001
10
-160.18950000000001
20
145.11150000000001
42
-0.41421356237309503
10
-159.68950000000001
20
144.61150000000001
10
-159.68950000000001
20
131.61149999999998
42
-0.41421356237309503
10
-160.18950000000001
20
131.11149999999998
10
-173.18950000000001
20
131.11149999999998
42
-0.41421356237310542
10
-173.68950000000001
20
131.61149999999998
0
LWPOLYLINE
5
143
100
AcDbEntity
8
0
100
AcDbPolyline
90
22
70
1
43
0.0
10
-190.64575000000002
20
169.71149999999994
42
-0.41421356237313667
10
-191.14575000000002
20
169.21149999999994
10
-204.14575000000002
20
169.2115
42
-0.41421356237313667
10
-204.64575000000002
20
169.71149999999994
42
0.41421356237307422
10
-205.14575000000002
20
170.2115
10
-212.58375000000001
20
170.21149999999994
42
-0.41421356237313667
10
-213.08375000000001
20
170.71149999999994
10
-213.08375000000001
20
184.71149999999994
42
-0.41421356237313667
10
-212.58375000000001
20
185.21149999999994
10
-206.58375000000001
20
185.21149999999994
42
-0.41421356237313667
10
-206.08374999999998
20
184.71149999999994
10
-206.08375000000001
20
183.71149999999986
42
0.41421356237309503
10
-205.58374999999998
20
183.21149999999983
10
-189.70775000000003
20
183.21149999999983
42
0.41421356237309503
10
-189.20774999999998
20
183.71149999999986
10
-189.20775000000003
20
184.71149999999994
42
-0.41421356237313667
10
-188.70775000000003
20
185.21149999999994
10
-182.70775
20
185.21149999999994
42
-0.41421356237313667
10
-182.20775
20
184.71149999999994
10
-182.20775
20
170.71149999999994
42
-0.41421356237313667
10
-182.70775
20
170.21149999999994
10
-190.14575000000002
20
170.21149999999992
42
0.41421356237309503
0
LWPOLYLINE
5
144
100
AcDbEntity
8
0
100
AcDbPolyline
90
8
70
1
43
0.0
10
-179.23950000000002
20
126.0615
10
-192.23950000000002
20
126.0615
42
0.41421356237304302
10
-192.73949999999999
20
125.56150000000001
10
-192.73950000000002
20
112.5615
42
0.4142135623730846
10
-192.23950000000002
20
112.06150000000001
10
-179.23950000000002
20
112.06150000000001
42
0.41421356237307422
10
-178.73950000000002
20
112.5615
10
-178.73950000000002
20
125.56150000000001
42
0.41421356237309503
0
LWPOLYLINE
5
145
100
AcDbEntity
8
0
100
AcDbPolyline
90
8
70
1
43
0.0
10
-298.30200000000002
20
183.21150000000003
10
-311.30200000000002
20
183.21150000000003
42
0.41421356237313667
10
-311.80200000000002
20
182.7115
10
-311.80200000000002
20
169.7115
42
0.41421356237313667
10
-311.30200000000002
20
169.21149999999997
10
-298.30200000000002
20
169.2115
42
0.41421356237299095
10
-297.80200000000002
20
169.7115
10
-297.80200000000002
20
182.7115
42
0.41421356237313667
0
LWPOLYLINE
5
146
100
AcDbEntity
8
0
100
AcDbPolyline
90
8
70
1
43
0.0
10
-222.102
20
183.21150000000003
10
-235.102
20
183.21150000000003
42
0.41421356237313667
10
-235.60200000000003
20
182.7115
10
-235.60200000000003
20
169.7115
42
0.41421356237313667
10
-235.102
20
169.21149999999997
10
-222.102
20
169.2115
42
0.41421356237297013
10
-221.602
20
169.7115
10
-221.602
20
182.7115
42
0.41421356237313667
0
LWPOLYLINE
5
147
100
AcDbEntity
8
0
100
AcDbPolyline
90
8
70
1
43
0.0
10
-269.72699999999998
20
164.16150000000002
10
-282.72699999999998
20
164.16150000000002
42
0.41421356237299095
10
-283.22700000000003
20
163.66150000000002
10
-283.22700000000003
20
150.66149999999999
42
0.41421356237310542
10
-282.72699999999998
20
150.16149999999999
10
-269.72699999999998
20
150.16149999999999
42
0.4142135623730534
10
-269.22699999999998
20
150.66149999999999
10
-269.22699999999998
20
163.66150000000002
42
0.4142135623731783
0
LWPOLYLINE
5
148
100
AcDbEntity
8
0
100
AcDbPolyline
90
8
70
1
43
0.0
10
-245.91450000000003
20
145.11150000000001
10
-258.91449999999998
20
145.11150000000001
42
0.4142135623730222
10
-259.41449999999998
20
144.61150000000001
10
-259.41449999999998
20
131.61149999999998
42
0.41421356237310542
10
-258.91449999999998
20
131.11150000000001
10
-245.91450000000003
20
131.11149999999998
42
0.4142135623730222
10
-245.4145
20
131.61149999999998
10
-245.4145
20
144.61150000000001
42
0.41421356237310542
0
LWPOLYLINE
5
149
100
AcDbEntity
8
0
100
AcDbPolyline
90
8
70
1
43
0.0
10
-217.33949999999999
20
126.0615
10
-230.33950000000002
20
126.0615
42
0.41421356237307422
10
-230.83950000000002
20
125.56150000000001
10
-230.83950000000002
20
112.5615
42
0.41421356237309503
10
-230.33950000000002
20
112.0615
10
-217.33949999999999
20
112.06150000000001
42
0.41421356237304302
10
-216.83950000000004
20
112.5615
10
-216.83949999999999
20
125.56150000000001
42
0.4142135623730846
0
LWPOLYLINE
5
150
100
AcDbEntity
8
0
100
AcDbPolyline
90
8
70
1
43
0.0
10
-293.03949999999998
20
112.5615
10
-293.03949999999998
20
125.56150000000001
42
0.41421356237309503
10
-293.53950000000003
20
126.06150000000001
10
-306.53950000000003
20
126.0615
42
0.41421356237304302
10
-307.03950000000003
20
125.56150000000001
10
-307.03950000000003
20
112.5615
42
0.4142135623730846
10
-306.53950000000003
20
112.0615
10
-293.53950000000003
20
112.06150000000001
42
0.41421356237307422
0
LWPOLYLINE
5
151
100
AcDbEntity
8
0
100
AcDbPolyline
90
8
70
1
43
0.0
10
-326.87700000000007
20
164.16150000000002
10
-339.87700000000007
20
164.16150000000002
42
0.41421356237307422
10
-340.37700000000001
20
163.66150000000002
10
-340.37700000000001
20
150.66149999999999
42
0.41421356237312623
10
-339.87700000000007
20
150.16149999999999
10
-326.87700000000007
20
150.16149999999999
42
0.4142135623730534
10
-326.37700000000001
20
150.66149999999999
10
-326.37700000000007
20
163.66150000000002
42
0.41421356237307422
0
LWPOLYLINE
5
152
100
AcDbEntity
8
0
100
AcDbPolyline
90
8
70
1
43
0.0
10
-307.827
20
164.16150000000002
10
-320.827
20
164.16150000000002
42
0.41421356237307422
10
-321.327
20
163.66150000000002
10
-321.327
20
150.66149999999999
42
0.41421356237312623
10
-320.827
20
150.16149999999999
10
-307.827
20
150.16149999999999
42
0.4142135623730534
10
-307.327
20
150.66149999999999
10
-307.327
20
163.66150000000002
42
0.4142135623731783
0
LWPOLYLINE
5
153
100
AcDbEntity
8
0
100
AcDbPolyline
90
8
70
1
43
0.0
10
-445.93950000000007
20
202.26149999999996
10
-458.93950000000007
20
202.26150000000004
42
0.4142135623730534
10
-459.43950000000001
20
201.76150000000001
10
-459.43950000000001
20
188.76150000000001
42
0.41421356237301177
10
-458.93950000000007
20
188.26150000000007
10
-445.93950000000007
20
188.26150000000001
42
0.4142135623730534
10
-445.43950000000007
20
188.76150000000001
10
-445.43950000000007
20
201.76150000000001
42
0.41421356237301177
0
LWPOLYLINE
5
154
100
AcDbEntity
8
0
100
AcDbPolyline
90
8
70
1
43
0.0
10
-419.74575000000004
20
183.21149999999994
10
-432.74574999999999
20
183.21150000000003
42
0.4142135623730534
10
-433.24574999999993
20
182.7115
10
-433.24574999999993
20
169.7115
42
0.41421356237301177
10
-432.74574999999999
20
169.2115
10
-419.74575000000004
20
169.2115
42
0.4142135623730534
10
-419.24575000000004
20
169.7115
10
-419.24575000000004
20
182.7115
42
0.41421356237301177
0
LWPOLYLINE
5
155
100
AcDbEntity
8
0
100
AcDbPolyline
90
8
70
1
43
0.0
10
-345.92700000000008
20
164.16150000000002
10
-358.92700000000002
20
164.16150000000002
42
0.41421356237307422
10
-359.42700000000002
20
163.66150000000002
10
-359.42700000000002
20
150.66149999999999
42
0.41421356237312623
10
-358.92700000000002
20
150.16149999999999
10
-345.92700000000008
20
150.16149999999999
42
0.4142135623730534
10
-345.42700000000002
20
150.66149999999999
10
-345.42700000000013
20
163.66150000000002
42
0.41421356237307422
0
LWPOLYLINE
5
156
100
AcDbEntity
8
0
100
AcDbPolyline
90
8
70
1
43
0.0
10
-398.31450000000007
20
145.11149999999998
10
-411.31450000000001
20
145.11150000000001
42
0.4142135623730534
10
-411.81449999999995
20
144.61150000000001
10
-411.81449999999995
20
131.61149999999998
42
0.4142135623730222
10
-411.31450000000001
20
131.11150000000004
10
-398.31450000000007
20
131.11149999999998
42
0.4142135623730534
10
-397.81450000000007
20
131.61149999999998
10
-397.81450000000007
20
144.61150000000001
42
0.4142135623730222
0
LWPOLYLINE
5
157
100
AcDbEntity
8
0
100
AcDbPolyline
90
8
70
1
43
0.0
10
-364.18949999999995
20
125.56150000000001
42
-0.41421356237311585
10
-363.68949999999995
20
126.0615
10
-350.68950000000001
20
126.0615
42
-0.41421356237310542
10
-350.18950000000007
20
125.56150000000001
10
-350.18950000000007
20
112.5615
42
-0.41421356237311585
10
-350.68950000000001
20
112.06150000000001
10
-363.68949999999995
20
112.06150000000001
42
-0.41421356237310542
10
-364.18949999999995
20
112.5615
0
LWPOLYLINE
5
158
100
AcDbEntity
8
0
100
AcDbPolyline
90
24
70
1
43
0.0
10
-458.35250000000002
20
127.56150000000004
10
-458.35249999999996
20
126.56150000000005
42
-0.4142135623730846
10
-458.85249999999996
20
126.06150000000005
10
-458.93950000000007
20
126.06150000000005
42
0.41421356237310542
10
-459.43950000000001
20
125.56150000000004
10
-459.43950000000001
20
112.56150000000004
42
0.4142135623730222
10
-458.93950000000007
20
112.0615
10
-426.88950000000006
20
112.06150000000005
42
0.41421356237310542
10
-426.38950000000011
20
112.56150000000004
10
-426.38950000000011
20
125.56150000000004
42
0.4142135623730222
10
-426.88950000000006
20
126.06150000000001
10
-426.97649999999999
20
126.06149999999992
42
-0.41421356237310542
10
-427.4765000000001
20
126.56150000000005
10
-427.4765000000001
20
127.56150000000004
42
0.4142135623730222
10
-427.97650000000004
20
128.06150000000005
10
-433.97649999999999
20
128.06150000000005
42
0.41421356237310542
10
-434.4765000000001
20
127.56150000000004
10
-434.4765000000001
20
126.56150000000005
42
-0.41421356237310542
10
-434.9765000000001
20
126.06150000000005
10
-450.85250000000002
20
126.06150000000008
42
-0.41421356237309503
10
-451.35249999999996
20
126.56150000000005
10
-451.35249999999996
20
127.56150000000004
42
0.4142135623730222
10
-451.85249999999996
20
128.0615
10
-457.85250000000008
20
128.06150000000005
42
0.41421356237310542
0
LWPOLYLINE
5
159
100
AcDbEntity
8
0
100
AcDbPolyline
90
8
70
1
43
0.0
10
-441.17700000000002
20
145.11149999999998
10
-454.17699999999996
20
145.11150000000001
42
0.4142135623730534
10
-454.67699999999991
20
144.61150000000001
10
-454.67699999999991
20
131.61149999999998
42
0.4142135623730222
10
-454.17699999999996
20
131.11150000000004
10
-441.17700000000002
20
131.11149999999998
42
0.4142135623730534
10
-440.67700000000002
20
131.61149999999998
10
-440.67700000000002
20
144.61150000000001
42
0.4142135623730222
0
LWPOLYLINE
5
160
100
AcDbEntity
8
0
100
AcDbPolyline
90
8
70
1
43
0.0
10
-464.98950000000008
20
145.11150000000001
10
-477.98950000000002
20
145.11150000000001
42
0.4142135623730534
10
-478.48950000000002
20
144.61150000000001
10
-478.48950000000002
20
131.61149999999998
42
0.4142135623730222
10
-477.98950000000002
20
131.11150000000001
10
-464.98950000000008
20
131.11149999999998
42
0.4142135623730534
10
-464.48950000000013
20
131.61149999999998
10
-464.48950000000013
20
144.61150000000001
42
0.4142135623730222
0
LWPOLYLINE
5
161
100
AcDbEntity
8
0
100
AcDbPolyline
90
8
70
1
43
0.0
10
-464.98950000000008
20
164.16150000000002
10
-477.98950000000002
20
164.16150000000002
42
0.41421356237307422
10
-478.48950000000002
20
163.66150000000002
10
-478.48950000000002
20
150.66149999999999
42
0.4142135623730222
10
-477.98950000000002
20
150.16150000000005
10
-464.98950000000008
20
150.16149999999999
42
0.4142135623730534
10
-464.48950000000013
20
150.66149999999999
10
-464.48950000000013
20
163.66150000000002
42
0.41421356237303258
0
LWPOLYLINE
5
162
100
AcDbEntity
8
0
100
AcDbPolyline
90
8
70
1
43
0.0
10
-402.28949999999998
20
125.56150000000001
42
-0.41421356237311585
10
-401.78949999999998
20
126.0615
10
-388.78950000000003
20
126.0615
42
-0.41421356237310542
10
-388.28950000000009
20
125.56150000000001
10
-388.28950000000009
20
112.5615
42
-0.41421356237311585
10
-388.78950000000003
20
112.06150000000001
10
-401.78949999999998
20
112.06150000000001
42
-0.4142135623730222
10
-402.28949999999998
20
112.5615
0
LWPOLYLINE
5
163
100
AcDbEntity
8
0
100
AcDbPolyline
90
8
70
1
43
0.0
10
-360.21450000000004
20
145.11150000000001
10
-373.21449999999999
20
145.11150000000001
42
0.4142135623730534
10
-373.71449999999993
20
144.61150000000001
10
-373.71449999999993
20
131.61149999999998
42
0.41421356237312623
10
-373.21449999999999
20
131.11150000000001
10
-360.21450000000004
20
131.11149999999998
42
0.4142135623730534
10
-359.71449999999999
20
131.61149999999998
10
-359.71450000000004
20
144.61150000000001
42
0.41421356237312623
0
LWPOLYLINE
5
164
100
AcDbEntity
8
0
100
AcDbPolyline
90
8
70
1
43
0.0
10
-383.52699999999999
20
150.66149999999999
10
-383.52699999999999
20
163.66150000000002
42
0.41421356237307422
10
-384.02699999999993
20
164.16150000000002
10
-397.02699999999993
20
164.16150000000002
42
0.41421356237307422
10
-397.52699999999993
20
163.66150000000002
10
-397.52699999999993
20
150.66149999999999
42
0.4142135623730222
10
-397.02699999999993
20
150.16150000000005
10
-384.02699999999993
20
150.16149999999999
42
0.4142135623730534
0
LWPOLYLINE
5
165
100
AcDbEntity
8
0
100
AcDbPolyline
90
8
70
1
43
0.0
10
-374.50200000000001
20
183.21150000000003
10
-387.50200000000007
20
183.21150000000003
42
0.4142135623730534
10
-388.00200000000007
20
182.7115
10
-388.00200000000007
20
169.7115
42
0.4142135623730534
10
-387.50200000000007
20
169.2115
10
-374.50200000000001
20
169.2115
42
0.4142135623731783
10
-374.00199999999995
20
169.7115
10
-374.00199999999995
20
182.7115
42
0.41421356237313667
0
LWPOLYLINE
5
166
100
AcDbEntity
8
0
100
AcDbPolyline
90
8
70
1
43
0.0
10
-464.98950000000008
20
183.21149999999994
10
-477.98950000000002
20
183.21150000000003
42
0.4142135623730534
10
-478.48950000000002
20
182.7115
10
-478.48950000000002
20
169.7115
42
0.41421356237301177
10
-477.98950000000002
20
169.21150000000006
10
-464.98950000000008
20
169.2115
42
0.4142135623730534
10
-464.48950000000013
20
169.7115
10
-464.48950000000013
20
182.7115
42
0.41421356237301177
0
LWPOLYLINE
5
167
100
AcDbEntity
8
0
100
AcDbPolyline
90
8
70
1
43
0.0
10
-374.50200000000001
20
202.26150000000004
10
-416.07699999999994
20
202.26150000000004
42
0.4142135623730534
10
-416.57700000000006
20
201.76150000000001
10
-416.57699999999988
20
188.76150000000001
42
0.41421356237301177
10
-416.07699999999994
20
188.26149999999998
10
-374.50200000000001
20
188.26150000000001
42
0.41421356237313667
10
-374.00199999999995
20
188.76150000000001
10
-374.00199999999995
20
201.76150000000001
42
0.41421356237313667
0
ARC
5
168
100
AcDbEntity
8
0
100
AcDbCircle
10
-352.78575000000001
20
188.76149999999998
30
0
40
0.50000000000004263
210
0
220
-0
230
1
100
AcDbArc
50
0
51
90
0
LINE
5
169
100
AcDbEntity
8
0
100
AcDbLine
10
-352.78575000000001
20
189.26150000000004
30
0
11
-360.22375
21
189.26149999999996
31
0
0
ARC
5
170
100
AcDbEntity
8
0
100
AcDbCircle
10
-360.22374999999988
20
189.76150000000007
30
0
40
0.50000000000011369
210
0
220
0
230
1
100
AcDbArc
50
180
51
269.99999999998698
0
LINE
5
171
100
AcDbEntity
8
0
100
AcDbLine
10
-360.72375
20
189.76150000000001
30
0
11
-360.72375
21
203.76150000000001
31
0
0
ARC
5
172
100
AcDbEntity
8
0
100
AcDbCircle
10
-360.22374999999988
20
203.76150000000001
30
0
40
0.50000000000000711
210
0
220
0
230
1
100
AcDbArc
50
90.000000000013031
51
180
0
LINE
5
173
100
AcDbEntity
8
0
100
AcDbLine
10
-360.22375
20
204.26150000000004
30
0
11
-354.22375
21
204.26150000000001
31
0
0
ARC
5
174
100
AcDbEntity
8
0
100
AcDbCircle
10
-354.22375000000011
20
203.76150000000001
30
0
40
0.50000000000004263
210
0
220
0
230
1
100
AcDbArc
50
0
51
89.999999999986969
0
LINE
5
175
100
AcDbEntity
8
0
100
AcDbLine
10
-353.72375000000005
20
203.76150000000001
30
0
11
-353.72375000000005
21
202.7614999999999
31
0
0
ARC
5
176
100
AcDbEntity
8
0
100
AcDbCircle
10
-353.22374999999994
20
202.76149999999996
30
0
40
0.50000000000011369
210
0
220
0
230
1
100
AcDbArc
50
180
51
269.99999999998045
0
LINE
5
177
100
AcDbEntity
8
0
100
AcDbLine
10
-353.22375000000011
20
202.2614999999999
30
0
11
-337.34775000000002
21
202.26150000000015
31
0
0
ARC
5
178
100
AcDbEntity
8
0
100
AcDbCircle
10
-337.34775000000008
20
202.76149999999996
30
0
40
0.49999999999979394
210
-0
220
0
230
1
100
AcDbArc
50
270.00000000000648
51
360
0
LINE
5
179
100
AcDbEntity
8
0
100
AcDbLine
10
-336.84775000000002
20
202.7614999999999
30
0
11
-336.84775000000002
21
203.76150000000001
31
0
0
ARC
5
180
100
AcDbEntity
8
0
100
AcDbCircle
10
-336.34774999999996
20
203.76150000000001
30
0
40
0.50000000000000711
210
0
220
0
230
1
100
AcDbArc
50
90.000000000006523
51
180
0
LINE
5
181
100
AcDbEntity
8
0
100
AcDbLine
10
-336.34775000000002
20
204.26150000000004
30
0
11
-330.34774999999996
21
204.26150000000001
31
0
0
ARC
5
182
100
AcDbEntity
8
0
100
AcDbCircle
10
-330.34775000000002
20
203.76149999999996
30
0
40
0.50000000000004263
210
0
220
-0
230
1
100
AcDbArc
50
0
51
89.999999999993491
0
LINE
5
183
100
AcDbEntity
8
0
100
AcDbLine
10
-329.84775000000002
20
203.76150000000001
30
0
11
-329.84775000000002
21
189.76150000000001
31
0
0
ARC
5
184
100
AcDbEntity
8
0
100
AcDbCircle
10
-330.34775000000002
20
189.76149999999996
30
0
40
0.49999999999997158
210
0
220
0
230
1
100
AcDbArc
50
-89.999999999993491
51
0
0
LINE
5
185
100
AcDbEntity
8
0
100
AcDbLine
10
-330.34774999999996
20
189.26150000000001
30
0
11
-337.78575000000001
21
189.26150000000001
31
0
0
ARC
5
186
100
AcDbEntity
8
0
100
AcDbCircle
10
-337.78575000000001
20
188.76150000000001
30
0
40
0.49999999999997158
210
0
220
-0
230
1
100
AcDbArc
50
90
51
180
0
ARC
5
187
100
AcDbEntity
8
0
100
AcDbCircle
10
-338.78575000000001
20
188.76149999999998
30
0
40
0.49999999999997052
210
0
220
0
230
1
100
AcDbArc
50
-89.713519908752829
51
0
0
LINE
5
188
100
AcDbEntity
8
0
100
AcDbLine
10
-338.78324999999995
20
188.26150625003908
30
0
11
-351.78325000000001
21
188.26149999999998
31
0
0
ARC
5
189
100
AcDbEntity
8
0
100
AcDbCircle
10
-351.78324999999239
20
188.76150000299185
30
0
40
0.50000000299181824
210
0
220
0
230
1
100
AcDbArc
50
269.71351990958766
51
269.99999999912717
0
ARC
5
190
100
AcDbEntity
8
0
100
AcDbCircle
10
-351.78575000000001
20
188.7615000000001
30
0
40
0.49999999999997158
210
0
220
0
230
1
100
AcDbArc
50
180
51
269.99999999998698
0
LWPOLYLINE
5
191
100
AcDbEntity
8
0
100
AcDbPolyline
90
8
70
1
43
0.0
10
-331.6395
20
126.06150000000001
10
-344.6395
20
126.0615
42
0.41421356237311585
10
-345.1395
20
125.56150000000001
10
-345.13949999999994
20
112.5615
42
0.41421356237310542
10
-344.6395
20
112.0615
10
-331.6395
20
112.06150000000001
42
0.41421356237311585
10
-331.1395
20
112.5615
10
-331.1395
20
125.56150000000001
42
0.41421356237310542
0
LWPOLYLINE
5
192
100
AcDbEntity
8
0
100
AcDbPolyline
90
8
70
1
43
0.0
10
-255.43950000000001
20
126.0615
10
-268.43950000000001
20
126.0615
42
0.41421356237307422
10
-268.93950000000007
20
125.56150000000001
10
-268.93950000000007
20
112.5615
42
0.41421356237309503
10
-268.43950000000001
20
112.06150000000001
10
-255.43950000000001
20
112.06150000000001
42
0.41421356237304302
10
-254.93950000000001
20
112.5615
10
-254.93950000000001
20
125.56150000000001
42
0.4142135623730846
0
LWPOLYLINE
5
193
100
AcDbEntity
8
0
100
AcDbPolyline
90
8
70
1
43
0.0
10
-221.31450000000001
20
144.61150000000001
42
-0.4142135623730534
10
-220.81450000000001
20
145.11150000000001
10
-207.81450000000001
20
145.11150000000004
42
-0.41421356237310542
10
-207.31449999999998
20
144.61150000000001
10
-207.31450000000001
20
131.61149999999998
42
-0.4142135623730222
10
-207.81450000000001
20
131.11149999999998
10
-220.81450000000001
20
131.11149999999998
42
-0.41421356237313667
10
-221.31450000000001
20
131.61149999999998
0
LWPOLYLINE
5
194
100
AcDbEntity
8
0
100
AcDbPolyline
90
8
70
1
43
0.0
10
-283.5145
20
131.61149999999998
10
-283.5145
20
144.61150000000001
42
0.41421356237313667
10
-284.0145
20
145.11150000000001
10
-297.0145
20
145.11150000000001
42
0.4142135623730222
10
-297.5145
20
144.61150000000001
10
-297.5145
20
131.61149999999998
42
0.41421356237310542
10
-297.0145
20
131.11149999999998
10
-284.0145
20
131.11149999999998
42
0.4142135623730534
0
LWPOLYLINE
5
195
100
AcDbEntity
8
0
100
AcDbPolyline
90
8
70
1
43
0.0
10
-231.62700000000001
20
164.16150000000002
10
-244.62700000000001
20
164.16150000000002
42
0.4142135623730534
10
-245.12700000000001
20
163.66150000000002
10
-245.12700000000001
20
150.66149999999999
42
0.41421356237313667
10
-244.62700000000001
20
150.16149999999999
10
-231.62700000000001
20
150.16149999999999
42
0.4142135623730222
10
-231.12700000000001
20
150.66149999999999
10
-231.12700000000001
20
163.66150000000002
42
0.41421356237313667
0
LWPOLYLINE
5
196
100
AcDbEntity
8
0
100
AcDbPolyline
90
8
70
1
43
0.0
10
-260.202
20
183.21150000000003
10
-273.202
20
183.21150000000003
42
0.41421356237313667
10
-273.702
20
182.7115
10
-273.702
20
169.7115
42
0.41421356237313667
10
-273.202
20
169.2115
10
-260.202
20
169.2115
42
0.41421356237299095
10
-259.702
20
169.7115
10
-259.702
20
182.7115
42
0.41421356237313667
0
LWPOLYLINE
5
197
100
AcDbEntity
8
0
100
AcDbPolyline
90
22
70
1
43
0.0
10
-282.78375
20
204.26149999999996
42
-0.41421356237311585
10
-282.28375000000005
20
203.76150000000001
10
-282.28375000000005
20
202.7614999999999
42
0.41421356237307422
10
-281.78375
20
202.2614999999999
10
-266.40775000000008
20
202.2614999999999
42
0.41421356237307422
10
-265.90775000000002
20
202.7614999999999
10
-265.90775000000002
20
203.76150000000001
42
-0.41421356237313667
10
-265.40775000000002
20
204.26150000000004
10
-254.18325000000004
20
204.26150000000004
42
-0.41421356237313667
10
-253.68325000000002
20
203.76150000000001
10
-253.68325000000002
20
189.76150000000004
42
-0.41421356237313667
10
-254.18325000000004
20
189.26150000000004
10
-266.34575000000001
20
189.26150000000001
42
0.41421356237309503
10
-266.84575000000001
20
188.76150000000001
42
-0.41421356237313667
10
-267.34575000000001
20
188.26150000000001
10
-280.34575000000007
20
188.26150000000001
42
-0.41421356237313667
10
-280.84575000000007
20
188.76150000000001
42
0.4142135623730534
10
-281.34575000000001
20
189.26150000000001
10
-288.78375
20
189.2615000000001
42
-0.41421356237311585
10
-289.28375
20
189.76150000000004
10
-289.28375000000005
20
203.76150000000001
42
-0.41421356237313667
10
-288.78375
20
204.26150000000004
0
LWPOLYLINE
5
198
100
AcDbEntity
8
0
100
AcDbPolyline
90
8
70
1
43
0.0
10
-186.38325000000003
20
164.16150000000002
10
-199.38324999999998
20
164.16150000000002
42
0.41421356237299095
10
-199.88325
20
163.66150000000002
10
-199.88325
20
150.66149999999999
42
0.41421356237310542
10
-199.38324999999998
20
150.16149999999999
10
-186.38325000000003
20
150.16149999999999
42
0.4142135623730222
10
-185.88324999999998
20
150.66149999999999
10
-185.88325
20
163.66150000000002
42
0.41421356237313667
0
LWPOLYLINE
5
199
100
AcDbEntity
8
0
100
AcDbPolyline
90
8
70
1
43
0.0
10
-181.12075000000002
20
188.76150000000001
10
-181.12075000000002
20
201.76150000000001
42
0.41421356237313667
10
-181.62075000000002
20
202.26150000000004
10
-194.62075000000002
20
202.26150000000001
42
0.41421356237313667
10
-195.12075000000004
20
201.76150000000001
10
-195.12075000000004
20
188.76150000000001
42
0.41421356237313667
10
-194.62075000000002
20
188.26149999999998
10
-181.62075000000002
20
188.26150000000001
42
0.41421356237313667
0
LWPOLYLINE
5
200
100
AcDbEntity
8
0
100
AcDbPolyline
90
8
70
1
43
0.0
10
-141.1395
20
126.0615
10
-154.13950000000003
20
126.0615
42
0.41421356237309503
10
-154.63950000000003
20
125.56150000000001
10
-154.63950000000003
20
112.5615
42
0.4142135623730534
10
-154.13950000000003
20
112.0615
10
-141.1395
20
112.06150000000001
42
0.41421356237309503
10
-140.63950000000003
20
112.5615
10
-140.63950000000003
20
125.56150000000001
42
0.41421356237309503
0
LWPOLYLINE
5
201
100
AcDbEntity
8
0
100
AcDbPolyline
90
24
70
1
43
0.0
10
-140.63950000000003
20
188.76150000000001
10
-140.63950000000003
20
201.76150000000007
42
0.41421356237304302
10
-141.1395
20
202.26150000000004
10
-141.22649999999999
20
202.26150000000004
42
-0.41421356237311585
10
-141.72649999999999
20
202.76150000000007
10
-141.72650000000002
20
203.76150000000001
42
0.41421356237304302
10
-142.22649999999999
20
204.26150000000007
10
-148.22649999999999
20
204.26150000000004
42
0.41421356237310542
10
-148.72649999999999
20
203.76150000000001
10
-148.72649999999999
20
202.76150000000007
42
-0.41421356237311585
10
-149.22649999999999
20
202.26150000000004
10
-165.10249999999999
20
202.26150000000007
42
-0.41421356237309503
10
-165.60249999999999
20
202.76150000000007
10
-165.60249999999999
20
203.76150000000001
42
0.41421356237313667
10
-166.10250000000002
20
204.26150000000007
10
-172.10250000000002
20
204.26150000000004
42
0.41421356237313667
10
-172.60249999999999
20
203.76150000000001
10
-172.60249999999999
20
202.76150000000007
42
-0.41421356237309503
10
-173.10250000000002
20
202.26150000000004
10
-173.18950000000001
20
202.26150000000007
42
0.41421356237313667
10
-173.68950000000001
20
201.76150000000007
10
-173.68950000000001
20
188.76150000000001
42
0.41421356237313667
10
-173.18950000000001
20
188.26150000000007
10
-141.1395
20
188.26150000000007
42
0.41421356237307422
0
LWPOLYLINE
5
202
100
AcDbEntity
8
0
100
AcDbPolyline
90
8
70
1
43
0.0
10
-122.08950000000002
20
126.0615
10
-135.08950000000002
20
126.0615
42
0.41421356237309503
10
-135.58949999999999
20
125.56150000000001
10
-135.58949999999999
20
112.5615
42
0.41421356237309503
10
-135.08950000000002
20
112.06150000000001
10
-122.08950000000002
20
112.06150000000001
42
0.41421356237310542
10
-121.58950000000002
20
112.5615
10
-121.58950000000002
20
125.56150000000001
42
0.41421356237310542
0
LWPOLYLINE
5
203
100
AcDbEntity
8
0
100
AcDbPolyline
90
8
70
1
43
0.0
10
-198.28949999999998
20
107.0115
10
-211.2895
20
107.0115
42
0.41421356237313667
10
-211.7895
20
106.51150000000001
10
-211.7895
20
93.511500000000012
42
0.41421356237313667
10
-211.2895
20
93.011499999999998
10
-198.28949999999998
20
93.011499999999998
42
0.41421356237310542
10
-197.78950000000003
20
93.511500000000012
10
-197.78949999999998
20
106.51150000000001
42
0.41421356237310542
0
LWPOLYLINE
5
204
100
AcDbEntity
8
0
100
AcDbPolyline
90
8
70
1
43
0.0
10
-135.58950000000002
20
107.51150000000001
42
-0.4142135623730534
10
-135.08950000000002
20
108.01150000000001
10
-122.08950000000002
20
108.0115
42
-0.41421356237310542
10
-121.58950000000002
20
107.51150000000001
10
-121.58950000000002
20
92.511500000000012
42
-0.41421356237307422
10
-122.08950000000002
20
92.011499999999998
10
-135.08950000000002
20
92.011499999999998
42
-0.4142135623730534
10
-135.58950000000002
20
92.511500000000012
0
LWPOLYLINE
5
205
100
AcDbEntity
8
0
100
AcDbPolyline
90
8
70
1
43
0.0
10
-255.43950000000001
20
107.01150000000001
10
-268.43950000000001
20
107.0115
42
0.41421356237313667
10
-268.93950000000007
20
106.51150000000001
10
-268.93950000000007
20
93.511500000000012
42
0.41421356237313667
10
-268.43950000000001
20
93.011499999999998
10
-255.43950000000001
20
93.011499999999998
42
0.41421356237310542
10
-254.93950000000001
20
93.511500000000012
10
-254.93950000000001
20
106.51150000000001
42
0.41421356237310542
0
LWPOLYLINE
5
206
100
AcDbEntity
8
0
100
AcDbPolyline
90
8
70
1
43
0.0
10
-331.1395
20
93.511500000000012
10
-331.1395
20
106.51150000000001
42
0.41421356237312623
10
-331.6395
20
107.0115
10
-344.6395
20
107.01150000000001
42
0.4142135623730534
10
-345.1395
20
106.51150000000001
10
-345.13949999999994
20
93.511500000000012
42
0.41421356237312623
10
-344.6395
20
93.011499999999998
10
-331.6395
20
93.011499999999998
42
0.4142135623730534
0
LWPOLYLINE
5
207
100
AcDbEntity
8
0
100
AcDbPolyline
90
8
70
1
43
0.0
10
-407.83950000000004
20
107.01149999999998
10
-420.83950000000004
20
107.0115
42
0.4142135623730534
10
-421.33949999999999
20
106.51150000000001
10
-421.33949999999999
20
93.511500000000012
42
0.4142135623730222
10
-420.83950000000004
20
93.011500000000041
10
-407.83950000000004
20
93.011499999999998
42
0.4142135623730534
10
-407.33950000000004
20
93.511500000000012
10
-407.33950000000004
20
106.51150000000001
42
0.4142135623730222
0
LWPOLYLINE
5
208
100
AcDbEntity
8
0
100
AcDbPolyline
90
8
70
1
43
0.0
10
-464.98950000000008
20
108.0115
10
-477.98950000000002
20
108.0115
42
0.4142135623730534
10
-478.48950000000002
20
107.51150000000001
10
-478.48950000000002
20
92.511500000000012
42
0.4142135623730222
10
-477.98950000000002
20
92.011499999999998
10
-464.98950000000008
20
92.011499999999998
42
0.4142135623730534
10
-464.48950000000013
20
92.511500000000012
10
-464.48950000000013
20
107.51150000000001
42
0.4142135623730222
0
LWPOLYLINE
5
209
100
AcDbEntity
8
0
100
AcDbPolyline
90
8
70
1
43
0.0
10
-388.78950000000003
20
107.01150000000001
10
-401.78949999999998
20
107.0115
42
0.4142135623730534
10
-402.28949999999998
20
106.51150000000001
10
-402.28949999999998
20
93.511500000000012
42
0.4142135623730222
10
-401.78949999999998
20
93.011500000000041
10
-388.78950000000003
20
93.011499999999998
42
0.4142135623730534
10
-388.28950000000009
20
93.511500000000012
10
-388.28950000000009
20
106.51150000000001
42
0.41421356237312623
0
LWPOLYLINE
5
210
100
AcDbEntity
8
0
100
AcDbPolyline
90
8
70
1
43
0.0
10
-312.58950000000004
20
107.0115
10
-325.58950000000004
20
107.0115
42
0.4142135623731783
10
-326.08950000000004
20
106.51150000000001
10
-326.08950000000004
20
93.511500000000012
42
0.41421356237313667
10
-325.58950000000004
20
93.011499999999998
10
-312.58950000000004
20
93.011499999999998
42
0.41421356237313667
10
-312.08950000000004
20
93.511500000000012
10
-312.08950000000004
20
106.51150000000001
42
0.41421356237313667
0
LWPOLYLINE
5
211
100
AcDbEntity
8
0
100
AcDbPolyline
90
8
70
1
43
0.0
10
-236.3895
20
107.01150000000001
10
-249.3895
20
107.0115
42
0.41421356237310542
10
-249.8895
20
106.51150000000001
10
-249.8895
20
93.511500000000012
42
0.41421356237310542
10
-249.3895
20
93.011499999999998
10
-236.3895
20
93.011499999999998
42
0.41421356237310542
10
-235.8895
20
93.511500000000012
10
-235.8895
20
106.51150000000001
42
0.41421356237310542
0
LWPOLYLINE
5
212
100
AcDbEntity
8
0
100
AcDbPolyline
90
8
70
1
43
0.0
10
-141.1395
20
108.0115
10
-154.13950000000003
20
108.0115
42
0.4142135623730534
10
-154.63950000000003
20
107.51150000000001
10
-154.63950000000003
20
92.511500000000012
42
0.4142135623730534
10
-154.13950000000003
20
92.011499999999998
10
-141.1395
20
92.011499999999998
42
0.4142135623730534
10
-140.63950000000003
20
92.511500000000012
10
-140.63950000000003
20
107.51150000000001
42
0.41421356237309503
0
LWPOLYLINE
5
213
100
AcDbEntity
8
0
100
AcDbPolyline
90
26
70
1
43
0.0
10
-118.03950000000002
20
194.17350000000005
42
-0.41421356237301177
10
-118.5395
20
194.67349999999996
10
-118.5395
20
200.67349999999999
42
-0.41421356237304302
10
-118.03950000000002
20
201.17349999999999
10
-117.03950010302782
20
201.17350000000002
42
0.41421321552213825
10
-116.53950010302815
20
201.67349940788827
10
-116.53950000000003
20
201.76050000000004
42
-0.41427920120677991
10
-116.0395
20
202.26149999999996
10
-103.0395
20
202.26149999999978
42
-0.41421321552208623
10
-102.53950000000053
20
201.76150059211176
10
-102.53949989697188
20
201.67850000000001
10
-102.53949989697188
20
201.67449940788828
10
-102.53949999999998
20
169.7115
42
-0.4142135623730222
10
-103.0395
20
169.2115
10
-116.0395
20
169.21150000000009
42
-0.41400641378462455
10
-116.53949999999951
20
169.71049940788828
10
-116.53950010302815
20
169.79349999999999
42
0.41421356237309503
10
-117.03950010302816
20
170.29349999999999
10
-118.0395
20
170.29349999999997
42
-0.4142135623730534
10
-118.5395
20
170.79349999999999
10
-118.53949999999999
20
176.79349999999999
42
-0.41421356237309503
10
-118.03950000000002
20
177.29349999999997
10
-117.03950010302782
20
177.29349999999997
42
0.41421321552213825
10
-116.53950010302815
20
177.79349940788831
10
-116.53950010302782
20
193.67350000000002
42
0.41421390267729102
10
-117.03950068396333
20
194.17349999999968
0
LWPOLYLINE
5
214
100
AcDbEntity
8
0
100
AcDbPolyline
90
8
70
1
43
0.0
10
-122.08950000000002
20
145.11150000000001
10
-135.08950000000002
20
145.11150000000001
42
0.41421356237309503
10
-135.58950000000004
20
144.61150000000001
10
-135.58950000000004
20
131.61149999999998
42
0.41421356237309503
10
-135.08950000000002
20
131.11149999999998
10
-122.08950000000002
20
131.11149999999998
42
0.41421356237309503
10
-121.58950000000002
20
131.61149999999998
10
-121.58950000000002
20
144.61150000000001
42
0.41421356237309503
0
LWPOLYLINE
5
215
100
AcDbEntity
8
0
100
AcDbPolyline
90
8
70
1
43
0.0
10
-140.63950000000003
20
169.7115
10
-140.63950000000003
20
182.7115
42
0.41421356237304302
10
-141.1395
20
183.21150000000003
10
-154.13950000000003
20
183.21149999999994
42
0.41421356237307422
10
-154.6395
20
182.7115
10
-154.6395
20
169.7115
42
0.41421356237307422
10
-154.13950000000003
20
169.2115
10
-141.1395
20
169.2115
42
0.41421356237304302
0
LWPOLYLINE
5
216
100
AcDbEntity
8
0
100
AcDbPolyline
90
8
70
1
43
0.0
10
-159.68950000000001
20
112.5615
10
-159.68950000000001
20
125.56150000000001
42
0.4142135623730846
10
-160.18950000000001
20
126.06150000000001
10
-173.18950000000001
20
126.0615
42
0.41421356237304302
10
-173.68950000000001
20
125.56150000000001
10
-173.68950000000001
20
112.5615
42
0.4142135623730846
10
-173.18950000000001
20
112.0615
10
-160.18950000000001
20
112.06150000000001
42
0.41421356237311585
0
LWPOLYLINE
5
217
100
AcDbEntity
8
0
100
AcDbPolyline
90
8
70
1
43
0.0
10
-218.93325000000002
20
201.76150000000001
42
-0.41421356237313667
10
-218.43324999999999
20
202.26150000000001
10
-205.43325000000004
20
202.26150000000001
42
-0.41421356237313667
10
-204.93325000000002
20
201.76150000000001
10
-204.93325000000002
20
188.76150000000001
42
-0.41421356237313667
10
-205.43325000000004
20
188.26150000000001
10
-218.43324999999999
20
188.26150000000001
42
-0.41421356237313667
10
-218.93325000000002
20
188.76150000000001
0
LWPOLYLINE
5
218
100
AcDbEntity
8
0
100
AcDbPolyline
90
8
70
1
43
0.0
10
-184.00200000000001
20
145.11150000000001
10
-197.00200000000001
20
145.11150000000001
42
0.4142135623730222
10
-197.50200000000001
20
144.61150000000001
10
-197.50200000000004
20
131.61149999999998
42
0.41421356237310542
10
-197.00200000000001
20
131.11150000000001
10
-184.00200000000001
20
131.11149999999998
42
0.4142135623730534
10
-183.50200000000001
20
131.61149999999998
10
-183.50200000000001
20
144.61150000000001
42
0.41421356237313667
0
LWPOLYLINE
5
219
100
AcDbEntity
8
0
100
AcDbPolyline
90
8
70
1
43
0.0
10
-300.68325000000004
20
202.26150000000004
10
-318.44575000000003
20
202.26150000000004
42
0.41421356237313667
10
-318.94575000000003
20
201.76150000000001
10
-318.94575000000003
20
188.76150000000001
42
0.41421356237313667
10
-318.44575000000003
20
188.26149999999998
10
-300.68325000000004
20
188.26150000000001
42
0.41421356237313667
10
-300.18324999999999
20
188.76150000000001
10
-300.18324999999999
20
201.76150000000001
42
0.41421356237313667
0
LWPOLYLINE
5
220
100
AcDbEntity
8
0
100
AcDbPolyline
90
8
70
1
43
0.0
10
-241.15200000000002
20
183.21150000000003
10
-254.15200000000002
20
183.21150000000003
42
0.41421356237313667
10
-254.65200000000004
20
182.7115
10
-254.65200000000004
20
169.7115
42
0.41421356237313667
10
-254.15200000000002
20
169.21149999999997
10
-241.15200000000002
20
169.2115
42
0.41421356237297013
10
-240.65200000000002
20
169.7115
10
-240.65200000000002
20
182.7115
42
0.41421356237313667
0
LWPOLYLINE
5
221
100
AcDbEntity
8
0
100
AcDbPolyline
90
8
70
1
43
0.0
10
-250.17700000000002
20
150.66149999999999
10
-250.17700000000002
20
163.66150000000002
42
0.41421356237313667
10
-250.67700000000002
20
164.16150000000002
10
-263.67700000000002
20
164.16150000000002
42
0.4142135623730534
10
-264.17700000000002
20
163.66150000000002
10
-264.17700000000002
20
150.66149999999999
42
0.41421356237313667
10
-263.67700000000002
20
150.16149999999999
10
-250.67700000000002
20
150.16149999999999
42
0.4142135623730222
0
LWPOLYLINE
5
222
100
AcDbEntity
8
0
100
AcDbPolyline
90
8
70
1
43
0.0
10
-264.96450000000004
20
145.11150000000001
10
-277.96450000000004
20
145.11150000000001
42
0.4142135623730534
10
-278.46450000000004
20
144.61150000000001
10
-278.46450000000004
20
131.61149999999998
42
0.41421356237313667
10
-277.96450000000004
20
131.11150000000001
10
-264.96450000000004
20
131.11149999999998
42
0.4142135623730222
10
-264.46450000000004
20
131.61149999999998
10
-264.46450000000004
20
144.61150000000001
42
0.41421356237310542
0
LWPOLYLINE
5
223
100
AcDbEntity
8
0
100
AcDbPolyline
90
8
70
1
43
0.0
10
-198.28949999999998
20
126.0615
10
-211.2895
20
126.0615
42
0.41421356237307422
10
-211.7895
20
125.56150000000001
10
-211.7895
20
112.5615
42
0.41421356237309503
10
-211.2895
20
112.0615
10
-198.28949999999998
20
112.06150000000001
42
0.41421356237304302
10
-197.78950000000003
20
112.5615
10
-197.78949999999998
20
125.56150000000001
42
0.4142135623730846
0
LWPOLYLINE
5
224
100
AcDbEntity
8
0
100
AcDbPolyline
90
8
70
1
43
0.0
10
-274.48950000000002
20
126.0615
10
-287.48950000000002
20
126.0615
42
0.41421356237307422
10
-287.98950000000002
20
125.56150000000001
10
-287.98950000000002
20
112.5615
42
0.41421356237309503
10
-287.48950000000002
20
112.06150000000001
10
-274.48950000000002
20
112.06150000000001
42
0.41421356237304302
10
-273.98950000000002
20
112.5615
10
-273.98950000000002
20
125.56150000000001
42
0.4142135623730846
0
LWPOLYLINE
5
225
100
AcDbEntity
8
0
100
AcDbPolyline
90
8
70
1
43
0.0
10
-321.61450000000002
20
131.61149999999998
10
-321.61450000000002
20
144.61150000000001
42
0.41421356237312623
10
-322.11450000000002
20
145.11150000000001
10
-335.11450000000002
20
145.11150000000001
42
0.4142135623731783
10
-335.61450000000008
20
144.61150000000001
10
-335.61450000000008
20
131.61149999999998
42
0.41421356237313667
10
-335.11450000000002
20
131.11150000000001
10
-322.11450000000002
20
131.11149999999998
42
0.4142135623730534
0
LWPOLYLINE
5
226
100
AcDbEntity
8
0
100
AcDbPolyline
90
8
70
1
43
0.0
10
-317.35200000000003
20
183.21150000000003
10
-330.35200000000003
20
183.21150000000003
42
0.4142135623730534
10
-330.85199999999998
20
182.7115
10
-330.85199999999998
20
169.7115
42
0.4142135623730534
10
-330.35200000000003
20
169.21149999999997
10
-317.35200000000003
20
169.2115
42
0.41421356237299095
10
-316.85200000000003
20
169.7115
10
-316.85200000000003
20
182.7115
42
0.41421356237313667
0
LWPOLYLINE
5
227
100
AcDbEntity
8
0
100
AcDbPolyline
90
8
70
1
43
0.0
10
-426.88950000000006
20
202.26150000000004
10
-439.8895
20
202.26150000000004
42
0.4142135623730534
10
-440.3895
20
201.76150000000001
10
-440.3895
20
188.76150000000001
42
0.41421356237301177
10
-439.8895
20
188.26150000000007
10
-426.88950000000006
20
188.26150000000001
42
0.4142135623730534
10
-426.38950000000011
20
188.76150000000001
10
-426.38950000000011
20
201.76150000000001
42
0.41421356237301177
0
LWPOLYLINE
5
228
100
AcDbEntity
8
0
100
AcDbPolyline
90
8
70
1
43
0.0
10
-445.93950000000007
20
183.21149999999994
10
-458.93950000000007
20
183.21150000000003
42
0.4142135623730534
10
-459.43950000000001
20
182.7115
10
-459.43950000000001
20
169.7115
42
0.41421356237301177
10
-458.93950000000007
20
169.2115
10
-445.93950000000007
20
169.2115
42
0.4142135623730534
10
-445.43950000000007
20
169.7115
10
-445.43950000000007
20
182.7115
42
0.41421356237301177
0
LWPOLYLINE
5
229
100
AcDbEntity
8
0
100
AcDbPolyline
90
8
70
1
43
0.0
10
-354.952
20
169.7115
10
-354.952
20
182.7115
42
0.41421356237313667
10
-355.452
20
183.21150000000003
10
-368.45200000000006
20
183.2115
42
0.4142135623730534
10
-368.952
20
182.7115
10
-368.952
20
169.7115
42
0.4142135623730534
10
-368.45200000000006
20
169.2115
10
-355.452
20
169.2115
42
0.4142135623731783
0
LWPOLYLINE
5
230
100
AcDbEntity
8
0
100
AcDbPolyline
90
8
70
1
43
0.0
10
-403.077
20
164.16149999999999
10
-416.07699999999994
20
164.16150000000002
42
0.41421356237307422
10
-416.57699999999988
20
163.66150000000002
10
-416.57699999999988
20
150.66149999999999
42
0.4142135623730222
10
-416.07699999999994
20
150.16150000000005
10
-403.077
20
150.16149999999999
42
0.4142135623730534
10
-402.577
20
150.66149999999999
10
-402.577
20
163.66150000000002
42
0.41421356237303258
0
LWPOLYLINE
5
231
100
AcDbEntity
8
0
100
AcDbPolyline
90
8
70
1
43
0.0
10
-341.16449999999998
20
145.11150000000001
10
-354.16450000000003
20
145.11150000000001
42
0.4142135623731783
10
-354.66450000000009
20
144.61150000000001
10
-354.66450000000009
20
131.61149999999998
42
0.41421356237313667
10
-354.16450000000003
20
131.11150000000001
10
-341.16449999999998
20
131.11149999999998
42
0.4142135623730534
10
-340.66450000000003
20
131.61149999999998
10
-340.66450000000003
20
144.61150000000001
42
0.41421356237312623
0
LWPOLYLINE
5
232
100
AcDbEntity
8
0
100
AcDbPolyline
90
8
70
1
43
0.0
10
-407.83950000000004
20
126.06149999999998
10
-420.83950000000004
20
126.0615
42
0.41421356237311585
10
-421.33949999999999
20
125.56150000000001
10
-421.33949999999999
20
112.5615
42
0.4142135623730222
10
-420.83950000000004
20
112.06150000000001
10
-407.83950000000004
20
112.06150000000001
42
0.41421356237311585
10
-407.33950000000004
20
112.5615
10
-407.33950000000004
20
125.56150000000001
42
0.4142135623730222
0
LINE
5
233
100
AcDbEntity
8
0
100
AcDbLine
10
-448.03575000000012
20
151.16149999999999
30
0
11
-455.47125000000005
21
151.16149999999999
31
0
0
ARC
5
234
100
AcDbEntity
8
0
100
AcDbCircle
10
-455.47125
20
151.66150000000005
30
0
40
0.50000000000004263
210
0
220
0
230
1
100
AcDbArc
50
180
51
269.99999999999346
0
LINE
5
235
100
AcDbEntity
8
0
100
AcDbLine
10
-455.97125000000005
20
151.66149999999999
30
0
11
-455.97125000000005
21
165.66149999999999
31
0
0
ARC
5
236
100
AcDbEntity
8
0
100
AcDbCircle
10
-455.47125
20
165.66149999999999
30
0
40
0.50000000000000711
210
0
220
0
230
1
100
AcDbArc
50
90.000000000006523
51
180
0
LINE
5
237
100
AcDbEntity
8
0
100
AcDbLine
10
-455.47125000000005
20
166.16150000000002
30
0
11
-449.47375000000011
21
166.16149999999999
31
0
0
ARC
5
238
100
AcDbEntity
8
0
100
AcDbCircle
10
-449.47375000000017
20
165.66149999999993
30
0
40
0.50000000000004263
210
0
220
-0
230
1
100
AcDbArc
50
0
51
89.999999999993491
0
LINE
5
239
100
AcDbEntity
8
0
100
AcDbLine
10
-448.97375000000011
20
165.66149999999999
30
0
11
-448.97375000000011
21
164.66149999999988
31
0
0
ARC
5
240
100
AcDbEntity
8
0
100
AcDbCircle
10
-448.47375
20
164.66149999999993
30
0
40
0.50000000000011369
210
0
220
0
230
1
100
AcDbArc
50
180
51
269.99999999999346
0
LINE
5
241
100
AcDbEntity
8
0
100
AcDbLine
10
-448.47375000000005
20
164.16149999999982
30
0
11
-432.59775000000002
21
164.16149999999988
31
0
0
ARC
5
242
100
AcDbEntity
8
0
100
AcDbCircle
10
-432.59775000000002
20
164.66149999999993
30
0
40
0.50000000000004263
210
-0
220
0
230
1
100
AcDbArc
50
270
51
360
0
LINE
5
243
100
AcDbEntity
8
0
100
AcDbLine
10
-432.09775000000002
20
164.66149999999988
30
0
11
-432.09775000000008
21
165.66149999999999
31
0
0
ARC
5
244
100
AcDbEntity
8
0
100
AcDbCircle
10
-431.59775000000002
20
165.66149999999999
30
0
40
0.50000000000000711
210
0
220
0
230
1
100
AcDbArc
50
90.000000000013031
51
180
0
ARC
5
245
100
AcDbEntity
8
0
100
AcDbCircle
10
-431.59524999999257
20
165.66149999710768
30
0
40
0.50000000289234237
210
0
220
0
230
1
100
AcDbArc
50
90.000000000853305
51
90.286476509485993
0
LINE
5
246
100
AcDbEntity
8
0
100
AcDbLine
10
-431.59525000000002
20
166.16150000000002
30
0
11
-425.59775000000002
21
166.16149999999999
31
0
0
ARC
5
247
100
AcDbEntity
8
0
100
AcDbCircle
10
-425.59775000000741
20
165.66149999715032
30
0
40
0.50000000284967416
210
0
220
-0
230
1
100
AcDbArc
50
89.71351990955182
51
89.999999999153218
0
ARC
5
248
100
AcDbEntity
8
0
100
AcDbCircle
10
-425.59525000000014
20
165.66149999999993
30
0
40
0.50000000000011369
210
0
220
-0
230
1
100
AcDbArc
50
0
51
89.999999999993491
0
LINE
5
249
100
AcDbEntity
8
0
100
AcDbLine
10
-425.09525000000002
20
165.66149999999999
30
0
11
-425.09525000000008
21
151.66149999999999
31
0
0
ARC
5
250
100
AcDbEntity
8
0
100
AcDbCircle
10
-425.59525000000014
20
151.66149999999999
30
0
40
0.50000000000000711
210
0
220
0
230
1
100
AcDbArc
50
-89.999999999993491
51
0
0
LINE
5
251
100
AcDbEntity
8
0
100
AcDbLine
10
-425.59525000000008
20
151.16149999999999
30
0
11
-433.03575000000012
21
151.16149999999999
31
0
0
ARC
5
252
100
AcDbEntity
8
0
100
AcDbCircle
10
-433.03575000000012
20
150.66149999999999
30
0
40
0.49999999999998934
210
0
220
-0
230
1
100
AcDbArc
50
90
51
180
0
ARC
5
253
100
AcDbEntity
8
0
100
AcDbCircle
10
-434.03575000000001
20
150.66149999999996
30
0
40
0.49999999999998934
210
0
220
0
230
1
100
AcDbArc
50
-90
51
0
0
LINE
5
254
100
AcDbEntity
8
0
100
AcDbLine
10
-434.03575000000001
20
150.16149999999999
30
0
11
-447.03575000000012
21
150.16149999999999
31
0
0
ARC
5
255
100
AcDbEntity
8
0
100
AcDbCircle
10
-447.03575000000006
20
150.66150000000005
30
0
40
0.50000000000004263
210
0
220
0
230
1
100
AcDbArc
50
180
51
269.99999999999346
0
ARC
5
256
100
AcDbEntity
8
0
100
AcDbCircle
10
-448.03575000000012
20
150.66149999999996
30
0
40
0.49999999999997158
210
0
220
-0
230
1
100
AcDbArc
50
0
51
90
0
LWPOLYLINE
5
257
100
AcDbEntity
8
0
100
AcDbPolyline
90
8
70
1
43
0.0
10
-122.08950000000002
20
202.26150000000004
10
-135.08950000000002
20
202.26150000000004
42
0.4142135623730846
10
-135.58950000000002
20
201.76150000000001
10
-135.58949999999999
20
188.76150000000001
42
0.41421356237304302
10
-135.08950000000002
20
188.26149999999998
10
-122.08950000000002
20
188.26150000000001
42
0.41421356237310542
10
-121.58950000000002
20
188.76150000000001
10
-121.58950000000002
20
201.76150000000001
42
0.4142135623730222
0
LWPOLYLINE
5
258
100
AcDbEntity
8
0
100
AcDbPolyline
90
8
70
1
43
0.0
10
-87.547481249602043
20
80.985785751164201
42
-0.41421356237310719
10
-90.547481249602058
20
77.985785751164144
10
-490.4809782135344
20
77.985785751164443
42
-0.4142135623730846
10
-493.48097821353434
20
80.985785751164457
10
-493.48097821353406
20
214.25950919054225
42
-0.41421356237310542
10
-490.48097821353406
20
217.25950919054227
10
-90.547481249603109
20
217.25950919054227
42
-0.41421356237309681
10
-87.547481249603038
20
214.2595091905423
0
ENDSEC
0
SECTION
2
OBJECTS
0
DICTIONARY
5
C
100
AcDbDictionary
3
ACAD_GROUP
350
D
3
ACAD_MLINESTYLE
350
17
0
DICTIONARY
5
D
100
AcDbDictionary
0
DICTIONARY
5
1A
330
C
100
AcDbDictionary
0
DICTIONARY
5
17
100
AcDbDictionary
0
ENDSEC
0
EOF
