0
SECTION
2
HEADER
9
$INSUNITS
70
4
9
$ACADVER
1
AC1014
9
$HANDSEED
5
FFFF
0
ENDSEC
0
SECTION
2
TABLES
0
TABLE
2
VPORT
5
8
100
AcDbSymbolTable
0
ENDTAB
0
TABLE
2
LTYPE
5
5
100
AcDbSymbolTable
0
LTYPE
5
14
100
AcDbSymbolTableRecord
100
AcDbLinetypeTableRecord
2
BYBLOCK
70
0
0
LTYPE
5
15
100
AcDbSymbolTableRecord
100
AcDbLinetypeTableRecord
2
BYLAYER
70
0
0
ENDTAB
0
TABLE
2
LAYER
5
2
100
AcDbSymbolTable
70
2
0
LAYER
5
50
100
AcDbSymbolTableRecord
100
AcDbLayerTableRecord
2
0
70
0
6
CONTINUOUS
0
ENDTAB
0
TABLE
2
STYLE
5
3
100
AcDbSymbolTable
70
1
0
STYLE
5
11
100
AcDbSymbolTableRecord
100
AcDbTextStyleTableRecord
2
STANDARD
70
0
0
ENDTAB
0
TABLE
2
VIEW
5
6
100
AcDbSymbolTable
70
0
0
ENDTAB
0
TABLE
2
UCS
5
7
100
AcDbSymbolTable
70
0
0
ENDTAB
0
TABLE
2
APPID
5
9
100
AcDbSymbolTable
70
2
0
APPID
5
12
100
AcDbSymbolTableRecord
100
AcDbRegAppTableRecord
2
ACAD
70
0
0
ENDTAB
0
TABLE
2
DIMSTYLE
5
A
100
AcDbSymbolTable
70
1
0
ENDTAB
0
TABLE
2
BLOCK_RECORD
5
1
100
AcDbSymbolTable
70
1
0
BLOCK_RECORD
5
1F
100
AcDbSymbolTableRecord
100
AcDbBlockTableRecord
2
*MODEL_SPACE
0
BLOCK_RECORD
5
1B
100
AcDbSymbolTableRecord
100
AcDbBlockTableRecord
2
*PAPER_SPACE
0
ENDTAB
0
ENDSEC
0
SECTION
2
BLOCKS
0
BLOCK
5
20
100
AcDbEntity
100
AcDbBlockBegin
2
*MODEL_SPACE
0
ENDBLK
5
21
100
AcDbEntity
100
AcDbBlockEnd
0
BLOCK
5
1C
100
AcDbEntity
100
AcDbBlockBegin
2
*PAPER_SPACE
0
ENDBLK
5
1D
100
AcDbEntity
100
AcDbBlockEnd
0
ENDSEC
0
SECTION
2
ENTITIES
0
CIRCLE
5
100
100
AcDbEntity
8
0
100
AcDbCircle
10
-356.81431154686754
20
213.20254981041325
30
0
40
1.7499999999999716
210
0
220
0
230
1
0
CIRCLE
5
101
100
AcDbEntity
8
0
100
AcDbCircle
10
-224.21414791626958
20
213.20254981041296
30
0
40
1.7500000000000071
210
0
220
0
230
1
0
CIRCLE
5
102
100
AcDbEntity
8
0
100
AcDbCircle
10
-489.48097821353423
20
213.20254981041353
30
0
40
1.7499999999999716
210
0
220
0
230
1
0
CIRCLE
5
103
100
AcDbEntity
8
0
100
AcDbCircle
10
-91.54748124960291
20
213.20254981041268
30
0
40
1.7499999999999893
210
0
220
0
230
1
0
CIRCLE
5
104
100
AcDbEntity
8
0
100
AcDbCircle
10
-489.48097821353417
20
81.985785751164343
30
0
40
1.7499999999999716
210
0
220
0
230
1
0
CIRCLE
5
105
100
AcDbEntity
8
0
100
AcDbCircle
10
-224.21414791626921
20
81.985785751164215
30
0
40
1.7500000000000071
210
0
220
0
230
1
0
CIRCLE
5
106
100
AcDbEntity
8
0
100
AcDbCircle
10
-356.81431154686749
20
81.985785751164286
30
0
40
1.7499999999999716
210
0
220
0
230
1
0
CIRCLE
5
107
100
AcDbEntity
8
0
100
AcDbCircle
10
-91.547481249602569
20
81.985785751164144
30
0
40
1.7500000000000071
210
0
220
0
230
1
0
LWPOLYLINE
5
108
100
AcDbEntity
8
0
100
AcDbPolyline
90
26
70
1
43
0.0
10
-128.40000395402316
20
78.985785751164173
42
-0.41421356237309764
10
-129.40000395402313
20
77.985785751164173
10
-490.4809782135344
20
77.985785751164443
42
-0.4142135623730846
10
-493.48097821353434
20
80.985785751164457
10
-493.48097821353406
20
214.25950919054225
42
-0.41421356237310542
10
-490.48097821353406
20
217.25950919054227
10
-90.547481249603109
20
217.25950919054227
42
-0.41421356237309681
10
-87.547481249603038
20
214.2595091905423
10
-87.547481249602043
20
80.985785751164201
42
-0.41421356237310719
10
-90.547481249602058
20
77.985785751164144
10
-108.60000421633603
20
77.985785751164144
42
-0.41421356803152509
10
-109.60000421633606
20
78.985785770483247
10
-109.60000408206832
20
85.93578799219398
42
-0.41421355671466764
10
-107.60000408206835
20
87.935787953555788
10
-101.00000423565515
20
87.935787953555788
42
0.41421356237309293
10
-96.000004235655155
20
92.935787953555788
10
-96.000004235655155
20
204.60710568795278
42
0.41421356237309609
10
-101.00000423565518
20
209.60710568795278
10
-480.00297817568696
20
209.5986746104515
42
0.41421356237201284
10
-485.00297817614694
20
204.59867461092978
10
-485.00297829521969
20
92.899604654525149
42
0.41421356221031203
10
-480.00297830332869
20
87.899604649195084
10
-131.40000395404351
20
87.907104988289461
10
-130.40000362321766
20
87.90710487802086
42
-0.41421356237314444
10
-128.40000384375483
20
85.907104657483387
10
-128.40000395402316
20
84.907108252815163
0
ENDSEC
0
SECTION
2
OBJECTS
0
DICTIONARY
5
C
100
AcDbDictionary
3
ACAD_GROUP
350
D
3
ACAD_MLINESTYLE
350
17
0
DICTIONARY
5
D
100
AcDbDictionary
0
DICTIONARY
5
1A
330
C
100
AcDbDictionary
0
DICTIONARY
5
17
100
AcDbDictionary
0
ENDSEC
0
EOF
