G04 #@! TF.GenerationSoftware,KiCad,Pcbnew,5.99.0-unknown-ff9612b6da~131~ubuntu20.04.1*
G04 #@! TF.CreationDate,2021-08-29T18:12:00+10:00*
G04 #@! TF.ProjectId,keyboard,6b657962-6f61-4726-942e-6b696361645f,0.4w*
G04 #@! TF.SameCoordinates,Original*
G04 #@! TF.FileFunction,Paste,Bot*
G04 #@! TF.FilePolarity,Positive*
%FSLAX46Y46*%
G04 Gerber Fmt 4.6, Leading zero omitted, Abs format (unit mm)*
G04 Created by KiCad (PCBNEW 5.99.0-unknown-ff9612b6da~131~ubuntu20.04.1) date 2021-08-29 18:12:00*
%MOMM*%
%LPD*%
G01*
G04 APERTURE LIST*
G04 Aperture macros list*
%AMRoundRect*
0 Rectangle with rounded corners*
0 $1 Rounding radius*
0 $2 $3 $4 $5 $6 $7 $8 $9 X,Y pos of 4 corners*
0 Add a 4 corners polygon primitive as box body*
4,1,4,$2,$3,$4,$5,$6,$7,$8,$9,$2,$3,0*
0 Add four circle primitives for the rounded corners*
1,1,$1+$1,$2,$3*
1,1,$1+$1,$4,$5*
1,1,$1+$1,$6,$7*
1,1,$1+$1,$8,$9*
0 Add four rect primitives between the rounded corners*
20,1,$1+$1,$2,$3,$4,$5,0*
20,1,$1+$1,$4,$5,$6,$7,0*
20,1,$1+$1,$6,$7,$8,$9,0*
20,1,$1+$1,$8,$9,$2,$3,0*%
G04 Aperture macros list end*
%ADD10RoundRect,0.205000X0.205000X-0.695000X0.205000X0.695000X-0.205000X0.695000X-0.205000X-0.695000X0*%
%ADD11R,0.820000X1.800000*%
%ADD12R,1.200000X0.900000*%
%ADD13RoundRect,0.218750X-0.256250X0.218750X-0.256250X-0.218750X0.256250X-0.218750X0.256250X0.218750X0*%
%ADD14O,1.500000X2.100000*%
%ADD15O,1.500000X2.500000*%
%ADD16RoundRect,0.120000X-0.180000X-0.605000X0.180000X-0.605000X0.180000X0.605000X-0.180000X0.605000X0*%
%ADD17RoundRect,0.060000X-0.090000X-0.665000X0.090000X-0.665000X0.090000X0.665000X-0.090000X0.665000X0*%
%ADD18O,1.000000X1.600000*%
%ADD19O,1.000000X2.100000*%
%ADD20RoundRect,0.218750X0.256250X-0.218750X0.256250X0.218750X-0.256250X0.218750X-0.256250X-0.218750X0*%
%ADD21RoundRect,0.218750X0.218750X0.256250X-0.218750X0.256250X-0.218750X-0.256250X0.218750X-0.256250X0*%
%ADD22RoundRect,0.218750X-0.218750X-0.256250X0.218750X-0.256250X0.218750X0.256250X-0.218750X0.256250X0*%
%ADD23RoundRect,0.243750X-0.243750X-0.456250X0.243750X-0.456250X0.243750X0.456250X-0.243750X0.456250X0*%
%ADD24RoundRect,0.225000X-0.275000X0.225000X-0.275000X-0.225000X0.275000X-0.225000X0.275000X0.225000X0*%
%ADD25R,1.000000X1.500000*%
%ADD26RoundRect,0.119000X0.381000X0.369000X-0.381000X0.369000X-0.381000X-0.369000X0.381000X-0.369000X0*%
%ADD27R,1.500000X1.000000*%
%ADD28R,0.900000X0.800000*%
%ADD29R,0.800000X0.900000*%
%ADD30R,0.650000X1.060000*%
%ADD31RoundRect,0.250000X-1.500000X0.250000X-1.500000X-0.250000X1.500000X-0.250000X1.500000X0.250000X0*%
%ADD32RoundRect,0.250500X-1.449500X0.499500X-1.449500X-0.499500X1.449500X-0.499500X1.449500X0.499500X0*%
%ADD33R,1.524000X0.700000*%
%ADD34R,0.700000X1.524000*%
%ADD35RoundRect,0.162500X0.367500X0.162500X-0.367500X0.162500X-0.367500X-0.162500X0.367500X-0.162500X0*%
%ADD36R,0.650000X0.400000*%
G04 APERTURE END LIST*
D10*
G04 #@! TO.C,D1*
X251300000Y-197950000D03*
X252660000Y-197950000D03*
D11*
X252660000Y-192450000D03*
D10*
X251300000Y-192450000D03*
G04 #@! TD*
G04 #@! TO.C,D2*
X290800000Y-197950000D03*
X292160000Y-197950000D03*
D11*
X292160000Y-192450000D03*
D10*
X290800000Y-192450000D03*
G04 #@! TD*
G04 #@! TO.C,D3*
X326800000Y-197950000D03*
X328160000Y-197950000D03*
D11*
X328160000Y-192450000D03*
D10*
X326800000Y-192450000D03*
G04 #@! TD*
G04 #@! TO.C,D4*
X365300000Y-197950000D03*
X366660000Y-197950000D03*
D11*
X366660000Y-192450000D03*
D10*
X365300000Y-192450000D03*
G04 #@! TD*
D12*
G04 #@! TO.C,D_109*
X135900000Y-102650000D03*
X135900000Y-99350000D03*
G04 #@! TD*
G04 #@! TO.C,D_99*
X140500000Y-102650000D03*
X140500000Y-99350000D03*
G04 #@! TD*
G04 #@! TO.C,D_93*
X158200000Y-102650000D03*
X158200000Y-99350000D03*
G04 #@! TD*
D13*
G04 #@! TO.C,C21*
X122400000Y-114612500D03*
X122400000Y-116187500D03*
G04 #@! TD*
D14*
G04 #@! TO.C,J2*
X123550000Y-82626155D03*
X114450000Y-82626155D03*
D15*
X114450000Y-86806155D03*
X123550000Y-86806155D03*
D16*
X115750000Y-87721155D03*
X116550000Y-87721155D03*
D17*
X117750000Y-87721155D03*
X118750000Y-87721155D03*
X119250000Y-87721155D03*
X120250000Y-87721155D03*
D16*
X121450000Y-87721155D03*
X122250000Y-87721155D03*
X122250000Y-87721155D03*
X121450000Y-87721155D03*
D17*
X120750000Y-87721155D03*
X119750000Y-87721155D03*
X118250000Y-87721155D03*
X117250000Y-87721155D03*
D16*
X116550000Y-87721155D03*
X115750000Y-87721155D03*
D18*
X114680000Y-82626155D03*
X123320000Y-82626155D03*
D19*
X123320000Y-86806155D03*
X114680000Y-86806155D03*
G04 #@! TD*
D20*
G04 #@! TO.C,R4*
X122800000Y-95573286D03*
X122800000Y-93998286D03*
G04 #@! TD*
D13*
G04 #@! TO.C,R7*
X121300000Y-93998286D03*
X121300000Y-95573286D03*
G04 #@! TD*
D12*
G04 #@! TO.C,D_2*
X463287500Y-121750000D03*
X463287500Y-118450000D03*
G04 #@! TD*
D20*
G04 #@! TO.C,C11*
X290800000Y-201687500D03*
X290800000Y-200112500D03*
G04 #@! TD*
G04 #@! TO.C,C13*
X251300000Y-201687500D03*
X251300000Y-200112500D03*
G04 #@! TD*
G04 #@! TO.C,C9*
X326800000Y-201687500D03*
X326800000Y-200112500D03*
G04 #@! TD*
G04 #@! TO.C,C6*
X365300000Y-201687500D03*
X365300000Y-200112500D03*
G04 #@! TD*
D21*
G04 #@! TO.C,D22*
X102287500Y-101500000D03*
X100712500Y-101500000D03*
G04 #@! TD*
D20*
G04 #@! TO.C,R5*
X121412500Y-110387500D03*
X121412500Y-108812500D03*
G04 #@! TD*
D22*
G04 #@! TO.C,C24*
X114812500Y-89685786D03*
X116387500Y-89685786D03*
G04 #@! TD*
D23*
G04 #@! TO.C,F1*
X114462500Y-91385786D03*
X116337500Y-91385786D03*
G04 #@! TD*
D24*
G04 #@! TO.C,SW1*
X100800000Y-110550000D03*
X100800000Y-106450000D03*
X102400000Y-110550000D03*
X102400000Y-106450000D03*
G04 #@! TD*
D12*
G04 #@! TO.C,D_55*
X303637500Y-160150000D03*
X303637500Y-156850000D03*
G04 #@! TD*
G04 #@! TO.C,D_45*
X336975000Y-140750000D03*
X336975000Y-137450000D03*
G04 #@! TD*
G04 #@! TO.C,D_94*
X156000000Y-140750000D03*
X156000000Y-137450000D03*
G04 #@! TD*
G04 #@! TO.C,D_43*
X346450000Y-121750000D03*
X346450000Y-118450000D03*
G04 #@! TD*
D21*
G04 #@! TO.C,D23*
X102287500Y-103150000D03*
X100712500Y-103150000D03*
G04 #@! TD*
D12*
G04 #@! TO.C,D_38*
X360787500Y-160150000D03*
X360787500Y-156850000D03*
G04 #@! TD*
G04 #@! TO.C,D_12*
X449837500Y-160150000D03*
X449837500Y-156850000D03*
G04 #@! TD*
G04 #@! TO.C,D_3*
X463337500Y-140750000D03*
X463337500Y-137450000D03*
G04 #@! TD*
G04 #@! TO.C,D_57*
X294012500Y-179150000D03*
X294012500Y-175850000D03*
G04 #@! TD*
G04 #@! TO.C,D_61*
X282637500Y-197950000D03*
X282637500Y-194650000D03*
G04 #@! TD*
G04 #@! TO.C,D_14*
X441750000Y-197950000D03*
X441750000Y-194650000D03*
G04 #@! TD*
G04 #@! TO.C,D_66*
X265537500Y-160150000D03*
X265537500Y-156850000D03*
G04 #@! TD*
G04 #@! TO.C,D_97*
X155900000Y-179150000D03*
X155900000Y-175850000D03*
G04 #@! TD*
G04 #@! TO.C,D_1*
X463337500Y-102650000D03*
X463337500Y-99350000D03*
G04 #@! TD*
D25*
G04 #@! TO.C,D5*
X463600000Y-150050000D03*
X460400000Y-150050000D03*
X460400000Y-145150000D03*
X463600000Y-145150000D03*
G04 #@! TD*
D12*
G04 #@! TO.C,D_28*
X394125000Y-140750000D03*
X394125000Y-137450000D03*
G04 #@! TD*
G04 #@! TO.C,D_77*
X227437500Y-160150000D03*
X227437500Y-156850000D03*
G04 #@! TD*
G04 #@! TO.C,D_10*
X460700000Y-179150000D03*
X460700000Y-175850000D03*
G04 #@! TD*
G04 #@! TO.C,D_110*
X117900000Y-121750000D03*
X117900000Y-118450000D03*
G04 #@! TD*
G04 #@! TO.C,D_37*
X365500000Y-121750000D03*
X365500000Y-118450000D03*
G04 #@! TD*
G04 #@! TO.C,D_80*
X213150000Y-102650000D03*
X213150000Y-99350000D03*
G04 #@! TD*
D21*
G04 #@! TO.C,C25*
X116300000Y-106006250D03*
X114725000Y-106006250D03*
G04 #@! TD*
D12*
G04 #@! TO.C,D_106*
X136900000Y-160150000D03*
X136900000Y-156850000D03*
G04 #@! TD*
D22*
G04 #@! TO.C,C20*
X127512500Y-142100000D03*
X129087500Y-142100000D03*
G04 #@! TD*
D26*
G04 #@! TO.C,D21*
X116200000Y-110900000D03*
X113200000Y-110900000D03*
G04 #@! TD*
D12*
G04 #@! TO.C,D_81*
X213100000Y-121750000D03*
X213100000Y-118450000D03*
G04 #@! TD*
G04 #@! TO.C,D_85*
X198862500Y-197950000D03*
X198862500Y-194650000D03*
G04 #@! TD*
D27*
G04 #@! TO.C,D9*
X402383330Y-184600000D03*
X402383330Y-181400000D03*
X407283330Y-181400000D03*
X407283330Y-184600000D03*
G04 #@! TD*
D12*
G04 #@! TO.C,D_6*
X463237500Y-179150000D03*
X463237500Y-175850000D03*
G04 #@! TD*
D21*
G04 #@! TO.C,R11*
X102287500Y-100000000D03*
X100712500Y-100000000D03*
G04 #@! TD*
D12*
G04 #@! TO.C,D_75*
X232200000Y-102650000D03*
X232200000Y-99350000D03*
G04 #@! TD*
G04 #@! TO.C,D_30*
X388200000Y-197950000D03*
X388200000Y-194650000D03*
G04 #@! TD*
G04 #@! TO.C,D_96*
X155950000Y-121750000D03*
X155950000Y-118450000D03*
G04 #@! TD*
D13*
G04 #@! TO.C,C27*
X114800000Y-183025000D03*
X114800000Y-184600000D03*
G04 #@! TD*
D12*
G04 #@! TO.C,D_76*
X232150000Y-121750000D03*
X232150000Y-118450000D03*
G04 #@! TD*
D13*
G04 #@! TO.C,C19*
X131300000Y-143512500D03*
X131300000Y-145087500D03*
G04 #@! TD*
D27*
G04 #@! TO.C,D17*
X173716666Y-184600000D03*
X173716666Y-181400000D03*
X178616666Y-181400000D03*
X178616666Y-184600000D03*
G04 #@! TD*
D12*
G04 #@! TO.C,D_98*
X151300000Y-201450000D03*
X151300000Y-198150000D03*
G04 #@! TD*
D13*
G04 #@! TO.C,C5*
X400600000Y-183012500D03*
X400600000Y-184587500D03*
G04 #@! TD*
D12*
G04 #@! TO.C,D_24*
X403650000Y-102650000D03*
X403650000Y-99350000D03*
G04 #@! TD*
D21*
G04 #@! TO.C,R10*
X116287500Y-109000000D03*
X114712500Y-109000000D03*
G04 #@! TD*
D12*
G04 #@! TO.C,D_17*
X425000000Y-121750000D03*
X425000000Y-118450000D03*
G04 #@! TD*
D20*
G04 #@! TO.C,C1*
X466100000Y-108087500D03*
X466100000Y-106512500D03*
G04 #@! TD*
D12*
G04 #@! TO.C,D_52*
X313062500Y-179150000D03*
X313062500Y-175850000D03*
G04 #@! TD*
G04 #@! TO.C,D_50*
X298850000Y-198400000D03*
X298850000Y-195100000D03*
G04 #@! TD*
G04 #@! TO.C,D_100*
X139312500Y-140750000D03*
X139312500Y-137450000D03*
G04 #@! TD*
G04 #@! TO.C,D_101*
X139200000Y-160150000D03*
X139200000Y-156850000D03*
G04 #@! TD*
D21*
G04 #@! TO.C,C26*
X116312500Y-107506250D03*
X114737500Y-107506250D03*
G04 #@! TD*
D25*
G04 #@! TO.C,D19*
X117500000Y-145150000D03*
X120700000Y-145150000D03*
X120700000Y-150050000D03*
X117500000Y-150050000D03*
G04 #@! TD*
D12*
G04 #@! TO.C,D_9*
X460800000Y-197950000D03*
X460800000Y-194650000D03*
G04 #@! TD*
D27*
G04 #@! TO.C,D6*
X459550000Y-184600000D03*
X459550000Y-181400000D03*
X464450000Y-181400000D03*
X464450000Y-184600000D03*
G04 #@! TD*
D12*
G04 #@! TO.C,D_62*
X279825000Y-140750000D03*
X279825000Y-137450000D03*
G04 #@! TD*
G04 #@! TO.C,D_41*
X351162500Y-179150000D03*
X351162500Y-175850000D03*
G04 #@! TD*
D27*
G04 #@! TO.C,D15*
X230883332Y-184600000D03*
X230883332Y-181400000D03*
X235783332Y-181400000D03*
X235783332Y-184600000D03*
G04 #@! TD*
D12*
G04 #@! TO.C,D_13*
X441750000Y-102650000D03*
X441750000Y-99350000D03*
G04 #@! TD*
D27*
G04 #@! TO.C,D20*
X116550000Y-184600000D03*
X116550000Y-181400000D03*
X121450000Y-181400000D03*
X121450000Y-184600000D03*
G04 #@! TD*
D28*
G04 #@! TO.C,Q2*
X119400000Y-138850000D03*
X119400000Y-140750000D03*
X117400000Y-139800000D03*
G04 #@! TD*
D29*
G04 #@! TO.C,Q1*
X124450000Y-141900000D03*
X122550000Y-141900000D03*
X123500000Y-139900000D03*
G04 #@! TD*
D12*
G04 #@! TO.C,D_29*
X389262500Y-179150000D03*
X389262500Y-175850000D03*
G04 #@! TD*
G04 #@! TO.C,D_78*
X222675000Y-140750000D03*
X222675000Y-137450000D03*
G04 #@! TD*
D20*
G04 #@! TO.C,C14*
X250300000Y-108100000D03*
X250300000Y-106525000D03*
G04 #@! TD*
D27*
G04 #@! TO.C,D11*
X345216664Y-184600000D03*
X345216664Y-181400000D03*
X350116664Y-181400000D03*
X350116664Y-184600000D03*
G04 #@! TD*
D12*
G04 #@! TO.C,D_25*
X403600000Y-121750000D03*
X403600000Y-118450000D03*
G04 #@! TD*
D30*
G04 #@! TO.C,U5*
X119762500Y-110400000D03*
X118812500Y-110400000D03*
X117862500Y-110400000D03*
X117862500Y-108200000D03*
X118812500Y-108200000D03*
X119762500Y-108200000D03*
G04 #@! TD*
D12*
G04 #@! TO.C,D_83*
X201300000Y-160150000D03*
X201300000Y-156850000D03*
G04 #@! TD*
G04 #@! TO.C,D_39*
X356025000Y-140750000D03*
X356025000Y-137450000D03*
G04 #@! TD*
D31*
G04 #@! TO.C,J3*
X103850000Y-125800000D03*
X103850000Y-127800000D03*
D32*
X109600000Y-123450000D03*
X109600000Y-130150000D03*
G04 #@! TD*
D12*
G04 #@! TO.C,D_73*
X241725000Y-140750000D03*
X241725000Y-137450000D03*
G04 #@! TD*
D28*
G04 #@! TO.C,U3*
X120900000Y-114350000D03*
X120900000Y-116250000D03*
X118900000Y-115300000D03*
G04 #@! TD*
D12*
G04 #@! TO.C,D_91*
X158337500Y-140750000D03*
X158337500Y-137450000D03*
G04 #@! TD*
D27*
G04 #@! TO.C,D14*
X248516666Y-106500000D03*
X248516666Y-109700000D03*
X243616666Y-109700000D03*
X243616666Y-106500000D03*
G04 #@! TD*
D12*
G04 #@! TO.C,D_36*
X365550000Y-102650000D03*
X365550000Y-99350000D03*
G04 #@! TD*
D27*
G04 #@! TO.C,D7*
X464350000Y-106500000D03*
X464350000Y-109700000D03*
X459450000Y-109700000D03*
X459450000Y-106500000D03*
G04 #@! TD*
D12*
G04 #@! TO.C,D_79*
X222675000Y-197950000D03*
X222675000Y-194650000D03*
G04 #@! TD*
D27*
G04 #@! TO.C,D10*
X356433332Y-106500000D03*
X356433332Y-109700000D03*
X351533332Y-109700000D03*
X351533332Y-106500000D03*
G04 #@! TD*
D29*
G04 #@! TO.C,Q3*
X115450000Y-112800000D03*
X117350000Y-112800000D03*
X116400000Y-114800000D03*
G04 #@! TD*
D12*
G04 #@! TO.C,D_105*
X136900000Y-140750000D03*
X136900000Y-137450000D03*
G04 #@! TD*
D20*
G04 #@! TO.C,C10*
X304300000Y-108087500D03*
X304300000Y-106512500D03*
G04 #@! TD*
D12*
G04 #@! TO.C,D_108*
X136637500Y-179150000D03*
X136637500Y-175850000D03*
G04 #@! TD*
G04 #@! TO.C,D_74*
X236862500Y-179150000D03*
X236862500Y-175850000D03*
G04 #@! TD*
G04 #@! TO.C,D_8*
X460800000Y-102650000D03*
X460800000Y-99350000D03*
G04 #@! TD*
G04 #@! TO.C,D_82*
X206737500Y-179150000D03*
X206737500Y-175850000D03*
G04 #@! TD*
D21*
G04 #@! TO.C,C23*
X119100000Y-143300000D03*
X117525000Y-143300000D03*
G04 #@! TD*
D12*
G04 #@! TO.C,D_71*
X246487500Y-160150000D03*
X246487500Y-156850000D03*
G04 #@! TD*
D13*
G04 #@! TO.C,C17*
X171900000Y-183012500D03*
X171900000Y-184587500D03*
G04 #@! TD*
D12*
G04 #@! TO.C,D_59*
X289300000Y-121750000D03*
X289300000Y-118450000D03*
G04 #@! TD*
G04 #@! TO.C,D_16*
X432225000Y-140750000D03*
X432225000Y-137450000D03*
G04 #@! TD*
G04 #@! TO.C,D_102*
X139000000Y-179150000D03*
X139000000Y-175850000D03*
G04 #@! TD*
G04 #@! TO.C,D_64*
X270300000Y-102650000D03*
X270300000Y-99350000D03*
G04 #@! TD*
D27*
G04 #@! TO.C,D8*
X410391665Y-106500000D03*
X410391665Y-109700000D03*
X405491665Y-109700000D03*
X405491665Y-106500000D03*
G04 #@! TD*
D12*
G04 #@! TO.C,D_90*
X174950000Y-179150000D03*
X174950000Y-175850000D03*
G04 #@! TD*
G04 #@! TO.C,D_34*
X375075000Y-140750000D03*
X375075000Y-137450000D03*
G04 #@! TD*
G04 #@! TO.C,D_53*
X308400000Y-102650000D03*
X308400000Y-99350000D03*
G04 #@! TD*
D33*
G04 #@! TO.C,U1*
X172200000Y-153800000D03*
X172200000Y-152700000D03*
X172200000Y-151600000D03*
X172200000Y-150500000D03*
X172200000Y-149400000D03*
X172200000Y-148300000D03*
X172200000Y-147200000D03*
X172200000Y-146100000D03*
X172200000Y-145000000D03*
X172200000Y-143900000D03*
X172200000Y-142800000D03*
X172200000Y-141700000D03*
X172200000Y-140600000D03*
D34*
X173450000Y-139100000D03*
X174550000Y-139100000D03*
X175650000Y-139100000D03*
X176750000Y-139100000D03*
X177850000Y-139100000D03*
X178950000Y-139100000D03*
X180050000Y-139100000D03*
X181150000Y-139100000D03*
X182250000Y-139100000D03*
X183350000Y-139100000D03*
X184450000Y-139100000D03*
D33*
X185700000Y-140600000D03*
X185700000Y-141700000D03*
X185700000Y-142800000D03*
X185700000Y-143900000D03*
X185700000Y-145000000D03*
X185700000Y-146100000D03*
X185700000Y-147200000D03*
X185700000Y-148300000D03*
X185700000Y-149400000D03*
X185700000Y-150500000D03*
X185700000Y-151600000D03*
X185700000Y-152700000D03*
X185700000Y-153800000D03*
X174700000Y-151600000D03*
X174700000Y-150500000D03*
X174700000Y-149400000D03*
X174700000Y-148300000D03*
X174700000Y-147200000D03*
X174700000Y-146100000D03*
X174700000Y-145000000D03*
X174700000Y-143900000D03*
X174700000Y-142800000D03*
X183200000Y-151600000D03*
X183200000Y-150500000D03*
X183200000Y-149400000D03*
X183200000Y-148300000D03*
X183200000Y-147200000D03*
X183200000Y-146100000D03*
X183200000Y-145000000D03*
X183200000Y-143900000D03*
X183200000Y-142800000D03*
G04 #@! TD*
D12*
G04 #@! TO.C,D_68*
X255912500Y-179150000D03*
X255912500Y-175850000D03*
G04 #@! TD*
G04 #@! TO.C,D_84*
X199837500Y-140750000D03*
X199837500Y-137450000D03*
G04 #@! TD*
D20*
G04 #@! TO.C,C7*
X358200000Y-108087500D03*
X358200000Y-106512500D03*
G04 #@! TD*
D12*
G04 #@! TO.C,D_19*
X422700000Y-197950000D03*
X422700000Y-194650000D03*
G04 #@! TD*
D13*
G04 #@! TO.C,R6*
X120900000Y-139012500D03*
X120900000Y-140587500D03*
G04 #@! TD*
G04 #@! TO.C,C3*
X457800000Y-183012500D03*
X457800000Y-184587500D03*
G04 #@! TD*
D27*
G04 #@! TO.C,D18*
X140600000Y-106500000D03*
X140600000Y-109700000D03*
X135700000Y-109700000D03*
X135700000Y-106500000D03*
G04 #@! TD*
D12*
G04 #@! TO.C,D_72*
X246487500Y-197950000D03*
X246487500Y-194650000D03*
G04 #@! TD*
D35*
G04 #@! TO.C,U4*
X120100000Y-90385786D03*
X120100000Y-91335786D03*
X120100000Y-92285786D03*
X117900000Y-92285786D03*
X117900000Y-91335786D03*
X117900000Y-90385786D03*
G04 #@! TD*
D27*
G04 #@! TO.C,D12*
X302474999Y-106500000D03*
X302474999Y-109700000D03*
X297574999Y-109700000D03*
X297574999Y-106500000D03*
G04 #@! TD*
D12*
G04 #@! TO.C,D_7*
X460887500Y-121750000D03*
X460887500Y-118450000D03*
G04 #@! TD*
G04 #@! TO.C,D_60*
X284587500Y-160150000D03*
X284587500Y-156850000D03*
G04 #@! TD*
G04 #@! TO.C,D_89*
X175050000Y-197950000D03*
X175050000Y-194650000D03*
G04 #@! TD*
D21*
G04 #@! TO.C,R3*
X124287500Y-143400000D03*
X122712500Y-143400000D03*
G04 #@! TD*
D12*
G04 #@! TO.C,D_48*
X327400000Y-121750000D03*
X327400000Y-118450000D03*
G04 #@! TD*
G04 #@! TO.C,D_87*
X194050000Y-121750000D03*
X194050000Y-118450000D03*
G04 #@! TD*
G04 #@! TO.C,D_51*
X317925000Y-140750000D03*
X317925000Y-137450000D03*
G04 #@! TD*
G04 #@! TO.C,D_42*
X346500000Y-102650000D03*
X346500000Y-99350000D03*
G04 #@! TD*
G04 #@! TO.C,D_23*
X408312500Y-179150000D03*
X408312500Y-175850000D03*
G04 #@! TD*
D13*
G04 #@! TO.C,C15*
X229100000Y-183100000D03*
X229100000Y-184675000D03*
G04 #@! TD*
D12*
G04 #@! TO.C,D_67*
X260775000Y-140750000D03*
X260775000Y-137450000D03*
G04 #@! TD*
G04 #@! TO.C,D_33*
X379837500Y-160150000D03*
X379837500Y-156850000D03*
G04 #@! TD*
G04 #@! TO.C,D_4*
X463337500Y-160150000D03*
X463337500Y-156850000D03*
G04 #@! TD*
G04 #@! TO.C,D_70*
X251200000Y-121750000D03*
X251200000Y-118450000D03*
G04 #@! TD*
G04 #@! TO.C,D_27*
X398887500Y-160150000D03*
X398887500Y-156850000D03*
G04 #@! TD*
G04 #@! TO.C,D_11*
X456337500Y-140750000D03*
X456337500Y-137450000D03*
G04 #@! TD*
G04 #@! TO.C,D_26*
X402400000Y-197950000D03*
X402400000Y-194650000D03*
G04 #@! TD*
D22*
G04 #@! TO.C,R1*
X122900000Y-110300000D03*
X124475000Y-110300000D03*
G04 #@! TD*
D12*
G04 #@! TO.C,D_63*
X274962500Y-179150000D03*
X274962500Y-175850000D03*
G04 #@! TD*
G04 #@! TO.C,D_22*
X413175000Y-140750000D03*
X413175000Y-137450000D03*
G04 #@! TD*
D22*
G04 #@! TO.C,C2*
X462000000Y-151800000D03*
X463575000Y-151800000D03*
G04 #@! TD*
D12*
G04 #@! TO.C,D_18*
X422700000Y-102650000D03*
X422700000Y-99350000D03*
G04 #@! TD*
D27*
G04 #@! TO.C,D16*
X194558333Y-106500000D03*
X194558333Y-109700000D03*
X189658333Y-109700000D03*
X189658333Y-106500000D03*
G04 #@! TD*
D12*
G04 #@! TO.C,D_69*
X251250000Y-102650000D03*
X251250000Y-99350000D03*
G04 #@! TD*
G04 #@! TO.C,D_44*
X341737500Y-160150000D03*
X341737500Y-156850000D03*
G04 #@! TD*
D20*
G04 #@! TO.C,C4*
X412200000Y-108100000D03*
X412200000Y-106525000D03*
G04 #@! TD*
D27*
G04 #@! TO.C,D13*
X288049998Y-184600000D03*
X288049998Y-181400000D03*
X292949998Y-181400000D03*
X292949998Y-184600000D03*
G04 #@! TD*
D20*
G04 #@! TO.C,C18*
X142400000Y-108687500D03*
X142400000Y-107112500D03*
G04 #@! TD*
D12*
G04 #@! TO.C,D_49*
X322687500Y-160150000D03*
X322687500Y-156850000D03*
G04 #@! TD*
G04 #@! TO.C,D_5*
X463337500Y-197950000D03*
X463337500Y-194650000D03*
G04 #@! TD*
D20*
G04 #@! TO.C,C16*
X196400000Y-108087500D03*
X196400000Y-106512500D03*
G04 #@! TD*
D12*
G04 #@! TO.C,D_92*
X158337500Y-160150000D03*
X158337500Y-156850000D03*
G04 #@! TD*
G04 #@! TO.C,D_20*
X422650000Y-121750000D03*
X422650000Y-118450000D03*
G04 #@! TD*
G04 #@! TO.C,D_32*
X384550000Y-121750000D03*
X384550000Y-118450000D03*
G04 #@! TD*
D21*
G04 #@! TO.C,R2*
X124475000Y-111800000D03*
X122900000Y-111800000D03*
G04 #@! TD*
D12*
G04 #@! TO.C,D_54*
X308350000Y-121750000D03*
X308350000Y-118450000D03*
G04 #@! TD*
G04 #@! TO.C,D_35*
X370212500Y-179150000D03*
X370212500Y-175850000D03*
G04 #@! TD*
G04 #@! TO.C,D_47*
X327450000Y-102650000D03*
X327450000Y-99350000D03*
G04 #@! TD*
G04 #@! TO.C,D_95*
X156000000Y-160150000D03*
X156000000Y-156850000D03*
G04 #@! TD*
G04 #@! TO.C,D_65*
X270250000Y-121750000D03*
X270250000Y-118450000D03*
G04 #@! TD*
G04 #@! TO.C,D_104*
X136900000Y-121750000D03*
X136900000Y-118450000D03*
G04 #@! TD*
G04 #@! TO.C,D_111*
X117800000Y-191850000D03*
X117800000Y-188550000D03*
G04 #@! TD*
G04 #@! TO.C,D_21*
X417937500Y-160150000D03*
X417937500Y-156850000D03*
G04 #@! TD*
D20*
G04 #@! TO.C,R9*
X118412500Y-106587500D03*
X118412500Y-105012500D03*
G04 #@! TD*
D12*
G04 #@! TO.C,D_15*
X435237500Y-179150000D03*
X435237500Y-175850000D03*
G04 #@! TD*
G04 #@! TO.C,D_40*
X354037500Y-197950000D03*
X354037500Y-194650000D03*
G04 #@! TD*
G04 #@! TO.C,D_103*
X138200000Y-102650000D03*
X138200000Y-99350000D03*
G04 #@! TD*
G04 #@! TO.C,D_86*
X194100000Y-102650000D03*
X194100000Y-99350000D03*
G04 #@! TD*
D13*
G04 #@! TO.C,R8*
X119912500Y-105012500D03*
X119912500Y-106587500D03*
G04 #@! TD*
D12*
G04 #@! TO.C,D_56*
X298875000Y-140750000D03*
X298875000Y-137450000D03*
G04 #@! TD*
D21*
G04 #@! TO.C,D24*
X102287500Y-104800000D03*
X100712500Y-104800000D03*
G04 #@! TD*
D36*
G04 #@! TO.C,U2*
X129450000Y-143850000D03*
X129450000Y-144500000D03*
X129450000Y-145150000D03*
X127550000Y-145150000D03*
X127550000Y-144500000D03*
X127550000Y-143850000D03*
G04 #@! TD*
D13*
G04 #@! TO.C,C8*
X343400000Y-183012500D03*
X343400000Y-184587500D03*
G04 #@! TD*
D22*
G04 #@! TO.C,C22*
X118912500Y-112800000D03*
X120487500Y-112800000D03*
G04 #@! TD*
D12*
G04 #@! TO.C,D_31*
X384600000Y-102650000D03*
X384600000Y-99350000D03*
G04 #@! TD*
G04 #@! TO.C,D_46*
X332112500Y-179150000D03*
X332112500Y-175850000D03*
G04 #@! TD*
G04 #@! TO.C,D_58*
X289350000Y-102650000D03*
X289350000Y-99350000D03*
G04 #@! TD*
D13*
G04 #@! TO.C,C12*
X286300000Y-183025000D03*
X286300000Y-184600000D03*
G04 #@! TD*
D12*
G04 #@! TO.C,D_107*
X136837500Y-197950000D03*
X136837500Y-194650000D03*
G04 #@! TD*
G04 #@! TO.C,D_88*
X175000000Y-121750000D03*
X175000000Y-118450000D03*
G04 #@! TD*
M02*
